SplineFontDB: 3.2
FontName: BoeingEICAS
FullName: BoeingEICAS
FamilyName: BoeingEICAS
Weight: Regular
Copyright: CREATED FOR USE IN SALTY SIMULATIONS BOEING 747
UComments: "2021-1-13: Created with FontForge (http://fontforge.org)"
Version: 1.4
ItalicAngle: 0
UnderlinePosition: -100
UnderlineWidth: 50
Ascent: 800
Descent: 200
InvalidEm: 0
LayerCount: 6
Layer: 0 0 "Back" 1
Layer: 1 0 "Fore" 0
Layer: 2 0 "Back 2" 1
Layer: 3 0 "Back 3" 1
Layer: 4 0 "Back 4" 1
Layer: 5 0 "Back 5" 1
XUID: [1021 14 -1331243796 20072]
StyleMap: 0x0000
FSType: 0
OS2Version: 0
OS2_WeightWidthSlopeOnly: 0
OS2_UseTypoMetrics: 1
CreationTime: 1610550704
ModificationTime: 1634652166
OS2TypoAscent: 0
OS2TypoAOffset: 1
OS2TypoDescent: 0
OS2TypoDOffset: 1
OS2TypoLinegap: 90
OS2WinAscent: 0
OS2WinAOffset: 1
OS2WinDescent: 0
OS2WinDOffset: 1
HheadAscent: 0
HheadAOffset: 1
HheadDescent: 0
HheadDOffset: 1
OS2Vendor: 'PfEd'
MarkAttachClasses: 1
DEI: 91125
Encoding: Custom
UnicodeInterp: none
NameList: AGL For New Fonts
DisplaySize: -72
AntiAlias: 1
FitToEm: 0
WidthSeparation: 10
WinInfo: 0 19 7
BeginPrivate: 0
EndPrivate
Grid
-1000 2229.41665649 m 0
 2000 2229.41665649 l 1024
  Spiro
    -1000 2229.42 {
    2000 2229.42 o
    0 0 z
  EndSpiro
-1000 -97 m 0
 2000 -97 l 1024
  Spiro
    -1000 -97 {
    2000 -97 o
    0 0 z
  EndSpiro
-1000 747 m 0
 2000 747 l 1024
  Spiro
    -1000 747 {
    2000 747 o
    0 0 z
  EndSpiro
  Named: "EICAS HEIGHT"
2000 744.5 m 1024
  Spiro
    2000 744.5 {
    0 0 z
  EndSpiro
  Named: "eicas height"
2000 751.98046875 m 1024
  Spiro
    2000 751.98 {
    0 0 z
  EndSpiro
  Named: "MAX HEIGHT"
EndSplineSet
BeginChars: 97 97

StartChar: A
Encoding: 30 65 0
Width: 500
Flags: W
HStem: 206 110<203 297> 724 20G<234 266>
VStem: 36 89<12.6715 107.993> 376 88<12.5547 107.993>
LayerCount: 6
Fore
SplineSet
296 700 m 1024
250 474 m 1
 203 316 l 1
 250 316 l 1
 297 316 l 1
 250 474 l 1
250 744 m 0
 282 744 289.255859375 724.3828125 296 700 c 0
 361 465 400 339 463 108 c 0
 469.377929688 84.6162109375 471.665039062 56.8134765625 464 38 c 0
 459.07421875 25.9111328125 452.856445312 11.6328125 425 5 c 0
 404.000055295 -0.000232232685552 379.201171875 26.2626953125 376 38 c 0
 358 104 345 140 327 206 c 1
 250 207 l 25
 173 206 l 1
 155 140 143 104 125 38 c 0
 121.798828125 26.2626953125 96 -6.37510877421e-17 75 5 c 0
 47.1430693778 11.6326025291 40.9253341457 25.9112579968 36 38 c 0
 28.3346607245 56.8138116377 30.6225562834 84.6160397058 37 108 c 0
 100 339 139 465 204 700 c 0
 210.744179228 724.382801823 218 744 250 744 c 0
204 700 m 1024
EndSplineSet
Validated: 33
EndChar

StartChar: B
Encoding: 31 66 1
Width: 500
InSpiro: 1
Flags: W
HStem: 0 97<144 314.39> 326 104<143 296.82> 639.699 106.301<141.1 300.102>
VStem: 45 99<97 326 430 639.699>
LayerCount: 6
Fore
SplineSet
141.099609375 639.69921875 m 1
 142 430 l 1
 258.099609375 430 l 1
 279.274414062 436.946289062 298.321289062 450.239257812 312.145507812 467.71875 c 0
 325.969726562 485.197265625 334.517578125 506.794921875 336.400390625 529 c 0
 338.419921875 552.830078125 332.64453125 577.423828125 319.330078125 597.291015625 c 0
 306.016601562 617.157226562 285.088867188 632.008789062 261.700195312 637 c 0
 257.255859375 637.948242188 252.737304688 638.55078125 248.200195312 638.799804688 c 2
 141.099609375 639.69921875 l 1
  Spiro
    141.1 639.7 v
    142 430 v
    258.1 430 v
    336.4 529 c
    261.7 637 c
    248.2 638.8 v
    0 0 z
  EndSpiro
374 378 m 1024
  Spiro
    374 378 {
    0 0 z
  EndSpiro
143 326 m 1
 144 97 l 1
 270 96 l 1
 291.308839628 101.831487702 311.029858586 113.361341581 326.564010266 129.070034292 c 0
 342.098161947 144.778727003 353.406956451 164.627336175 359 186 c 0
 366.476692322 214.570639604 363.4377356 246.027183458 349.326383845 271.970431657 c 0
 335.21503209 297.913679856 309.878823121 317.819712742 281 324 c 0
 276.062399939 325.056683876 271.041967886 325.726074816 266 326 c 2
 143 326 l 1
  Spiro
    143 326 v
    144 97 v
    270 96 v
    359 186 c
    281 324 c
    266 326 v
    0 0 z
  EndSpiro
48 746 m 1
 261 747 l 1
 311.000938697 741.190485378 358.543805441 716.280409895 391.781562947 678.477026359 c 0
 425.019320452 640.673642823 443.638698236 590.333253375 443 540 c 0
 442.252584734 481.09919227 415.426647254 423.877161773 374 382 c 0
 373.336945191 381.329734474 372.670265526 380.663054809 372 380 c 1
 374 378 l 1
 430.857700113 337.291395285 465.100747362 266.859673101 462 197 c 0
 459.713123638 145.476797228 437.68703246 94.9770719266 401.077373547 58.6507302221 c 0
 364.467714633 22.3243885177 313.569824247 0.650733880878 262 0 c 0
 260.333421784 -0.0210297189504 258.666578216 -0.0210297189504 257 0 c 2
 45 0 l 1
 45 746 l 1
 48 746 l 1
  Spiro
    48 746 v
    261 747 v
    443 540 c
    374 382 c
    372 380 v
    374 378 v
    462 197 c
    262 0 c
    257 0 v
    45 0 v
    45 746 v
    0 0 z
  EndSpiro
262 0 m 1024
  Spiro
    262 0 {
    0 0 z
  EndSpiro
262 0 m 1024
  Spiro
    262 0 {
    0 0 z
  EndSpiro
EndSplineSet
Validated: 33
EndChar

StartChar: C
Encoding: 32 67 2
Width: 500
InSpiro: 1
Flags: W
VStem: 39 100<173.009 254 508 572.991>
LayerCount: 6
Fore
SplineSet
40 536 m 0
 39 189 l 1
 45.587890625 150.817382812 62.1005859375 114.391601562 86.474609375 84.271484375 c 0
 110.849609375 54.15234375 143.03125 30.40625 179 16 c 0
 227.002929688 -3.2255859375 281.654296875 -5.4580078125 331 10 c 0
 377.131835938 24.451171875 418.408203125 54.3046875 446 94 c 0
 449.946289062 99.677734375 453.633789062 105.57421875 456.385742188 111.91796875 c 0
 459.137695312 118.26171875 460.94140625 125.084960938 461 132 c 0
 461.064453125 139.625 458.969726562 147.244140625 455.106445312 153.818359375 c 0
 451.243164062 160.393554688 445.629882812 165.9140625 439.044921875 169.759765625 c 0
 425.875 177.450195312 409.002929688 178.043945312 395 172 c 0
 386.04296875 168.133789062 378.348632812 161.829101562 371.388671875 154.993164062 c 0
 364.428710938 148.157226562 358.076171875 140.715820312 351 134 c 0
 330.438476562 114.487304688 303.313476562 101.375976562 275 100 c 0
 255.137695312 99.03515625 235.119140625 103.827148438 217.510742188 113.067382812 c 0
 199.90234375 122.307617188 184.700195312 135.920898438 173 152 c 0
 155.01171875 176.720703125 145.466796875 206.755859375 141 237 c 0
 140.166015625 242.645507812 139.499023438 248.315429688 139 254 c 2
 141 508 l 2
 143.329101562 539.056640625 154.956054688 569.357421875 174 594 c 0
 186.125 609.689453125 201.28125 623.158203125 218.7890625 632.465820312 c 0
 236.297851562 641.772460938 256.188476562 646.827148438 276 646 c 0
 304.3359375 644.81640625 331.458984375 631.5546875 352 612 c 0
 359.06640625 605.2734375 365.416015625 597.830078125 372.377929688 590.995117188 c 0
 379.340820312 584.16015625 387.040039062 577.861328125 396 574 c 0
 410.00390625 567.96484375 426.872070312 568.559570312 440.041015625 576.249023438 c 0
 446.625976562 580.092773438 452.239257812 585.612304688 456.103515625 592.185546875 c 0
 459.967773438 598.758789062 462.063476562 606.375 462 614 c 0
 461.942382812 620.915039062 460.139648438 627.739257812 457.387695312 634.083007812 c 0
 454.634765625 640.426757812 450.947265625 646.322265625 447 652 c 0
 419.404296875 691.689453125 378.118164062 721.51171875 332 736 c 0
 282.65625 751.501953125 227.953125 749.379882812 180 730 c 0
 141.014648438 714.244140625 106.62890625 687.287109375 82.0224609375 653.189453125 c 0
 57.416015625 619.091796875 42.66796875 577.96484375 40 536 c 0
  Spiro
    40 536 c
    39 189 v
    179 16 c
    331 10 c
    446 94 c
    461 132 c
    395 172 c
    351 134 c
    275 100 c
    173 152 c
    141 237 c
    139 254 v
    141 508 v
    174 594 c
    276 646 c
    352 612 c
    396 574 c
    462 614 c
    447 652 c
    332 736 c
    180 730 c
    0 0 z
  EndSpiro
EndSplineSet
Validated: 41
EndChar

StartChar: D
Encoding: 33 68 3
Width: 500
InSpiro: 1
Flags: W
HStem: -2 113.6<233.6 299.825> 632 114<238 299.825>
VStem: 363.6 100.4<183.011 288 425.2 558.292>
LayerCount: 6
Fore
SplineSet
126 632 m 1
 238.8 632.8 l 2
 251.219141559 632.017967328 263.505542197 629.166979334 275 624.4 c 0
 296.022984138 615.681352052 314.147440702 600.609566407 327.8 582.4 c 0
 346.267398282 557.76847795 356.612778867 527.699571423 360.8 497.2 c 0
 364.069741033 473.383321348 363.739416924 449.239674527 363.6 425.2 c 0
 363.501410431 408.200190587 363.501410431 391.199809413 363.6 374.2 c 0
 363.697004521 357.200184508 363.697004521 340.199815492 363.6 323.2 c 0
 363.529232707 310.798197409 363.406811216 298.395330579 363 286 c 0
 362.295325226 264.528918464 360.723360747 242.990082663 356.020044389 222.028624601 c 0
 351.316728032 201.067166539 343.378689929 180.614949569 330.8 163.2 c 0
 317.465849878 144.739130606 298.998273484 130.013385784 278 121.2 c 0
 263.958468931 115.306494974 248.822018856 112.033749012 233.6 111.6 c 2
 129 112 l 1
 126 632 l 1
  Spiro
    126 632 v
    238.8 632.8 v
    275 624.4 c
    327.8 582.4 c
    360.8 497.2 c
    363.6 425.2 c
    363.6 374.2 v
    363.6 323.2 c
    363 286 c
    330.8 163.2 c
    278 121.2 c
    233.6 111.6 v
    129 112 v
    0 0 z
  EndSpiro
35 0 m 1
 238 -2 l 2
 263.400390625 -1.6416015625 288.71875 3.8330078125 312 14 c 0
 346.6875 29.1484375 376.350585938 54.4443359375 400 84 c 0
 432.591796875 124.732421875 454.416015625 174.25 461 226 c 0
 463.612304688 246.538085938 463.859375 267.295898438 464 288 c 0
 464.19140625 316.33203125 464.19140625 344.666992188 464 373 c 0
 464.19140625 401.33203125 464.19140625 429.666992188 464 458 c 0
 463.859375 478.703125 463.612304688 499.4609375 461 520 c 0
 454.416015625 571.75 432.591796875 621.267578125 400 662 c 0
 376.350585938 691.5546875 346.6875 716.850585938 312 732 c 0
 288.71875 742.166015625 263.400390625 747.640625 238 748 c 2
 35 746 l 1
 35 0 l 1
  Spiro
    35 0 v
    238 -2 v
    312 14 c
    400 84 c
    461 226 c
    464 288 c
    464 373 v
    464 458 c
    461 520 c
    400 662 c
    312 732 c
    238 748 v
    35 746 v
    0 0 z
  EndSpiro
EndSplineSet
Validated: 41
EndChar

StartChar: E
Encoding: 34 69 4
Width: 500
InSpiro: 1
Flags: W
HStem: 3 89<412 449.259>
LayerCount: 6
Fore
SplineSet
413 0 m 0
 426.111328125 -2.62109375 440.310546875 0.833984375 450.750976562 9.1865234375 c 0
 461.19140625 17.5390625 467.6796875 30.6337890625 468 44 c 0
 468.305664062 56.7255859375 463.04296875 69.486328125 453.856445312 78.2978515625 c 0
 444.670898438 87.1083984375 431.701171875 91.8349609375 419 91 c 1024
  Spiro
    413 0 {
    468 44 c
    419 91 v
    0 0 z
  EndSpiro
149 92 m 0
 147 327 l 1
 365 328 l 2
 377.274414062 328.892578125 389.141601562 334.548828125 397.564453125 343.521484375 c 0
 405.987304688 352.494140625 410.883789062 364.693359375 411 377 c 0
 411.119140625 389.629882812 406.192382812 402.237304688 397.541992188 411.439453125 c 0
 388.891601562 420.642578125 376.61328125 426.338867188 364 427 c 2
 146 427 l 1
 145 645 l 1
 417 648 l 2
 429.139648438 648.354492188 441.0859375 653.358398438 449.853515625 661.760742188 c 0
 458.622070312 670.1640625 464.129882812 681.88671875 465 694 c 0
 466.015625 708.127929688 460.623046875 722.591796875 450.607421875 732.607421875 c 0
 440.591796875 742.623046875 426.127929688 748.015625 412 747 c 2
 53 747 l 1
 52 3 l 1
 52.6669921875 3 53.3330078125 3 54 3 c 0
 173.338867188 2.994140625 292.677734375 1.994140625 412 0 c 0
 425.111328125 -2.62109375 439.310546875 0.833984375 449.750976562 9.1865234375 c 0
 460.19140625 17.5390625 466.6796875 30.6337890625 467 44 c 0
 467.305664062 56.7255859375 462.04296875 69.486328125 452.856445312 78.2978515625 c 0
 443.670898438 87.1083984375 431 91 418 91 c 2
 149 92 l 0
  Spiro
    149 92 c
    147 327 v
    365 328 v
    411 377 c
    364 427 v
    146 427 v
    145 645 v
    417 648 v
    465 694 c
    412 747 v
    53 747 v
    52 3 v
    54 3 c
    412 0 v
    467 44 c
    418 91 v
    0 0 z
  EndSpiro
412 377 m 1024
  Spiro
    412 377 {
    0 0 z
  EndSpiro
EndSplineSet
Validated: 43
EndChar

StartChar: F
Encoding: 35 70 5
Width: 500
InSpiro: 1
Flags: W
HStem: 640 107<389 444.424>
LayerCount: 6
Fore
SplineSet
47 747 m 1
 46 44 l 2
 47.1128605591 32.1567083437 52.7594300381 20.7961138226 61.5282190913 12.7580571905 c 0
 70.2970081445 4.72000055837 82.1048121127 0.0807527528987 94 0 c 0
 105.713697247 -0.0795206690567 117.437855066 4.27840277587 126.124510649 12.1370948759 c 0
 134.811166232 19.995786976 140.3359004 31.3048728753 141 43 c 0
 141.094538974 44.6648787596 141.094538974 46.3351212404 141 48 c 2
 142 356 l 1
 368 356 l 2
 378.212545439 358.460104544 387.537353601 364.45766846 394.011471644 372.730152627 c 0
 400.485589687 381.002636793 404.066360203 391.495534519 404 402 c 0
 403.935444705 412.218758239 400.424317345 422.388401627 394.155478174 430.458645909 c 0
 387.886639002 438.528890192 378.895403916 444.448888736 369 447 c 0
 367.353315185 447.424528015 365.683296758 447.7585317 364 448 c 2
 143 449 l 1
 142 640 l 1
 395 643 l 2
 404.141780585 642.727597413 413.329864969 644.088795099 422 647 c 0
 432.089973072 650.387949432 441.58014942 655.973401073 448.639128532 663.939364408 c 0
 455.698107643 671.905327743 460.17884204 682.357924381 460 693 c 0
 459.807693654 704.443275203 454.261182026 715.398802863 446.21922842 723.542052293 c 0
 438.177274813 731.685301723 427.80143316 737.216539839 417 741 c 0
 407.967624958 744.163805268 398.535676954 746.184936984 389 747 c 2
 47 747 l 1
  Spiro
    47 747 v
    46 44 v
    94 0 c
    141 43 c
    141 48 v
    142 356 v
    368 356 v
    404 402 c
    369 447 c
    364 448 v
    143 449 v
    142 640 v
    395 643 v
    422 647 c
    460 693 c
    417 741 c
    389 747 v
    0 0 z
  EndSpiro
EndSplineSet
Validated: 41
EndChar

StartChar: G
Encoding: 36 71 6
Width: 500
InSpiro: 1
Flags: W
HStem: 650 97<173.44 223 266 330.777>
VStem: 45 88<148.848 229 529 600.96> 366 92<134.205 188>
LayerCount: 6
Fore
SplineSet
47 534 m 0
 45.6700792301 511.025609475 45.0030427456 488.012850758 45 465 c 2
 45 213 l 2
 45.5078951284 181.091548466 52.345583734 149.29629645 65 120 c 0
 77.6025438693 90.8237935704 96.2098961644 63.8878325974 121 44 c 0
 156.070439985 15.8647794234 202.044828477 3.25236978144 247 4 c 0
 289.343883625 4.70420300706 331.350873044 16.7787400062 368 38 c 0
 404.571483133 59.1763012215 436.745088241 90.872497882 450 131 c 0
 455.625571534 148.030677968 457.706678093 166.066650915 458 184 c 0
 458.049064302 186.999732517 458.049064302 190.000267483 458 193 c 2
 457 408 l 1
 321 408 l 2
 309.473447911 407.452493945 298.0177188 405.43089469 287 402 c 0
 277.064139608 398.905993765 267.224869018 394.489690514 260 387 c 0
 253.231176123 379.983070578 249.13520425 370.410865341 248.896971661 360.664198197 c 0
 248.658739072 350.917531053 252.319174526 341.100763773 259 334 c 0
 265.620518447 326.963333988 274.757338291 322.814096231 284 320 c 0
 295.637978783 316.456605981 307.8368714 314.762315339 320 315 c 2
 367 314 l 1
 366 188 l 2
 364.137631473 164.285955885 353.236286249 141.393130914 336 125 c 0
 313.442637177 103.54608606 281.064421472 93.9734858826 250 96 c 0
 222.641508351 97.7847546142 195.793355002 108.233249057 174.932551574 126.023676108 c 0
 154.071748146 143.814103159 139.425143159 168.942828633 135 196 c 0
 133.219377445 206.887469146 133.054539754 217.968018015 133 229 c 0
 132.971985443 234.666620501 132.971985443 240.333379499 133 246 c 2
 134 529 l 2
 135.706638756 557.162152244 144.367577201 584.877155269 159 609 c 0
 164.922735708 618.764154292 171.92532784 628.066903109 181 635 c 0
 190.836603926 642.515216736 202.789982019 646.962177563 215 649 c 0
 217.651498157 649.442528622 220.321156279 649.776235888 223 650 c 2
 266 650 l 2
 281.443988708 651.139053403 297.182107887 647.991429567 311 641 c 0
 318.105033282 637.405071095 324.675108053 632.837432545 331 628 c 0
 337.579188868 622.96807493 343.921839103 617.626895786 350 612 c 2
 367 595 l 2
 371.902783845 590.465197702 377.273810317 586.436927848 383 583 c 0
 389.191861351 579.283570422 395.884372976 576.232415456 403 575 c 0
 410.496553657 573.701608647 418.331023691 574.486318049 425.454232862 577.159149496 c 0
 432.577442032 579.831980943 438.976440636 584.377358193 443.916922492 590.16318362 c 0
 453.797886203 601.734834473 457.427773579 618.174787839 454 633 c 0
 452.030952146 641.516184489 447.858618744 649.513156844 442 656 c 2
 408 691 l 2
 390.190223684 707.014026314 369.865293519 720.225230921 348 730 c 0
 330.807214782 737.685947833 312.632182011 743.26002716 294 746 c 0
 291.340968303 746.391026377 288.673467984 746.724463917 286 747 c 2
 213 747 l 2
 202.898683707 746.691609021 192.829233011 745.349015595 183 743 c 0
 153.492716448 735.948272856 126.432652862 719.734774257 105.30478001 697.962782454 c 0
 84.1769071581 676.19079065 68.9100773517 649.000295859 60 620 c 0
 51.4640142945 592.21728823 48.6796446841 563.015873569 47 534 c 0
  Spiro
    47 534 c
    45 465 v
    45 213 v
    65 120 c
    121 44 c
    247 4 c
    368 38 c
    450 131 c
    458 184 c
    458 193 v
    457 408 v
    321 408 v
    287 402 c
    260 387 c
    259 334 c
    284 320 c
    320 315 v
    367 314 v
    366 188 v
    336 125 c
    250 96 c
    135 196 c
    133 229 c
    133 246 v
    134 529 v
    159 609 c
    181 635 c
    215 649 c
    223 650 v
    266 650 v
    311 641 c
    331 628 c
    350 612 v
    367 595 v
    383 583 c
    403 575 c
    454 633 c
    442 656 v
    408 691 v
    348 730 c
    294 746 c
    286 747 v
    213 747 v
    183 743 c
    60 620 c
    0 0 z
  EndSpiro
EndSplineSet
Validated: 41
EndChar

StartChar: H
Encoding: 37 72 7
Width: 500
InSpiro: 1
Flags: W
VStem: 43 93<15.1243 50 690 724.876> 361 93<14.1243 49 689 723.876>
LayerCount: 6
Fore
SplineSet
360 342 m 1
 361 48 l 2
 359.515580789 35.4022084299 363.698043852 22.2440888053 372.183825291 12.8154427622 c 0
 380.66960673 3.38679671896 393.315986477 -2.15379789014 406 -2 c 0
 418.913541103 -1.84341901147 431.541890937 4.14355025099 440.255883063 13.6750980074 c 0
 448.96987519 23.2066457638 453.774753337 36.0874740909 454 49 c 0
 454.011628183 49.666599058 454.011628183 50.333400942 454 51 c 2
 456 374 l 1
 454 687 l 2
 454.011628183 687.666599058 454.011628183 688.333400942 454 689 c 0
 453.774753337 701.912525909 448.96987519 714.793354236 440.255883063 724.324901993 c 0
 431.541890937 733.856449749 418.913541103 739.843419011 406 740 c 0
 393.315986477 740.15379789 380.66960673 734.613203281 372.183825291 725.184557238 c 0
 363.698043852 715.755911195 359.515580789 702.59779157 361 690 c 2
 360 448 l 1
 137 449 l 1
 136 691 l 2
 137.484419211 703.59779157 133.301956148 716.755911195 124.816174709 726.184557238 c 0
 116.33039327 735.613203281 103.684013523 741.15379789 91 741 c 0
 78.0864588974 740.843419011 65.4581090632 734.856449749 56.7441169366 725.324901993 c 0
 48.0301248101 715.793354236 43.2252466627 702.912525909 43 690 c 0
 42.9883718171 689.333400942 42.9883718171 688.666599058 43 688 c 2
 41 375 l 1
 43 52 l 2
 42.9883718171 51.333400942 42.9883718171 50.666599058 43 50 c 0
 43.2252466627 37.0874740909 48.0301248101 24.2066457638 56.7441169366 14.6750980074 c 0
 65.4581090632 5.14355025099 78.0864588974 -0.843419011474 91 -1 c 0
 103.684013523 -1.15379789014 116.33039327 4.38679671896 124.816174709 13.8154427622 c 0
 133.301956148 23.2440888053 137.484419211 36.4022084299 136 49 c 2
 137 343 l 1
 360 342 l 1
  Spiro
    360 342 v
    361 48 v
    406 -2 c
    454 49 c
    454 51 v
    456 374 v
    454 687 v
    454 689 c
    406 740 c
    361 690 v
    360 448 v
    137 449 v
    136 691 v
    91 741 c
    43 690 c
    43 688 v
    41 375 v
    43 52 v
    43 50 c
    91 -1 c
    136 49 v
    137 343 v
    0 0 z
  EndSpiro
EndSplineSet
Validated: 41
EndChar

StartChar: I
Encoding: 38 73 8
Width: 500
InSpiro: 1
Flags: W
HStem: 0 108<120.975 158 338 377.38> 638 108<121.975 159 339 378.38>
LayerCount: 6
Fore
SplineSet
195 362 m 0
 194.852986295 277.333418424 194.852986295 192.666581576 195 108 c 1
 158 108 l 2
 143.52325071 108.009929183 129.140190859 101.904337471 119.091361867 91.483329628 c 0
 109.042532875 81.0623217845 103.4638241 66.4668201062 104 52 c 0
 104.511478899 38.1995415616 110.558728791 24.6818449062 120.506303051 15.1026993224 c 0
 130.453877311 5.52355373871 144.19006973 -0.00947183146079 158 0 c 2
 329 0 l 2
 331.995036439 -0.211322674475 335.004963561 -0.211322674475 338 0 c 0
 351.30563353 0.938813974666 364.345008148 6.2162789206 374.240392347 15.1606976774 c 0
 384.135776545 24.1051164342 390.747838004 36.7201903002 392 50 c 0
 393.381738287 64.6540316387 388.079256566 79.8074782833 377.862254283 90.4028880585 c 0
 367.645252 100.998297834 352.694574649 106.848127264 338 106 c 2
 301 106 l 1
 300.856171958 190.666585224 300.856171958 275.333414776 301 360 c 0
 301.158551625 453.33384845 301.491885738 546.667399988 302 640 c 1
 339 640 l 2
 353.694574649 639.151872736 368.645252 645.001702166 378.862254283 655.597111941 c 0
 389.079256566 666.192521717 394.381738287 681.345968361 393 696 c 0
 391.747838004 709.2798097 385.135776545 721.894883566 375.240392347 730.839302323 c 0
 365.345008148 739.783721079 352.30563353 745.061186025 339 746 c 0
 336.004963561 746.211322674 332.995036439 746.211322674 330 746 c 2
 159 746 l 2
 145.19006973 746.009471831 131.453877311 740.476446261 121.506303051 730.897300678 c 0
 111.558728791 721.318155094 105.511478899 707.800458438 105 694 c 0
 104.4638241 679.533179894 110.042532875 664.937678215 120.091361867 654.516670372 c 0
 130.140190859 644.095662529 144.52325071 637.990070817 159 638 c 2
 196 638 l 1
 195.493082363 546.000738103 195.159748238 454.000519757 195 362 c 0
  Spiro
    195 362 c
    195 108 v
    158 108 v
    104 52 c
    158 0 v
    329 0 v
    338 0 c
    392 50 c
    338 106 v
    301 106 v
    301 360 c
    302 640 v
    339 640 v
    393 696 c
    339 746 c
    330 746 v
    159 746 v
    105 694 c
    159 638 v
    196 638 v
    0 0 z
  EndSpiro
EndSplineSet
Validated: 41
EndChar

StartChar: J
Encoding: 39 74 9
Width: 500
InSpiro: 1
Flags: W
VStem: 359 99<148.985 735.226>
LayerCount: 6
Fore
SplineSet
460 699 m 2
 458 219 l 2
 458.000976562 171.499023438 442.329101562 124.127929688 414 86 c 0
 375.467773438 34.1396484375 312.607421875 0.2978515625 248 0 c 0
 184.350585938 -0.2939453125 122.293945312 31.7275390625 82 81 c 0
 68.9755859375 96.9267578125 58.0654296875 114.530273438 49 133 c 0
 42.3876953125 146.47265625 36.7294921875 160.462890625 33 175 c 0
 30.2333984375 185.783203125 28.5341796875 196.984375 29.7138671875 208.053710938 c 0
 30.89453125 219.123046875 35.1513671875 230.10546875 43 238 c 0
 47.734375 242.76171875 53.66796875 246.291992188 60.0615234375 248.34375 c 0
 66.455078125 250.39453125 73.2958984375 250.977539062 79.9658203125 250.208007812 c 0
 93.306640625 248.66796875 105.725585938 241.711914062 115 232 c 0
 124.965820312 221.564453125 131.366210938 208.28515625 137 195 c 0
 145.172851562 175.727539062 152.258789062 155.610351562 165 139 c 0
 177.127929688 123.1875 194.127929688 111.21484375 213.017578125 104.864257812 c 0
 231.907226562 98.5146484375 252.60546875 97.775390625 271.965820312 102.499023438 c 0
 291.326171875 107.221679688 309.298828125 117.361328125 323.545898438 131.295898438 c 0
 337.791992188 145.229492188 348.30078125 162.904296875 354 182 c 0
 357.764648438 194.614257812 359.4609375 207.84375 359 221 c 2
 362 696 l 2
 361.986328125 707.9765625 366.403320312 719.907226562 374.211914062 728.987304688 c 0
 382.020507812 738.067382812 393.15625 744.220703125 405 746 c 0
 416.778320312 747.76953125 429.203125 745.178710938 439.159179688 738.641601562 c 0
 449.114257812 732.103515625 456.466796875 721.637695312 459 710 c 0
 459.78515625 706.393554688 460.122070312 702.689453125 460 699 c 2
  Spiro
    460 699 v
    458 219 v
    414 86 c
    248 0 c
    82 81 c
    49 133 c
    33 175 c
    43 238 c
    115 232 c
    137 195 c
    165 139 c
    354 182 c
    359 221 v
    362 696 v
    405 746 c
    459 710 c
    0 0 z
  EndSpiro
EndSplineSet
Validated: 33
EndChar

StartChar: K
Encoding: 40 75 10
Width: 500
InSpiro: 1
Flags: W
VStem: 40 98<9.95802 280.697 423 736.679>
LayerCount: 6
Fore
SplineSet
40 351 m 1
 42 700 l 2
 41.8627875595 707.852726689 43.7326063927 715.732377949 47.3833771443 722.686226999 c 0
 51.0341478959 729.64007605 56.4582998258 735.653702434 63 740 c 0
 69.734831485 744.474613772 77.6623712862 747.173613469 85.7380440933 747.578128304 c 0
 93.8137169004 747.982643139 102.014066568 746.07146873 109 742 c 0
 116.056613337 737.887338346 121.756645439 731.679536878 125.973404812 724.684630298 c 0
 130.190164185 717.689723718 132.982590204 709.914533176 135 702 c 0
 137.497570267 692.201741472 138.843089595 682.110346509 139 672 c 2
 138 423 l 1
 367 718 l 2
 375.969376841 730.467844065 389.230361794 739.786374031 404 744 c 0
 413.157153593 746.612441797 422.931147736 747.291348633 432.260207397 745.38164711 c 0
 441.589267058 743.471945586 450.444593993 738.906878177 457 732 c 0
 462.420089122 726.289309428 466.18837968 719.070822397 468.017147717 711.412822634 c 0
 469.845915754 703.754822871 469.755943395 695.675025452 468 688 c 0
 465.054440924 675.125302019 457.641783195 663.772061826 450 653 c 0
 447.376665949 649.302078211 444.7097524 645.635072081 442 642 c 2
 234 377 l 1
 428 109 l 2
 438.697911038 96.4121994209 446.901946538 81.7133024821 452 66 c 0
 456.190324286 53.0845150004 458.246300199 38.897189811 454 26 c 0
 451.961207913 19.8076237438 448.486901916 14.0734110662 443.828118262 9.51293611954 c 0
 439.169334608 4.95246117292 433.323488057 1.58609446821 427 0 c 0
 418.356274408 -2.16807009401 409.100096334 -0.965158574556 400.7714516 2.20473052988 c 0
 392.442806865 5.37461963432 384.951029199 10.4234676444 378 16 c 0
 363.374397833 27.7335349001 350.795950722 42.0117721609 341 58 c 2
 177 280 l 2
 173.31381105 281.828357219 169.079916213 282.534006358 165 282 c 0
 158.486622549 281.147486176 152.627782402 277.184035888 148.610242746 271.986898141 c 0
 144.59270309 266.789760394 142.279658646 260.443084618 141 254 c 0
 140.54061641 251.68700243 140.206631074 249.349105073 140 247 c 2
 138 68 l 2
 137.334382795 58.5244015061 135.655085438 49.1203363094 133 40 c 0
 129.475844658 27.894370004 123.880002669 15.8327195614 114 8 c 0
 107.436287599 2.79638617151 99.1967745068 -0.25220622299 90.8278350873 -0.599726505529 c 0
 82.4588956679 -0.947246788068 74.002605257 1.40397596094 67 6 c 0
 60.9132086387 9.99494736469 55.9762882214 15.5984271272 52.2345401587 21.8440619994 c 0
 48.4927920959 28.0896968717 45.9087578128 34.9739572208 44 42 c 0
 41.6962905311 50.4798402242 40.3516741578 59.219846651 40 68 c 2
 40 351 l 1
  Spiro
    40 351 v
    42 700 v
    63 740 c
    109 742 c
    135 702 c
    139 672 v
    138 423 v
    367 718 v
    404 744 c
    457 732 c
    468 688 c
    450 653 c
    442 642 v
    234 377 v
    428 109 v
    452 66 c
    454 26 c
    427 0 c
    378 16 c
    341 58 v
    177 280 v
    165 282 c
    141 254 c
    140 247 v
    138 68 v
    133 40 c
    114 8 c
    67 6 c
    44 42 c
    40 68 v
    0 0 z
  EndSpiro
EndSplineSet
Validated: 33
EndChar

StartChar: L
Encoding: 41 76 11
Width: 500
InSpiro: 1
Flags: W
HStem: 0 108<147 450.694>
VStem: 51 96<108 738.826>
LayerCount: 6
Fore
SplineSet
148 633 m 2
 147 108 l 1
 391 106 l 2
 406.524283391 106.581272336 422.183011565 103.101554964 436 96 c 0
 444.191685282 91.7896973315 451.807492616 86.2609477277 457.637604623 79.1307197997 c 0
 463.46771663 72.0004918718 467.439489894 63.1932684469 468 54 c 0
 468.642502314 43.4619273049 464.739763909 32.9086177154 458.221289873 24.6036022676 c 0
 451.702815837 16.2985868198 442.71082316 10.142909474 433 6 c 0
 420.153656006 0.519389410807 405.878099173 -1.56971646716 392 0 c 2
 49 0 l 1
 51 636 l 2
 50.6713227779 651.664368116 50.6713227779 667.335631884 51 683 c 0
 51.2795849669 696.324689229 51.9200679061 710.139985812 58 722 c 0
 61.9270110748 729.660349877 68.0536899375 736.17666956 75.4557132648 740.571260198 c 0
 82.8577365921 744.965850836 91.5108069303 747.224856016 100.116476429 747.013128145 c 0
 108.722145928 746.801400273 117.252653731 744.120110215 124.43406563 739.373564171 c 0
 131.615477529 734.627018126 137.425038998 727.8308384 141 720 c 0
 145.259215835 710.670323146 146.298966691 700.231927581 147 690 c 0
 148.299487069 671.033344055 148.633395453 652.000566165 148 633 c 2
  Spiro
    148 633 v
    147 108 v
    391 106 v
    436 96 c
    468 54 c
    433 6 c
    392 0 v
    49 0 v
    51 636 v
    51 683 c
    58 722 c
    141 720 c
    147 690 c
    0 0 z
  EndSpiro
EndSplineSet
Validated: 33
EndChar

StartChar: M
Encoding: 42 77 12
Width: 500
InSpiro: 1
Flags: W
VStem: 41 90<9.36508 69> 373 90<10.3651 70>
LayerCount: 6
Fore
SplineSet
298 417 m 0
 322.959708348 455.813626559 347.6273064 494.815099156 372 534 c 1
 373 67 l 2
 372.655052249 54.7632195377 374.705012518 42.4634579235 379 31 c 0
 381.309592234 24.8356250141 384.290871908 18.8675956095 388.408962197 13.7319293794 c 0
 392.527052486 8.59626314933 397.835864874 4.31023232592 404 2 c 0
 411.324309842 -0.745049713282 419.608330655 -0.558131521747 427 2 c 0
 433.284440196 4.1749382733 438.939409354 7.99480902037 443.623251913 12.7156314012 c 0
 448.307094472 17.4364537819 452.043160834 23.0433526865 455 29 c 0
 461.265936739 41.6229304857 464.060961208 55.9474308904 463 70 c 2
 463 657 l 2
 464.355268823 676.942121142 460.157183079 697.232868907 451 715 c 0
 447.375028234 722.033314505 442.922796621 728.753247346 437 734 c 0
 429.573681575 740.578658428 419.915998471 744.613193279 410.011251069 745.183220431 c 0
 400.106503666 745.753247582 390.021370765 742.838369902 382 737 c 0
 373.528436917 730.833956767 367.646034658 721.826650716 362 713 c 0
 322.531893027 651.298077183 285.169590574 588.249191794 250 524 c 1
 216.940470167 588.295770499 180.888550501 651.052815842 142 712 c 0
 136.363679854 720.833392798 130.4743681 729.837044668 122 736 c 0
 113.976755926 741.834876921 103.892772812 744.748864097 93.9885227502 744.179597131 c 0
 84.0842726885 743.610330166 74.4263760711 739.577778699 67 733 c 0
 61.0768160397 727.753646609 56.6247759806 721.033443767 53 714 c 0
 43.8433652545 696.232646673 39.6453226768 675.942107548 41 656 c 2
 41 69 l 2
 39.9390387916 54.9474308904 42.7340632608 40.6229304857 49 28 c 0
 51.9568391655 22.0433526865 55.6929055281 16.4364537819 60.376748087 11.7156314012 c 0
 65.0605906459 6.99480902037 70.7155598042 3.1749382733 77 1 c 0
 84.3916693448 -1.55813152175 92.6756901583 -1.74504971328 100 1 c 0
 106.164135126 3.31023232592 111.472947514 7.59626314933 115.591037803 12.7319293794 c 0
 119.709128092 17.8675956095 122.690407766 23.8356250141 125 30 c 0
 129.294987482 41.4634579235 131.344947751 53.7632195377 131 66 c 2
 132 533 l 1
 206 416 l 2
 210.006899124 408.976580157 215.494791915 402.802700766 222 398 c 0
 230.831835328 391.479584089 241.627677552 387.516243444 252.604155684 387.33167166 c 0
 263.580633815 387.147099875 274.67479112 390.84402096 283 398 c 0
 289.142041348 403.279425391 293.619292532 410.187775219 298 417 c 0
  Spiro
    298 417 c
    372 534 v
    373 67 v
    379 31 c
    404 2 c
    427 2 c
    455 29 c
    463 70 v
    463 657 v
    451 715 c
    437 734 c
    382 737 c
    362 713 c
    250 524 v
    142 712 c
    122 736 c
    67 733 c
    53 714 c
    41 656 v
    41 69 v
    49 28 c
    77 1 c
    100 1 c
    125 30 c
    131 66 v
    132 533 v
    206 416 v
    222 398 c
    283 398 c
    0 0 z
  EndSpiro
EndSplineSet
Validated: 41
EndChar

StartChar: N
Encoding: 43 78 13
Width: 500
InSpiro: 1
Flags: W
VStem: 46 87.486<15.4502 52> 372 92<695 731.55>
LayerCount: 6
Fore
SplineSet
221 554 m 1
 149 709 l 2
 144.925428782 720.36897368 137.082179975 730.351290343 127 737 c 0
 117.583010679 743.21004862 106.226548957 746.497454527 94.9555628381 746.040001086 c 0
 83.6845767192 745.582547646 72.5631852298 741.342768583 64 734 c 0
 54.1218734611 725.529694236 47.8493686876 712.984684689 47 700 c 2
 46 52 l 2
 45.0383833537 38.4271475306 50.2942802017 24.5365630038 60 15 c 0
 67.8018103486 7.33416403116 78.3621140671 2.50902873156 89.2729814622 1.74335353738 c 0
 100.183848857 0.977678343201 111.353089838 4.30192337515 120 11 c 0
 125.846828155 15.5290748093 130.530753098 21.5469078804 133.486008584 28.3266116429 c 0
 136.44126407 35.1063154055 137.661734303 42.6338595038 137 50 c 2
 139 507 l 1
 290 193 l 1
 362 38 l 2
 366.074571218 26.6310263205 373.917820025 16.6487096565 384 10 c 0
 393.416989321 3.78995138006 404.773451043 0.502545473166 416.044437162 0.959998913729 c 0
 427.315423281 1.41745235429 438.43681477 5.65723141707 447 13 c 0
 456.878126539 21.4703057637 463.150631312 34.0153153106 464 47 c 2
 465 695 l 2
 465.961616646 708.572852469 460.705719798 722.463436996 451 732 c 0
 443.198189651 739.665835969 432.637885933 744.490971268 421.727018538 745.256646463 c 0
 410.816151143 746.022321657 399.646910162 742.698076625 391 736 c 0
 385.153171845 731.470925191 380.469246902 725.45309212 377.513991416 718.673388357 c 0
 374.55873593 711.893684594 373.338265697 704.366140496 374 697 c 2
 372 240 l 1
 221 554 l 1
  Spiro
    221 554 v
    149 709 v
    127 737 c
    64 734 c
    47 700 v
    46 52 v
    60 15 c
    120 11 c
    137 50 v
    139 507 v
    290 193 v
    362 38 v
    384 10 c
    447 13 c
    464 47 v
    465 695 v
    451 732 c
    391 736 c
    374 697 v
    372 240 v
    0 0 z
  EndSpiro
EndSplineSet
Validated: 41
EndChar

StartChar: O
Encoding: 44 79 14
Width: 500
InSpiro: 1
Flags: W
LayerCount: 6
Fore
SplineSet
132.66 556.13 m 2
 134.457529108 574.190500726 141.914165969 591.646678814 153.72 605.432 c 0
 164.028245403 617.468631497 177.457785879 626.616206283 191.956347228 633.014029341 c 0
 206.454908576 639.411852399 222.023252302 643.13796955 237.72 645.318 c 0
 243.456683101 646.114734717 249.221452146 646.709226525 255 647.1 c 0
 263.706424767 647.190309578 272.420928552 646.48644581 281 645 c 0
 308.941089368 640.158809962 335.89643646 626.356012993 353.36 604.014 c 0
 364.422553664 589.861120084 371.428521601 572.573420823 373.34 554.712 c 2
 372.34 184.87 l 1
 369.584462495 167.022612055 362.26951622 149.898135263 351.28 135.568 c 0
 333.942599145 112.960335169 307.24406716 97.6543276225 278.92 94.582 c 0
 270.640977962 93.6839697859 262.253410685 93.7910021452 254 94.9 c 0
 244.002781222 94.0947617616 233.91140194 94.4647790019 224 96 c 0
 195.945249138 100.345524768 169.110013258 114.608527663 151.64 136.986 c 0
 140.553290889 151.187049694 133.383065732 168.414459085 131.12 186.288 c 1
 132.66 556.13 l 2
  Spiro
    132.66 556.13 v
    153.72 605.432 c
    237.72 645.318 c
    255 647.1 v
    281 645 c
    353.36 604.014 c
    373.34 554.712 v
    372.34 184.87 v
    372.34 184.87 v
    351.28 135.568 c
    278.92 94.582 c
    254 94.9 v
    224 96 c
    151.64 136.986 c
    131.12 186.288 v
    131.12 186.288 v
    0 0 z
  EndSpiro
132.66 556.13 m 2
 134.457529108 574.190500726 141.914165969 591.646678814 153.72 605.432 c 0
 164.028245403 617.468631497 177.457785879 626.616206283 191.956347228 633.014029341 c 0
 206.454908576 639.411852399 222.023252302 643.13796955 237.72 645.318 c 0
 243.456683101 646.114734717 249.221452146 646.709226525 255 647.1 c 0
 263.706424767 647.190309578 272.420928552 646.48644581 281 645 c 0
 308.941089368 640.158809962 335.89643646 626.356012993 353.36 604.014 c 0
 364.422553664 589.861120084 371.428521601 572.573420823 373.34 554.712 c 2
 372.34 184.87 l 1
 369.584462495 167.022612055 362.26951622 149.898135263 351.28 135.568 c 0
 333.942599145 112.960335169 307.24406716 97.6543276225 278.92 94.582 c 0
 270.640977962 93.6839697859 262.253410685 93.7910021452 254 94.9 c 0
 244.002781222 94.0947617616 233.91140194 94.4647790019 224 96 c 0
 195.945249138 100.345524768 169.110013258 114.608527663 151.64 136.986 c 0
 140.553290889 151.187049694 133.383065732 168.414459085 131.12 186.288 c 1
 132.66 556.13 l 2
  Spiro
    132.66 556.13 v
    153.72 605.432 c
    237.72 645.318 c
    255 647.1 v
    281 645 c
    353.36 604.014 c
    373.34 554.712 v
    372.34 184.87 v
    372.34 184.87 v
    351.28 135.568 c
    278.92 94.582 c
    254 94.9 v
    224 96 c
    151.64 136.986 c
    131.12 186.288 v
    131.12 186.288 v
    0 0 z
  EndSpiro
47 152 m 1
 52.3302955103 121.704131457 65.5492764054 92.8310942391 85 69 c 0
 117.639444527 29.0100389766 167.556638374 4.25568634779 219 0 c 0
 230.307585617 -0.935427550119 241.692414383 -0.935427550119 253 0 c 0
 264.969782709 -1.04272468562 277.030217291 -1.04272468562 289 0 c 0
 340.387445573 4.4765188584 390.13319288 29.2447264718 423 69 c 0
 442.68457389 92.8102112086 456.235372803 121.649090947 462 152 c 1
 462 592 l 1
 457.663490595 622.375589269 444.693550178 651.470320473 425 675 c 0
 392.02421735 714.399173377 341.843755198 736.610164985 291 744 c 0
 278.417029602 745.828859314 265.71406913 746.831724614 253 747 c 0
 242.288674475 746.595029717 231.599951309 745.59296192 221 744 c 0
 170.244097144 736.372396994 120.395522791 713.975390439 87 675 c 0
 66.8680150956 651.50427643 53.2369583146 622.494591486 48 592 c 1
 47 152 l 1
  Spiro
    47 152 v
    47 152 v
    85 69 c
    219 0 c
    253 0 v
    289 0 c
    423 69 c
    462 152 v
    462 152 v
    462 592 v
    425 675 c
    291 744 c
    253 747 v
    221 744 c
    87 675 c
    48 592 v
    0 0 z
  EndSpiro
47 152 m 1
 52.3302955103 121.704131457 65.5492764054 92.8310942391 85 69 c 0
 117.639444527 29.0100389766 167.556638374 4.25568634779 219 0 c 0
 230.307585617 -0.935427550119 241.692414383 -0.935427550119 253 0 c 0
 264.969782709 -1.04272468562 277.030217291 -1.04272468562 289 0 c 0
 340.387445573 4.4765188584 390.13319288 29.2447264718 423 69 c 0
 442.68457389 92.8102112086 456.235372803 121.649090947 462 152 c 1
 462 592 l 1
 457.663490595 622.375589269 444.693550178 651.470320473 425 675 c 0
 392.02421735 714.399173377 341.843755198 736.610164985 291 744 c 0
 278.417029602 745.828859314 265.71406913 746.831724614 253 747 c 0
 242.288674475 746.595029717 231.599951309 745.59296192 221 744 c 0
 170.244097144 736.372396994 120.395522791 713.975390439 87 675 c 0
 66.8680150956 651.50427643 53.2369583146 622.494591486 48 592 c 1
 47 152 l 1
  Spiro
    47 152 v
    47 152 v
    85 69 c
    219 0 c
    253 0 v
    289 0 c
    423 69 c
    462 152 v
    462 152 v
    462 592 v
    425 675 c
    291 744 c
    253 747 v
    221 744 c
    87 675 c
    48 592 v
    0 0 z
  EndSpiro
EndSplineSet
Validated: 37
EndChar

StartChar: P
Encoding: 45 80 15
Width: 500
InSpiro: 1
Flags: W
HStem: 307 113<256 330.11> 656 90<242 321.221>
VStem: 50 95<8.51354 46>
LayerCount: 6
Fore
SplineSet
145 656 m 1
 263 655 l 2
 275.670478248 653.143400529 288.119318921 649.778848995 300 645 c 0
 318.397343976 637.599908356 335.687778412 626.544543135 348 611 c 0
 358.747651338 597.430772981 365.332172651 580.916943391 369 564 c 0
 372.86004737 546.196489464 373.611867343 527.648669489 370.428485242 509.711807124 c 0
 367.245103141 491.77494476 360.069660593 474.468157016 349 460 c 0
 328.554410747 433.277410532 294.611863474 417.463269189 261 419 c 2
 146 420 l 1
 145 650 l 1
 145 656 l 1
  Spiro
    145 656 v
    263 655 v
    300 645 c
    348 611 c
    369 564 c
    349 460 c
    261 419 v
    146 420 v
    145 650 v
    0 0 z
  EndSpiro
50 712 m 1
 53 46 l 2
 52.8227857143 38.2803409433 54.6841444197 30.5229569201 58.3449976452 23.7242295013 c 0
 62.0058508707 16.9255020825 67.457597878 11.1014040679 74 7 c 0
 81.0016592321 2.61068960286 89.2424625427 0.211919043086 97.5061841109 0.198368831673 c 0
 105.769905679 0.18481862026 114.029272642 2.56173030808 121 7 c 0
 133.069862294 14.6848944524 140.851620639 28.6920594734 141 43 c 2
 143 307 l 1
 256 307 l 2
 297.229168022 309.076672126 337.756169744 323.525429262 371 348 c 0
 424.03857248 387.047735595 456.697112469 450.544032667 464 516 c 0
 467.551143033 547.828985639 465.45981132 580.434623019 456.311800875 611.126785676 c 0
 447.163790429 641.818948332 430.835929471 670.545261773 408 693 c 0
 376.819317597 723.66019546 334.398725164 741.630344991 291 747 c 0
 274.758360827 749.009552097 258.310104131 749.345230805 242 748 c 2
 50 746 l 1
 50 712 l 1
  Spiro
    50 712 v
    53 46 v
    74 7 c
    121 7 c
    141 43 v
    143 307 v
    256 307 v
    371 348 c
    464 516 c
    408 693 c
    291 747 c
    242 748 v
    50 746 v
    0 0 z
  EndSpiro
EndSplineSet
Validated: 41
EndChar

StartChar: Q
Encoding: 46 81 16
Width: 500
InSpiro: 1
Flags: W
HStem: 634.725 112.275<179.424 319.57>
VStem: 44 89.2<184.493 566.192> 364.8 92.2<200.189 566.19>
LayerCount: 6
Fore
SplineSet
349 216 m 0
 353.96954702 231.249426906 356.794016345 247.113683415 359 263 c 0
 363.781343275 297.432681666 365.723404649 332.259199519 364.8 367.01 c 2
 365 447 l 2
 365.6814288 465.372153239 364.473016954 483.81386068 361.4 501.94 c 0
 357.031539152 527.707293551 348.925298597 552.721899614 339.2 576.98 c 0
 334.978757216 587.509170924 330.405345894 597.992856666 323.950090237 607.320879254 c 0
 317.49483458 616.648901841 309.000628744 624.836285755 298.6 629.365 c 0
 287.764028899 634.083274048 275.617687238 634.574507301 263.8 634.725 c 0
 257.200356735 634.809043359 250.599643265 634.809043359 244 634.725 c 0
 241.200066316 634.748602022 238.399933684 634.748602022 235.6 634.725 c 0
 223.782299147 634.62538277 211.655215947 634.037500806 200.8 629.365 c 0
 190.287688568 624.840098434 181.624544238 616.703581771 174.97711596 607.387191746 c 0
 168.329687681 598.07080172 163.551479957 587.565275056 159.2 576.98 c 0
 149.261119397 552.802987589 141.303225998 527.723551399 137 501.94 c 0
 133.973738352 483.807609835 132.765742404 465.372249453 133.4 447 c 2
 133.2 367.01 l 2
 132.602765527 331.710098312 133.403601326 296.386565966 135.6 261.15 c 0
 136.671186104 243.965087137 138.109701823 226.615402497 143.4 210.23 c 0
 150.083865673 189.528363602 162.622699274 171.258684394 175.8 153.95 c 0
 185.12734512 141.698319912 195.440542547 129.305850898 209.6 123.255 c 0
 223.407684876 117.354474312 239.085520411 118.260269101 254 120 c 0
 259.010502929 120.584460672 264.011402674 121.251247305 269 122 c 1
 223 159 l 2
 211.485121905 169.214694612 203.869153962 183.721300218 202 199 c 0
 200.117115946 214.390931285 204.241656406 230.710739516 214.360040513 242.459965927 c 0
 219.419232567 248.334579132 225.89643221 253.009939191 233.137066989 255.78116862 c 0
 240.377701767 258.552398049 248.373456261 259.393676843 256 258 c 0
 267.543073532 255.890615352 277.546965814 248.95213599 287 242 c 0
 305.919062537 228.086171597 324.272568318 213.403366972 342 198 c 1
 344.666065217 203.863418316 347.004253402 209.875902221 349 216 c 0
  Spiro
    349 216 c
    359 263 c
    364.8 367.01 v
    365 447 v
    361.4 501.94 c
    339.2 576.98 c
    298.6 629.365 c
    263.8 634.725 c
    244 634.725 v
    235.6 634.725 c
    200.8 629.365 c
    159.2 576.98 c
    137 501.94 c
    133.4 447 v
    133.2 367.01 v
    135.6 261.15 c
    143.4 210.23 c
    175.8 153.95 c
    209.6 123.255 c
    254 120 c
    269 122 v
    223 159 v
    202 199 c
    256 258 c
    287 242 c
    342 198 v
    0 0 z
  EndSpiro
205 0 m 0
 197.667167182 -0.376292152783 190.294322512 -0.839578475887 183 0 c 0
 169.177471349 1.59097675194 156.198834403 7.83802783206 144.996656602 16.0905860934 c 0
 133.794478802 24.3431443547 124.207424012 34.5684685501 115 45 c 0
 92.8325051896 70.1146160942 72.1185075212 97.4006240848 61 129 c 0
 52.4432956779 153.318598153 49.8876260497 179.289140954 48 205 c 0
 44.1410101413 257.562288134 42.8056306328 310.309778721 44 363 c 2
 44 466 l 2
 43.4425143 493.440592069 45.4541409827 520.932823398 50 548 c 0
 56.5406972722 586.944940327 68.4096439706 625.159107925 87 660 c 0
 96.0864753318 677.029308416 106.826049767 693.304639412 120.230616031 707.192727198 c 0
 133.635182294 721.080814984 149.808680095 732.547306053 168 739 c 0
 186.47977181 745.555011529 206.393358402 746.776958445 226 747 c 0
 230.666465379 747.053084853 235.333534621 747.053084853 240 747 c 0
 250.998619016 747.213474402 262.001380984 747.213474402 273 747 c 0
 292.598856527 746.619601864 312.506679293 745.500536066 331 739 c 0
 349.21398537 732.597652327 365.402928682 721.131322115 378.803816596 707.233281898 c 0
 392.204704511 693.335241681 402.924609057 677.040440076 412 660 c 0
 430.562732937 625.145618493 442.450640084 586.942378574 449 548 c 0
 453.552037587 520.933664775 455.563720935 493.440659019 455 466 c 2
 457 340 l 2
 457.723709729 292.384264792 453.357589653 244.692799349 444 198 c 0
 439.263538613 174.365853884 433.251914416 150.987315337 426 128 c 1
 440.838529236 119.291959721 453.129114837 106.299054942 461 91 c 0
 465.671496969 81.9197647646 468.815355 71.9992763053 469.685751237 61.8249966626 c 0
 470.556147475 51.6507170198 469.109798112 41.2216421399 465.006706588 31.8708028298 c 0
 460.903615064 22.5199635197 454.092158934 14.2939197837 445.383672552 8.96139497958 c 0
 436.675186169 3.62887017549 426.068631208 1.29817114244 416 3 c 0
 405.604684957 4.75704589419 396.346562995 10.5591404851 388 17 c 0
 382.385953482 21.3322365088 377.039125546 26.0107109528 372 31 c 1
 368.059301206 26.6007646755 363.699932559 22.5767320784 359 19 c 0
 341.972097561 6.04146408232 320.383195631 -0.795021528935 299 0 c 0
 267.694127054 1.6064943273 236.305872946 1.6064943273 205 0 c 0
  Spiro
    205 0 c
    183 0 c
    115 45 c
    61 129 c
    48 205 c
    44 363 v
    44 466 v
    50 548 c
    87 660 c
    168 739 c
    226 747 c
    240 747 v
    273 747 c
    331 739 c
    412 660 c
    449 548 c
    455 466 v
    457 340 v
    444 198 c
    426 128 v
    461 91 c
    416 3 c
    388 17 c
    372 31 v
    359 19 c
    299 0 v
    0 0 z
  EndSpiro
EndSplineSet
Validated: 33
EndChar

StartChar: R
Encoding: 47 82 17
Width: 500
InSpiro: 1
Flags: W
HStem: 645 102<210 306.712>
LayerCount: 6
Fore
SplineSet
253 645 m 1
 278.575632363 640.427903803 302.792220716 628.495092151 322 611 c 0
 346.747037367 588.459565065 362.971130498 556.335323006 364.672979936 522.904936021 c 0
 366.374829373 489.474549035 353.033361991 455.222012801 328 433 c 0
 311.665583388 418.500005345 290.723363531 409.271230493 269 407 c 2
 135 408 l 1
 135 647 l 1
 253 645 l 1
  Spiro
    253 645 v
    322 611 c
    328 433 c
    269 407 v
    135 408 v
    135 647 v
    0 0 z
  EndSpiro
44 739 m 1
 43 37 l 2
 46.1424680811 30.4839147163 50.1937936155 24.4069264148 55 19 c 0
 59.743952766 13.6631081837 65.2577550412 8.95583484196 71.531078351 5.54512864606 c 0
 77.8044016609 2.13442245017 84.8596153754 0.0490868352925 92 0 c 0
 99.1432891141 -0.0491068023121 106.277780296 1.96199863616 112.388482111 5.66177081427 c 0
 118.499183927 9.36154299237 123.574663694 14.7313428839 127 21 c 0
 129.854036182 26.2231292418 131.571762997 32.0634004117 132 38 c 2
 134 295 l 1
 187 295 l 1
 374 28 l 2
 379.949163804 18.4393943697 388.760596673 10.6853334453 399 6 c 0
 407.749267862 1.9965208883 417.609878686 0.228270826136 427.13073083 1.61784182604 c 0
 436.651582975 3.00741282594 445.776098335 7.66238586592 452 15 c 0
 456.779424282 20.6346602264 459.751076318 27.6753720469 461.087156867 34.9422270134 c 0
 462.423237416 42.20908198 462.174573565 49.7052985477 461 57 c 0
 459.485255054 66.407339387 456.432607675 75.5652815226 452 84 c 2
 299 303 l 1
 327.443838319 313.566500672 353.988980576 329.221328157 377 349 c 0
 416.509606992 382.959710213 445.496345507 429.775479371 455 481 c 0
 466.604397848 543.547488169 448.053651015 610.540853893 407.706651074 659.723878622 c 0
 367.359651133 708.906903351 306.327838515 739.963842719 243 746 c 0
 232.03694837 747.044954407 221.006208408 747.379219254 210 747 c 2
 44 747 l 1
 44 739 l 1
  Spiro
    44 739 v
    43 37 v
    55 19 c
    92 0 c
    127 21 c
    132 38 v
    134 295 v
    187 295 v
    374 28 v
    399 6 c
    452 15 c
    461 57 c
    452 84 v
    299 303 v
    377 349 c
    455 481 c
    243 746 c
    210 747 v
    44 747 v
    0 0 z
  EndSpiro
EndSplineSet
Validated: 41
EndChar

StartChar: S
Encoding: 48 83 18
Width: 500
InSpiro: 1
Flags: W
LayerCount: 6
Fore
SplineSet
304 323 m 2
 328.602695565 309.106983297 347.742637357 285.816515131 356.604665956 258.987929792 c 0
 365.466694554 232.159344453 363.96556493 202.050709661 352.478926008 176.236650149 c 0
 340.992287087 150.422590638 319.630630372 129.151415269 293.768046532 117.774451732 c 0
 267.905462693 106.397488196 237.790727352 105.024173013 211 114 c 0
 193.591157561 119.832568699 177.736250689 129.817961184 164 142 c 0
 147.696285883 156.459002148 133.947372896 174.23566549 115 185 c 0
 105.486806639 190.404611825 94.7056019705 193.886880493 83.7649537607 193.773330282 c 0
 72.824305551 193.65978007 61.7432058932 189.73003489 54 182 c 0
 46.4729720728 174.485775363 42.5298497822 163.864982322 41.8157045688 153.253209712 c 0
 41.1015593554 142.641437102 43.4069223888 132.010470248 47 122 c 0
 60.593545992 84.127790589 92.0612233699 54.9592240806 127 35 c 0
 157.061276709 17.8271102808 190.542024399 6.35207640262 225 3 c 0
 276.748672762 -2.03411769873 330.129199443 11.8327104952 372.885051486 41.4165674066 c 0
 415.640903529 71.000424318 447.433506064 116.067041418 460.963063359 166.268819804 c 0
 474.492620655 216.470598189 469.651994906 271.410000217 447.552626397 318.472569051 c 0
 425.453257888 365.535137884 386.27014701 404.34819464 339 426 c 2
 247 463 l 2
 237.748069518 466.002421816 228.716014461 469.68214795 220 474 c 0
 204.259702583 481.797632252 189.411835408 491.809706316 177.7500601 504.946031076 c 0
 166.088284793 518.082355835 157.743147996 534.520827635 156 552 c 0
 154.353318597 568.511867108 158.71383494 585.43742305 167.481657482 599.525666479 c 0
 176.249480023 613.613909908 189.293049528 624.874962825 204.175999776 632.213294172 c 0
 219.058950024 639.551625519 235.724783952 643.031696404 252.318519168 643.067285722 c 0
 268.912254385 643.10287504 285.433565667 639.747994189 301 634 c 0
 318.211447616 627.644575324 334.394054756 618.308680103 348 606 c 0
 356.10215686 598.670347033 363.239780946 590.349959386 370.951599739 582.610669411 c 0
 378.663418531 574.871379436 387.097476371 567.616143866 397 563 c 0
 408.210146524 557.774296831 421.205411281 556.187399895 433.185823395 559.260685482 c 0
 445.166235508 562.33397107 455.980514648 570.195317922 462 581 c 0
 465.753386124 587.737144691 467.615620734 595.439582419 467.9336071 603.145159014 c 0
 468.251593466 610.850735608 467.0620144 618.56863925 465 626 c 0
 459.586968875 645.508198896 448.194192914 663.041116536 433.977677118 677.4550476 c 0
 419.761161321 691.868978664 402.775439851 703.309568213 385 713 c 0
 354.633807064 729.554387612 321.386713542 741.297655553 287 745 c 0
 242.420519645 749.799778011 196.295632542 740.660000126 157.394922694 718.364199827 c 0
 118.494212846 696.068399527 87.1233891802 660.598196849 70.6519101954 618.8961787 c 0
 54.1804312105 577.19416055 52.9107967052 529.505349316 68.0535786769 487.302694283 c 0
 83.1963606487 445.10003925 114.806268315 408.870376718 155 389 c 0
 161.163958037 385.952754493 167.512804303 383.279556066 174 381 c 2
 304 323 l 2
  Spiro
    304 323 v
    211 114 c
    164 142 c
    115 185 c
    54 182 c
    47 122 c
    127 35 c
    225 3 c
    339 426 v
    247 463 v
    220 474 c
    156 552 c
    301 634 c
    348 606 c
    397 563 c
    462 581 c
    465 626 c
    385 713 c
    287 745 c
    155 389 c
    174 381 v
    0 0 z
  EndSpiro
EndSplineSet
Validated: 41
EndChar

StartChar: T
Encoding: 49 84 19
Width: 500
InSpiro: 1
Flags: W
HStem: 626 120<61.1546 195 296 436.854>
VStem: 195 98<12.4303 626>
LayerCount: 6
Fore
SplineSet
251 746 m 1
 394 745 l 2
 411 745 427.908385687 735.289587988 439 722 c 0
 446.770047361 712.690198454 451.841482448 701.109960246 453.165936629 689.056252852 c 0
 454.49039081 677.002545459 452.025164541 664.523470581 446 654 c 0
 440.846980321 644.999805795 433.133372529 637.484536765 424.002029396 632.567659693 c 0
 414.870686263 627.650782622 404.350448196 625.347826958 394 626 c 2
 296 626 l 1
 293 48 l 2
 293.660857913 34.5791161302 287.994959503 20.9809599462 278 12 c 0
 269.351473244 4.22887572828 257.687176167 -0.0142068925202 246.060594359 0.0857079014462 c 0
 234.434012551 0.185622695413 222.939948048 4.5659757601 214 12 c 0
 203.046030775 21.1087859016 196.020434682 34.7902098735 195 49 c 2
 195 628 l 1
 112 628 l 2
 101.026623219 627.089557734 89.8225704198 629.12601316 79.8714399421 633.839706544 c 0
 69.9203094644 638.553399929 61.2470005519 645.932536892 55 655 c 0
 47.9223029685 665.273211309 43.9984379636 677.723012049 44.1091925357 690.1978026 c 0
 44.2199471078 702.672593152 48.3971121182 715.109157683 56 725 c 0
 66.1398972348 738.191319696 82 747 99 747 c 2
 251 746 l 1
  Spiro
    251 746 v
    394 745 v
    439 722 c
    446 654 c
    394 626 v
    296 626 v
    293 48 v
    278 12 c
    214 12 c
    195 49 v
    195 628 v
    112 628 v
    55 655 c
    56 725 c
    99 747 v
    0 0 z
  EndSpiro
296 626 m 1024
  Spiro
    296 626 {
    0 0 z
  EndSpiro
EndSplineSet
Validated: 33
EndChar

StartChar: U
Encoding: 50 85 20
Width: 500
InSpiro: 1
Flags: W
HStem: 0 114<173.598 322.002>
VStem: 35 97<153.749 737.256> 365 97<154.752 739.221>
LayerCount: 6
Fore
SplineSet
256 0 m 0
 214.46925479 -1.50817807258 172.418628784 8.34425219967 136.482496295 29.2170043078 c 0
 100.546363806 50.0897564159 70.9479702238 82.054727513 54 120 c 0
 40.4647264639 150.304492853 35.069464995 183.810226102 35 217 c 0
 34.9986046933 217.666665499 34.9993009535 218.333333408 35 219 c 0
 35.1695190903 380.666949098 35.5028526518 542.333726424 36 704 c 0
 37.4138640212 717.483511022 44.9018677444 730.213117351 56 738 c 0
 63.5385387739 743.289332964 72.6520566722 746.323454651 81.8588467366 746.527481015 c 0
 91.065636801 746.731507379 100.327379006 744.092886915 108 739 c 0
 120.160112628 730.928432469 127.907987106 716.594864684 128 702 c 2
 132 215 l 2
 131.790886142 198.644516574 135.9758583 182.253375623 144 168 c 0
 153.616819443 150.917532499 168.629991258 137.087172741 186 128 c 0
 206.150354276 117.458281062 229.271726872 113.231744654 252 114 c 0
 272.456292581 114.691458433 292.919862086 119.405906299 311 129 c 0
 328.31008351 138.185469932 343.354678823 151.941875003 353 169 c 0
 361.052212756 183.2406509 365.239849183 199.642226903 365 216 c 2
 367 703 l 2
 367.156395949 717.583679377 374.884512265 731.880694561 387 740 c 0
 395.121823269 745.442914498 405.021422754 748.13910325 414.789808301 747.729255403 c 0
 424.558193847 747.319407556 434.151664326 743.830348068 442 738 c 0
 452.841977548 729.945744234 460.227986623 717.389528807 462 704 c 0
 461.831197808 542.666725539 461.831197808 381.333274461 462 220 c 0
 462.00069753 219.333333405 462.001397942 218.666665494 462 218 c 0
 461.930405153 184.810856237 456.519428914 151.310875095 443 121 c 0
 427.065341822 85.2741245372 399.984517791 54.7796347156 366.949311523 33.8290582156 c 0
 333.914105255 12.8784817157 295.092660846 1.41963968111 256 0 c 0
  Spiro
    256 0 c
    54 120 c
    35 217 c
    35 219 c
    36 704 v
    56 738 c
    108 739 c
    128 702 v
    132 215 v
    144 168 c
    186 128 c
    252 114 c
    311 129 c
    353 169 c
    365 216 v
    367 703 v
    387 740 c
    442 738 c
    462 704 v
    462 220 c
    462 218 c
    443 121 c
    0 0 z
  EndSpiro
EndSplineSet
Validated: 33
EndChar

StartChar: V
Encoding: 51 86 21
Width: 500
InSpiro: 1
Flags: W
LayerCount: 6
Fore
SplineSet
256 262 m 1
 148 663 l 2
 143.854842767 682.088975584 136.374818705 700.449034646 126 717 c 0
 121.309353722 724.482995727 115.958029603 731.676947689 109.124017565 737.271021965 c 0
 102.290005526 742.865096241 93.8290357876 746.786658469 85 747 c 0
 79.2239200531 747.139571044 73.4252191496 745.676262755 68.3764266065 742.866943712 c 0
 63.3276340633 740.057624669 59.0374440045 735.914927624 56 731 c 0
 50.5373015455 722.160736628 49.3064063389 711.386518499 49 701 c 0
 47.7259395962 657.812081636 60.0558069253 615.522954788 72 574 c 0
 121.309713778 402.579042299 165.998013788 229.82874823 206 56 c 0
 209.331148742 40.734606318 217.482543883 26.5582669414 229 16 c 0
 236.766949697 8.87989227911 246.024832206 3.39373968141 256 0 c 1
 265.89801107 2.56147244926 275.203121003 7.38634426663 283 14 c 0
 294.965685694 24.1498209508 303.247336227 38.5526914446 306 54 c 0
 343.389850695 228.747429542 386.75696024 402.215867724 436 574 c 0
 447.905709842 615.533017545 460.269609525 657.81290048 459 701 c 0
 458.694655721 711.386605875 457.462999 722.160856452 452 731 c 0
 448.962416341 735.914816569 444.672236 740.057455657 439.623475146 742.86678836 c 0
 434.574714293 745.676121064 428.776060398 747.139508667 423 747 c 0
 414.170950676 746.786752766 405.709944226 742.865197584 398.875932399 737.271105281 c 0
 392.041920571 731.677012978 386.690624937 724.483022387 382 717 c 0
 371.625243907 700.449000263 364.145226046 682.088956423 360 663 c 2
 256 262 l 1
  Spiro
    256 262 v
    148 663 v
    126 717 c
    85 747 c
    56 731 c
    49 701 c
    72 574 c
    206 56 v
    229 16 c
    256 0 v
    283 14 c
    306 54 v
    436 574 c
    459 701 c
    452 731 c
    423 747 c
    382 717 c
    360 663 v
    0 0 z
  EndSpiro
EndSplineSet
Validated: 41
EndChar

StartChar: W
Encoding: 52 87 22
Width: 500
Flags: W
VStem: 41 91<213.184 736.818> 372 91<212.184 735.818>
LayerCount: 6
Fore
SplineSet
298 329.18359375 m 0
 322.959960938 290.370117188 347.626953125 251.368164062 372 212.18359375 c 1
 373 679.18359375 l 2
 372.655273438 691.419921875 374.705078125 703.719726562 379 715.18359375 c 0
 381.309570312 721.34765625 384.291015625 727.31640625 388.409179688 732.452148438 c 0
 392.52734375 737.586914062 397.8359375 741.873046875 404 744.18359375 c 0
 411.32421875 746.928710938 419.608398438 746.7421875 427 744.18359375 c 0
 433.284179688 742.008789062 438.939453125 738.188476562 443.623046875 733.467773438 c 0
 448.306640625 728.747070312 452.04296875 723.140625 455 717.18359375 c 0
 461.265625 704.560546875 464.060546875 690.236328125 463 676.18359375 c 2
 463 89.18359375 l 2
 464.35546875 69.2412109375 460.157226562 48.951171875 451 31.18359375 c 0
 447.375 24.150390625 442.922851562 17.4306640625 437 12.18359375 c 0
 429.573242188 5.6044921875 419.916015625 1.5703125 410.01171875 1 c 0
 400.106445312 0.4306640625 390.021484375 3.345703125 382 9.18359375 c 0
 373.528320312 15.349609375 367.646484375 24.357421875 362 33.18359375 c 0
 322.532226562 94.8857421875 285.169921875 157.934570312 250 222.18359375 c 1
 216.940429688 157.887695312 180.888671875 95.130859375 142 34.18359375 c 0
 136.36328125 25.3505859375 130.474609375 16.3466796875 122 10.18359375 c 0
 113.9765625 4.3486328125 103.892578125 1.4345703125 93.98828125 2.00390625 c 0
 84.083984375 2.5732421875 74.4267578125 6.60546875 67 13.18359375 c 0
 61.0771484375 18.4296875 56.625 25.150390625 53 32.18359375 c 0
 43.84375 49.951171875 39.6455078125 70.2412109375 41 90.18359375 c 2
 41 677.18359375 l 2
 39.939453125 691.236328125 42.734375 705.560546875 49 718.18359375 c 0
 51.95703125 724.140625 55.693359375 729.747070312 60.376953125 734.467773438 c 0
 65.060546875 739.188476562 70.7158203125 743.008789062 77 745.18359375 c 0
 84.3916015625 747.7421875 92.67578125 747.928710938 100 745.18359375 c 0
 106.1640625 742.873046875 111.47265625 738.586914062 115.590820312 733.452148438 c 0
 119.708984375 728.31640625 122.690429688 722.34765625 125 716.18359375 c 0
 129.294921875 704.719726562 131.344726562 692.419921875 131 680.18359375 c 2
 132 213.18359375 l 1
 206 330.18359375 l 2
 210.006835938 337.20703125 215.495117188 343.380859375 222 348.18359375 c 0
 230.83203125 354.704101562 241.627929688 358.666992188 252.604492188 358.8515625 c 0
 263.581054688 359.036132812 274.674804688 355.33984375 283 348.18359375 c 0
 289.141601562 342.904296875 293.619140625 335.99609375 298 329.18359375 c 0
  Spiro
    298 329.184 c
    372 212.184 v
    373 679.184 v
    379 715.184 c
    404 744.184 c
    427 744.184 c
    455 717.184 c
    463 676.184 v
    463 89.1836 v
    451 31.1836 c
    437 12.1836 c
    382 9.18359 c
    362 33.1836 c
    250 222.184 v
    142 34.1836 c
    122 10.1836 c
    67 13.1836 c
    53 32.1836 c
    41 90.1836 v
    41 677.184 v
    49 718.184 c
    77 745.184 c
    100 745.184 c
    125 716.184 c
    131 680.184 v
    132 213.184 v
    206 330.184 v
    222 348.184 c
    283 348.184 c
    0 0 z
  EndSpiro
EndSplineSet
Validated: 33
EndChar

StartChar: X
Encoding: 53 88 23
Width: 500
Flags: W
HStem: 0 21G<399.525 425.858> 0 21G<399.525 425.858> 725.779 20G<71.1396 97.4727 397.827 424.16> 725.779 20G<71.1396 97.4727 397.827 424.16>
VStem: 174.029 142.546<317.497 430.824>
LayerCount: 6
Fore
SplineSet
50.3017578125 18.779296875 m 0xa8
 42.1767578125 29.107421875 35.5322265625 45.9453125 35.5361328125 56.197265625 c 0
 35.5390625 66.4482421875 63.56640625 129.40625 102.762695312 209.196289062 c 0
 141.958984375 288.986328125 174.029296875 363.219726562 174.029296875 374.16015625 c 0
 174.029296875 385.100585938 141.958984375 459.334960938 102.762695312 539.124023438 c 0
 63.5654296875 618.9140625 33.8408203125 679.330078125 33.837890625 689.58203125 c 0
 33.8310546875 716.682617188 59.2822265625 745.779296875 82.9970703125 745.779296875 c 0
 111.948242188 745.779296875 122.973632812 739.465820312 181.654296875 611.250976562 c 0
 215.780273438 536.686523438 238.413085938 495.541992188 245.301757812 495.541992188 c 0
 252.19140625 495.541992188 274.82421875 536.686523438 308.950195312 611.250976562 c 0
 367.629882812 739.465820312 383.3515625 745.779296875 412.301757812 745.779296875 c 0
 436.017578125 745.779296875 461.470703125 716.682617188 461.461914062 689.58203125 c 0
 461.458984375 679.330078125 427.0390625 618.913085938 387.841796875 539.124023438 c 0
 348.64453125 459.334960938 316.575195312 385.100585938 316.575195312 374.16015625 c 0
 316.575195312 363.219726562 348.645507812 288.986328125 387.841796875 209.196289062 c 0
 427.038085938 129.40625 463.157226562 66.4482421875 463.16015625 56.197265625 c 0
 463.166992188 29.0966796875 437.715820312 0 414 0 c 0
 385.049804688 0 367.629882812 8.8544921875 308.950195312 137.069335938 c 0
 274.82421875 211.634765625 252.19140625 252.779296875 245.301757812 252.779296875 c 0
 238.413085938 252.779296875 215.780273438 211.634765625 181.654296875 137.069335938 c 0
 152.528320312 73.4296875 126.34765625 24.85546875 118.53125 16.0361328125 c 0
 98.9072265625 -6.10546875 68.927734375 -4.900390625 50.3017578125 18.779296875 c 0xa8
EndSplineSet
Validated: 33
EndChar

StartChar: Y
Encoding: 54 89 24
Width: 500
Flags: W
HStem: 0 21G<243.887 250.113> 0 21G<243.887 250.113> 727 20G<76.5142 102.832 395.549 421.867> 727 20G<76.5142 102.832 395.549 421.867>
VStem: 201.536 92.4941<13.9559 382.173>
LayerCount: 6
Fore
SplineSet
218.216796875 17.4638671875 m 0xa8
 200.752929688 34.927734375 201.536132812 17.3916015625 201.536132812 180.68359375 c 0
 201.536132812 262.12890625 201 290 201 333 c 1
 185 373 160.7265625 426.728515625 119.71484375 509.889648438 c 0
 74.712890625 601.142578125 37.8935546875 684.2578125 37.8935546875 694.591796875 c 0
 37.8935546875 721.80859375 64.646484375 747 88.3818359375 747 c 0
 117.282226562 747 129.225585938 731.33984375 187.803710938 603.34765625 c 0
 216.87890625 539.818359375 243.870117188 487.838867188 247.783203125 487.838867188 c 0
 251.696289062 487.838867188 278.686523438 539.818359375 307.762695312 603.34765625 c 0
 366.341796875 731.33984375 381.098632812 747 410 747 c 0
 433.734375 747 457.672851562 721.80859375 457.672851562 694.591796875 c 0
 457.672851562 684.2578125 420.853515625 601.142578125 375.8515625 509.889648438 c 0
 334.83984375 426.728515625 303.202148438 374.250976562 293 333 c 1
 293 288 294.030273438 262.12890625 294.030273438 180.68359375 c 0
 294.030273438 17.3916015625 293.247070312 34.927734375 275.783203125 17.4638671875 c 0
 266.177734375 7.859375 253.225585938 0 247 0 c 0
 240.774414062 0 227.822265625 7.859375 218.216796875 17.4638671875 c 0xa8
EndSplineSet
Validated: 33
EndChar

StartChar: Z
Encoding: 55 90 25
Width: 500
InSpiro: 1
Flags: W
HStem: 2 104<374 428.361> 640 104<49.6386 104>
LayerCount: 6
Fore
SplineSet
314 405 m 1
 451 647 l 2
 453.760636456 650.729435028 456.112514915 654.761226672 458 659 c 0
 462.508600039 669.125077938 464.313808995 680.448182514 463.111668037 691.466328215 c 0
 461.909527078 702.484473915 457.695722595 713.167561125 451 722 c 0
 440.403236489 735.978366734 423.511719521 744.987175784 406 746 c 2
 104 744 l 2
 93.8703097915 744.356706167 83.682354437 742.998312119 74 740 c 0
 67.3445830167 737.939032543 60.8957897072 735.089110398 55.1639847891 731.128229882 c 0
 49.4321798711 727.167349366 44.4267402092 722.066268509 41 716 c 0
 37.227260105 709.321217303 35.4484022295 701.566911249 35.7006795122 693.90035656 c 0
 35.9529567949 686.233801871 38.2108370909 678.669478921 42 672 c 0
 48.786218766 660.055266005 60.298016331 651.23345452 73 646 c 0
 82.1803473449 642.217525423 92.0724278614 640.170888074 102 640 c 2
 328 637 l 1
 208 424 l 1
 27 99 l 2
 24.2393635442 95.2705649721 21.8874850849 91.2387733276 20 87 c 0
 15.4913999607 76.8749220621 13.686191005 65.551817486 14.8883319634 54.5336717855 c 0
 16.0904729217 43.515526085 20.3042774046 32.8324388754 27 24 c 0
 37.5967635111 10.0216332658 54.4882804793 1.01282421613 72 0 c 2
 374 2 l 2
 384.129690209 1.64329383325 394.317645563 3.00168788051 404 6 c 0
 410.655416983 8.06096745693 417.104210293 10.9108896021 422.836015211 14.871770118 c 0
 428.567820129 18.8326506338 433.573259791 23.9337314914 437 30 c 0
 440.772739895 36.6787826969 442.551597771 44.4330887506 442.299320488 52.0996434397 c 0
 442.047043205 59.7661981288 439.789162909 67.3305210791 436 74 c 0
 429.213781234 85.9447339948 417.701983669 94.7665454796 405 100 c 0
 395.819652655 103.782474577 385.927572139 105.829111926 376 106 c 2
 150 109 l 1
 314 405 l 1
  Spiro
    314 405 v
    451 647 v
    458 659 c
    451 722 c
    406 746 v
    104 744 v
    74 740 c
    41 716 c
    42 672 c
    73 646 c
    102 640 v
    328 637 v
    208 424 v
    27 99 v
    20 87 c
    27 24 c
    72 0 v
    374 2 v
    404 6 c
    437 30 c
    436 74 c
    405 100 c
    376 106 v
    150 109 v
    0 0 z
  EndSpiro
EndSplineSet
Validated: 41
EndChar

StartChar: zero
Encoding: 13 48 26
Width: 500
InSpiro: 1
Flags: HW
HStem: 2.17969 97.0732<173.004 333.966> 640.867 106.133<173.761 322.262>
VStem: 29.5801 92.0449<156.162 582.969> 373.375 93.0449<143.735 583.862>
LayerCount: 6
Fore
SplineSet
431.309570312 -8.615234375 m 4
 431.309570312 22.384765625 455.309570312 47.384765625 485.309570312 47.384765625 c 4
 515.309570312 47.384765625 539.309570312 22.384765625 539.309570312 -8.615234375 c 4
 539.309570312 -39.615234375 515.309570312 -64.615234375 485.309570312 -64.615234375 c 4
 455.309570312 -64.615234375 431.309570312 -39.615234375 431.309570312 -8.615234375 c 4
  Spiro
    431.309 -8.61508 o
    438.629 19.6563 o
    458 39.7698 o
    485.309 47.3849 o
    512.619 39.7698 o
    531.99 19.6563 o
    539.309 -8.61508 o
    531.99 -36.8865 o
    512.619 -57 o
    485.309 -64.6151 o
    458 -57 o
    438.629 -36.8865 o
    0 0 z
  EndSpiro
111.830078125 42.490234375 m 0
 92.0498046875 64.66015625 65.4501953125 103.219726562 52.7197265625 128.1796875 c 0
 29.580078125 173.559570312 29.580078125 173.559570312 29.580078125 370.75 c 0
 29.580078125 567.940429688 29.580078125 567.940429688 52.6201171875 613.3203125 c 0
 65.2900390625 638.280273438 93.66015625 678.5703125 115.650390625 702.849609375 c 0
 124.08984375 712.16796875 130.197265625 720.163085938 136.870117188 725.319335938 c 0
 159.870117188 743.08984375 175.1328125 747 248 747 c 0
 310.771484375 747 330.870117188 744.08984375 349.870117188 733.139648438 c 0
 359.47265625 727.60546875 367.529296875 716.994140625 380.33984375 702.849609375 c 0
 402.330078125 678.5703125 430.700195312 638.280273438 443.370117188 613.3203125 c 0
 466.41015625 567.940429688 466.419921875 567.940429688 466.419921875 370.75 c 0
 466.419921875 173.559570312 466.419921875 173.559570312 443.280273438 128.1796875 c 0
 430.549804688 103.219726562 403.952148438 64.658203125 384.169921875 42.490234375 c 0
 373.395507812 30.416015625 360.674804688 20.6982421875 351.870117188 16.08984375 c 0
 332.870117188 6.1455078125 318.1875 2.1796875 248 2.1796875 c 0
 179.984375 2.1796875 159.870117188 4.3916015625 141.870117188 15.08984375 c 0
 132.841796875 20.4560546875 123.3828125 29.5419921875 111.830078125 42.490234375 c 0
  Spiro
    111.83 42.4902 o
    90.565 68.9829 o
    69.2873 99.8279 o
    52.7197 128.18 o
    36.4466 167.375 o
    30.4345 230.398 o
    29.5801 370.75 o
    30.4309 511.102 o
    36.417 574.125 o
    52.6201 613.32 o
    69.685 642.198 o
    92.3751 674.426 o
    115.65 702.85 o
    123.413 711.662 o
    130.285 719.28 o
    136.87 725.319 o
    159.686 738.829 o
    191.956 745.332 o
    248 747 o
    298.048 745.842 o
    328.988 741.594 o
    349.87 733.14 o
    359.181 725.979 o
    368.891 715.748 o
    380.34 702.85 o
    403.615 674.426 o
    426.305 642.198 o
    443.37 613.32 o
    459.576 574.125 o
    465.567 511.102 o
    466.42 370.75 o
    465.565 230.398 o
    459.553 167.375 o
    443.28 128.18 o
    426.713 99.8275 o
    405.436 68.982 o
    384.17 42.4902 o
    372.975 31.3137 o
    361.752 22.2917 o
    351.87 16.0898 o
    332.116 8.06999 o
    301.862 3.57331 o
    248 2.17969 o
    194.297 3.14721 o
    162.246 6.99373 o
    141.87 15.0898 o
    132.646 21.6934 o
    122.736 30.8345 o
    0 0 z
  EndSpiro
331.259765625 117.030273438 m 0
 377.870117188 166.73046875 373.375 195.982421875 373.375 370.953125 c 0
 373.375 545.923828125 375.146484375 563.133789062 330.872070312 610.352539062 c 0
 302.295898438 640.829101562 302.171875 640.8671875 248.098632812 640.8671875 c 0
 194.024414062 640.8671875 193.899414062 640.821289062 165.325195312 610.352539062 c 0
 121.044921875 563.137695312 121.625 545.923828125 121.625 370.953125 c 0
 121.625 195.982421875 119.975585938 176.986328125 164.251953125 129.767578125 c 0
 192.828125 99.291015625 192.951171875 99.2529296875 247.025390625 99.2529296875 c 0
 301.098632812 99.2529296875 301.181640625 84.9580078125 331.259765625 117.030273438 c 0
  Spiro
    331.26 117.03 o
    362.876 166.014 o
    372.817 238.497 o
    373.375 370.953 o
    372.199 500.201 o
    361.55 566.23 o
    330.872 610.353 o
    308.747 631.795 o
    287.213 639.732 o
    248.099 640.867 o
    208.983 639.73 o
    187.449 631.792 o
    165.325 610.353 o
    134.335 566.232 o
    123.11 500.202 o
    121.625 370.953 o
    122.833 241.243 o
    133.541 174.352 o
    164.252 129.768 o
    186.377 108.325 o
    207.91 100.388 o
    247.025 99.2529 o
    286.185 96.7375 o
    308.089 98.1749 o
    0 0 z
  EndSpiro
EndSplineSet
EndChar

StartChar: one
Encoding: 14 49 27
Width: 500
InSpiro: 1
Flags: HW
HStem: 0 89<116.304 211 295 396.893>
VStem: 212 89<91 559>
LayerCount: 6
Fore
SplineSet
431.309570312 -8.615234375 m 4
 431.309570312 22.384765625 455.309570312 47.384765625 485.309570312 47.384765625 c 4
 515.309570312 47.384765625 539.309570312 22.384765625 539.309570312 -8.615234375 c 4
 539.309570312 -39.615234375 515.309570312 -64.615234375 485.309570312 -64.615234375 c 4
 455.309570312 -64.615234375 431.309570312 -39.615234375 431.309570312 -8.615234375 c 4
  Spiro
    431.309 -8.61508 o
    438.629 19.6563 o
    458 39.7698 o
    485.309 47.3849 o
    512.619 39.7698 o
    531.99 19.6563 o
    539.309 -8.61508 o
    531.99 -36.8865 o
    512.619 -57 o
    485.309 -64.6151 o
    458 -57 o
    438.629 -36.8865 o
    0 0 z
  EndSpiro
301 712 m 1
 295 89 l 1
 372 89 l 2
 379.691258106 85.6079013448 386.590033021 80.4338201585 392 74 c 0
 399.263873532 65.361415672 403.803876994 54.3535794069 404.173512813 43.0729603087 c 0
 404.543148632 31.7923412104 400.620922161 20.3252953876 393 12 c 0
 387.676622596 6.18460280625 380.636351596 1.96044020666 373 0 c 2
 141 0 l 2
 131.411715909 1.6797467462 122.442383188 6.70257306986 116 14 c 0
 108.491554373 22.5049789374 104.537025552 34.0000771313 104.983313801 45.3364014586 c 0
 105.429602051 56.672725786 110.218831317 67.7438001247 118 76 c 0
 124.440202186 82.8333689513 132.881734759 87.7575962857 142 90 c 2
 211 91 l 1
 212 559 l 1
 176 558 l 2
 163.881054849 556.849019089 151.415474019 559.698294707 141 566 c 0
 137.240049485 568.274894068 133.721702172 571.006237447 130.875392769 574.354504712 c 0
 128.029083366 577.702771977 125.870180945 581.692430381 125 586 c 0
 123.695957861 592.455269257 125.358693434 599.231053734 128.375455393 605.085127047 c 0
 131.392217353 610.939200361 135.693465852 616.017551735 140 621 c 0
 144.941922202 626.717561004 149.942270251 632.384622126 155 638 c 2
 241 732 l 2
 245.302218971 736.509495103 250.40588394 740.252182746 256 743 c 0
 261.584478409 745.743083261 267.798967753 747.508039325 274 747 c 0
 280.281705557 746.485351257 286.290446295 743.603699472 290.848655938 739.250836864 c 0
 295.406865581 734.897974256 298.53053647 729.12905906 300 723 c 0
 300.627849403 720.381271469 300.96392086 717.692699814 301 715 c 2
 301 712 l 1
  Spiro
    301 712 v
    295 89 v
    372 89 v
    392 74 c
    393 12 c
    373 0 v
    141 0 v
    116 14 c
    118 76 c
    142 90 v
    211 91 v
    212 559 v
    176 558 v
    141 566 c
    125 586 c
    140 621 c
    155 638 v
    241 732 v
    256 743 c
    274 747 c
    300 723 c
    301 715 v
    0 0 z
  EndSpiro
EndSplineSet
EndChar

StartChar: two
Encoding: 15 50 28
Width: 500
InSpiro: 1
Flags: HW
HStem: 0 94<168 430.392>
LayerCount: 6
Fore
SplineSet
431.309570312 -8.615234375 m 0
 431.309570312 22.384765625 455.309570312 47.384765625 485.309570312 47.384765625 c 0
 515.309570312 47.384765625 539.309570312 22.384765625 539.309570312 -8.615234375 c 0
 539.309570312 -39.615234375 515.309570312 -64.615234375 485.309570312 -64.615234375 c 0
 455.309570312 -64.615234375 431.309570312 -39.615234375 431.309570312 -8.615234375 c 0
  Spiro
    431.309 -8.61508 o
    438.629 19.6563 o
    458 39.7698 o
    485.309 47.3849 o
    512.619 39.7698 o
    531.99 19.6563 o
    539.309 -8.61508 o
    531.99 -36.8865 o
    512.619 -57 o
    485.309 -64.6151 o
    458 -57 o
    438.629 -36.8865 o
    0 0 z
  EndSpiro
395 375 m 1
 168 94 l 1
 373 93 l 2
 380.426260017 92.5679611242 387.731632223 90.2010936168 394.000295321 86.1961144155 c 0
 400.268958419 82.1911352143 405.486905309 76.5569932991 409 70 c 0
 415.687732186 57.5177246882 415.830342955 41.9050400924 410 29 c 0
 406.704028123 21.7046059645 401.585522563 15.2180108134 395.152750597 10.4529662626 c 0
 388.71997863 5.68792171186 380.977146303 2.67181962279 373 2 c 0
 370.672159836 1.80395386504 368.327840164 1.80395386504 366 2 c 2
 79 0 l 2
 74.396448786 3.32860518838 70.3286051884 7.39644878604 67 12 c 0
 59.56949589 22.276588625 55.9943687553 35.0340683243 55.6034663176 47.7095509731 c 0
 55.2125638799 60.3850336218 57.8699019467 73.0098809361 62 85 c 0
 69.702124556 107.360096366 82.4203623156 127.637921792 96 147 c 0
 110.864277601 168.193739635 126.896621089 188.56817615 144 208 c 2
 343 456 l 2
 357.307662142 470.772003624 367.171188305 489.794518367 371 510 c 0
 376.384362359 538.414464699 369.647838838 568.614181965 354.156493213 593.03530751 c 0
 338.665147589 617.456433054 314.801269657 636.134223135 288 647 c 0
 262.459638096 657.354579355 233.716328326 660.764998196 207 654 c 0
 179.005254932 646.911286403 154.653731286 629.158602469 135 608 c 0
 130.815851594 603.495474549 126.811602454 598.823850552 123 594 c 0
 115.228972139 585.030007702 106.091364075 577.246119351 96 571 c 0
 92.1899250625 568.641727856 88.2250179265 566.492428242 84 565 c 0
 77.4196596489 562.675587192 70.2554346939 562.000228633 63.3670760215 563.120179007 c 0
 56.4787173491 564.24012938 49.8825549963 567.159857652 44.4640709701 571.558016915 c 0
 39.045586944 575.956176177 34.8235075642 581.827318873 32.4410954905 588.386883397 c 0
 30.0586834168 594.946447922 29.530696759 602.177616104 31 609 c 0
 32.2947466964 615.011869275 35.0728845104 620.591586545 38 626 c 0
 63.7888683393 673.649934901 104.554496404 714.230498408 155 734 c 0
 185.973463395 746.138444267 219.8075926 750.227409907 253 748 c 0
 292.502911381 745.349117372 331.529572279 733.732307148 365.382915029 713.20285584 c 0
 399.236257778 692.673404532 427.779856482 663.150157276 446 628 c 0
 473.672657587 574.61412708 475.923624956 508.256732988 450 454 c 0
 449.035948727 451.982293272 448.035734619 449.981865055 447 448 c 2
 395 375 l 1
  Spiro
    395 375 v
    168 94 v
    373 93 v
    409 70 c
    410 29 c
    373 2 c
    366 2 v
    79 0 v
    67 12 c
    62 85 c
    96 147 c
    144 208 v
    343 456 v
    371 510 c
    288 647 c
    207 654 c
    135 608 c
    123 594 v
    96 571 c
    84 565 c
    31 609 c
    38 626 c
    155 734 c
    253 748 c
    446 628 c
    450 454 c
    447 448 v
    0 0 z
  EndSpiro
EndSplineSet
EndChar

StartChar: three
Encoding: 16 51 29
Width: 500
InSpiro: 1
Flags: HW
HStem: 330 90<164.339 332.231>
VStem: 374.201 90.4801<150.552 286.634>
LayerCount: 6
Fore
SplineSet
431.309570312 -8.615234375 m 4
 431.309570312 22.384765625 455.309570312 47.384765625 485.309570312 47.384765625 c 4
 515.309570312 47.384765625 539.309570312 22.384765625 539.309570312 -8.615234375 c 4
 539.309570312 -39.615234375 515.309570312 -64.615234375 485.309570312 -64.615234375 c 4
 455.309570312 -64.615234375 431.309570312 -39.615234375 431.309570312 -8.615234375 c 4
  Spiro
    431.309 -8.61508 o
    438.629 19.6563 o
    458 39.7698 o
    485.309 47.3849 o
    512.619 39.7698 o
    531.99 19.6563 o
    539.309 -8.61508 o
    531.99 -36.8865 o
    512.619 -57 o
    485.309 -64.6151 o
    458 -57 o
    438.629 -36.8865 o
    0 0 z
  EndSpiro
153 379 m 2
 152.985736994 389.267605724 157.000771824 399.487694383 164 407 c 0
 171.19197961 414.719186668 181.462082524 419.487448736 192 420 c 2
 293 423 l 1
 318.080489591 427.763492113 341.268895616 441.893927035 357 462 c 0
 370.382780096 479.104657532 378.333042564 500.321102983 379.915597537 521.981288396 c 0
 381.49815251 543.641473809 376.764199697 565.669066593 366.80514161 584.968944168 c 0
 356.846083524 604.268821743 341.729555051 620.816603979 323.644445893 632.841450719 c 0
 305.559336735 644.866297459 284.559603851 652.382445007 263 655 c 0
 237.99044632 658.03641396 212.329012111 654.506896328 188.702409038 645.761542575 c 0
 165.075805966 637.016188823 143.471438083 623.131945603 125 606 c 0
 116.688993852 598.291682726 108.990215143 589.923444999 102 581 c 0
 97.0761171048 572.137515606 87.9941522038 565.704457135 78 564 c 0
 68.0069036613 562.295722938 57.4227470978 565.287132499 49.431384912 571.524492931 c 0
 41.4400227262 577.761853362 36.0375602152 587.069497339 34 597 c 0
 32.2300022972 605.626477278 32.9314822159 614.745716221 36 623 c 0
 62.1032419043 674.489296541 107.983173996 715.635584845 162 736 c 0
 207.974468015 753.33243551 259.555373166 755.646684267 306.758123777 742.009772422 c 0
 353.960874389 728.372860578 396.482735728 698.780850668 425.259031289 658.956362677 c 0
 454.03532685 619.131874686 468.796532134 569.28825225 465.841351731 520.244068713 c 0
 462.886171329 471.199885177 442.138038032 423.336374875 408 388 c 0
 406.362243417 386.304753762 404.695246238 384.637756583 403 383 c 0
 401.305520697 382.362446963 399.928723278 380.932142163 399.356208302 379.214597233 c 0
 398.783693325 377.497052303 399.02694838 375.526730012 400 374 c 0
 400.763365211 372.802270554 401.912360933 371.913413122 403 371 c 0
 405.890471305 368.572545433 408.486933966 365.81635565 411 363 c 0
 443.256817326 326.850265567 462.449559366 279.349438178 464.681425104 230.951872754 c 0
 466.913290841 182.554307331 452.22860768 133.590462521 423.992766531 94.2198791094 c 0
 395.756925382 54.8492956975 354.192084525 25.2836683158 307.830446951 11.2158282165 c 0
 261.468809377 -2.85201188286 210.590945184 -1.39424535756 165 15 c 0
 109.199231225 35.0656400246 61.8580563911 77.6359987901 36 131 c 0
 33.1320784632 139.306543924 32.4362313166 148.352556829 34 157 c 0
 35.8190703339 167.059229031 40.8047745706 176.65524574 48.5581479511 183.317250454 c 0
 56.3115213316 189.979255167 66.8873919112 193.494076043 77 192 c 0
 87.0642148435 190.513073763 96.2580792262 184.000753159 101 175 c 0
 108.076341548 166.148251785 115.767606882 157.78818077 124 150 c 0
 142.824247398 132.19149165 164.632996537 117.323842407 188.748729216 107.840873614 c 0
 212.864461894 98.3579048214 239.340276313 94.3842234484 265 98 c 0
 285.662230012 100.911567081 305.640956477 108.750116761 322.633901455 120.85981506 c 0
 339.626846433 132.96951336 353.588931538 149.3464544 362.645721629 168.144845959 c 0
 371.702511719 186.943237518 375.810869597 208.131514928 374.201279738 228.935701825 c 0
 372.591689879 249.739888721 365.241162426 270.101511476 353 287 c 0
 339.032111655 306.282172125 318.72343234 320.890169527 296 328 c 1
 192 330 l 2
 181.462082524 330.512551264 171.19197961 335.280813332 164 343 c 0
 157.000771824 350.512305617 152.985736994 360.732394276 153 371 c 2
 153 379 l 2
  Spiro
    153 379 v
    164 407 c
    192 420 v
    293 423 v
    357 462 c
    263 655 c
    125 606 c
    102 581 v
    78 564 c
    34 597 c
    36 623 v
    162 736 c
    408 388 c
    403 383 v
    400 374 c
    403 371 c
    411 363 c
    165 15 c
    36 131 v
    34 157 c
    77 192 c
    101 175 v
    124 150 c
    265 98 c
    353 287 c
    296 328 v
    192 330 v
    164 343 c
    153 371 v
    0 0 z
  EndSpiro
EndSplineSet
EndChar

StartChar: four
Encoding: 17 52 30
Width: 500
InSpiro: 1
Flags: HW
HStem: 210 87<163.3 336 423 478.969>
VStem: 336 86<18.2719 209 297 572.3>
LayerCount: 6
Fore
SplineSet
431.309570312 -8.615234375 m 4
 431.309570312 22.384765625 455.309570312 47.384765625 485.309570312 47.384765625 c 4
 515.309570312 47.384765625 539.309570312 22.384765625 539.309570312 -8.615234375 c 4
 539.309570312 -39.615234375 515.309570312 -64.615234375 485.309570312 -64.615234375 c 4
 455.309570312 -64.615234375 431.309570312 -39.615234375 431.309570312 -8.615234375 c 4
  Spiro
    431.309 -8.61508 o
    438.629 19.6563 o
    458 39.7698 o
    485.309 47.3849 o
    512.619 39.7698 o
    531.99 19.6563 o
    539.309 -8.61508 o
    531.99 -36.8865 o
    512.619 -57 o
    485.309 -64.6151 o
    458 -57 o
    438.629 -36.8865 o
    0 0 z
  EndSpiro
341.7 572.3 m 1
 163.3 295.1 l 1
 339 296 l 1
 341.7 572.3 l 1
  Spiro
    341.7 572.3 v
    163.3 295.1 v
    339 296 v
    0 0 z
  EndSpiro
422 697 m 1
 423 297 l 1
 452 297 l 2
 464.425498661 294.132210422 475.377819796 285.445886763 481 274 c 0
 484.22324986 267.437963287 485.738490433 260.0492138 485.382591306 252.746953788 c 0
 485.026692179 245.444693776 482.802871111 238.244024086 479 232 c 0
 471.975928008 220.467009947 459.422433245 212.47842237 446 211 c 2
 422 210 l 1
 419 38 l 2
 417.75767618 30.715439967 414.628150339 23.7609380994 410 18 c 0
 402.067259138 8.12563860028 389.609131539 1.98751385465 376.943160378 1.91994774876 c 0
 364.277189217 1.85238164286 351.67676919 7.92534837198 344 18 c 0
 339.594597262 23.7814552933 336.797091323 30.7752201404 336 38 c 2
 336 209 l 1
 64 210 l 2
 56.746098546 210.921792334 49.8667014458 214.54252765 45 220 c 0
 38.5541877589 227.228272059 35.8671245122 237.259736772 36.1160451803 246.941392152 c 0
 36.3649658484 256.623047532 39.3137541382 266.04410787 43 275 c 0
 44.8170806128 279.414675138 46.8194263411 283.753090883 49 288 c 2
 329 714 l 2
 336.766204949 726.92825087 349.523832242 736.769849067 364 741 c 0
 375.27353521 744.2942942 387.722349118 744.172408569 398.501208842 739.50752342 c 0
 403.890638703 737.175080845 408.815041369 733.73302482 412.739467305 729.364372434 c 0
 416.663893241 724.995720048 419.573612036 719.696635847 421 714 c 0
 421.573526352 711.709479568 421.909239577 709.359486993 422 707 c 2
 422 697 l 1
  Spiro
    422 697 v
    423 297 v
    452 297 v
    481 274 c
    479 232 c
    446 211 v
    422 210 v
    419 38 v
    410 18 c
    344 18 c
    336 38 v
    336 209 v
    64 210 v
    45 220 c
    43 275 c
    49 288 v
    329 714 v
    364 741 c
    421 714 c
    422 707 v
    0 0 z
  EndSpiro
EndSplineSet
EndChar

StartChar: five
Encoding: 18 53 31
Width: 500
InSpiro: 1
Flags: HW
HStem: 655 90<425 467.229>
LayerCount: 6
Fore
SplineSet
431.309570312 -8.615234375 m 4
 431.309570312 22.384765625 455.309570312 47.384765625 485.309570312 47.384765625 c 4
 515.309570312 47.384765625 539.309570312 22.384765625 539.309570312 -8.615234375 c 4
 539.309570312 -39.615234375 515.309570312 -64.615234375 485.309570312 -64.615234375 c 4
 455.309570312 -64.615234375 431.309570312 -39.615234375 431.309570312 -8.615234375 c 4
  Spiro
    431.309 -8.61508 o
    438.629 19.6563 o
    458 39.7698 o
    485.309 47.3849 o
    512.619 39.7698 o
    531.99 19.6563 o
    539.309 -8.61508 o
    531.99 -36.8865 o
    512.619 -57 o
    485.309 -64.6151 o
    458 -57 o
    438.629 -36.8865 o
    0 0 z
  EndSpiro
43 745 m 1
 42 364 l 2
 41.6398160722 360.756252043 42.4579147981 357.394403206 44.2682809551 354.67885397 c 0
 46.0786471121 351.963304735 48.8672388363 349.915117896 52 349 c 0
 54.9799909821 348.129508144 58.1842310466 348.273881124 61.2150816383 348.946225541 c 0
 64.2459322299 349.618569958 67.1366421231 350.800298373 70 352 c 0
 82.3934350073 357.192653094 94.5991082901 362.82517998 107 368 c 0
 137.502458414 380.728498575 169.441697002 390.726681493 202.354934597 393.748839043 c 0
 235.268172193 396.770996592 269.316310695 392.53592909 299 378 c 0
 334.209114594 360.758302454 362.018089256 328.986313805 374.472191742 291.813027482 c 0
 386.926294227 254.639741159 383.874511696 212.539114024 366.215463292 177.537458431 c 0
 348.556414889 142.535802838 316.518896444 115.070303211 279.239281605 102.938188713 c 0
 241.959666766 90.8060742154 199.905601248 94.1518380146 165 112 c 0
 161.943801006 113.562715803 158.941429867 115.230699769 156 117 c 2
 116 134 l 2
 106.304476959 138.153965196 95.3121396513 139.217739774 85 137 c 0
 73.2448612881 134.471927306 62.4345435431 127.63579989 55.2588704978 117.987786932 c 0
 48.0831974524 108.339773974 44.6425547792 95.9470406444 46 84 c 0
 47.553541041 70.3270961693 55.4695523945 57.510696835 67 50 c 0
 78.1251025543 43.9290367148 89.4681678393 38.2575040723 101 33 c 0
 135.243505465 17.3879648158 171.51614517 5.36361950952 209 2 c 0
 280.645421521 -4.42911297917 354.624971508 22.8655534199 404.844329297 74.3671652571 c 0
 455.063687087 125.868777094 480.488300182 200.569273568 472 272 c 0
 463.1246674 346.687680849 417.322901397 415.925030663 352.433381244 453.95622015 c 0
 287.543861092 491.987409637 205.126031617 498.191191386 135 471 c 0
 133.326324542 470.351036575 131.659532866 469.684319904 130 469 c 1
 131 655 l 1
 426 655 l 2
 434.581846931 654.162255453 443.400504582 655.925986983 451 660 c 0
 458.117205645 663.815462323 464.142911726 669.635639645 468.219542471 676.606539924 c 0
 472.296173217 683.577440203 474.413738699 691.677394305 474.289516869 699.751856385 c 0
 474.16529504 707.826318464 471.801913035 715.852423114 467.546802417 722.715833532 c 0
 463.291691799 729.579243949 457.158386791 735.262371408 450 739 c 0
 442.364609898 742.986687669 433.581393813 744.743330887 425 744 c 2
 43 745 l 1
  Spiro
    43 745 v
    42 364 v
    52 349 c
    70 352 c
    107 368 c
    299 378 c
    165 112 c
    156 117 v
    116 134 v
    85 137 c
    46 84 c
    67 50 v
    101 33 c
    209 2 c
    472 272 c
    135 471 c
    130 469 v
    131 655 v
    426 655 v
    451 660 c
    450 739 c
    425 744 v
    0 0 z
  EndSpiro
EndSplineSet
EndChar

StartChar: six
Encoding: 19 54 32
Width: 500
InSpiro: 1
Flags: HW
HStem: 664 83<244.987 455.367>
VStem: 44 90<142.492 329.235 431 553.76> 376 91<152.33 314.036>
LayerCount: 6
Fore
SplineSet
431.309570312 -8.615234375 m 4
 431.309570312 22.384765625 455.309570312 47.384765625 485.309570312 47.384765625 c 4
 515.309570312 47.384765625 539.309570312 22.384765625 539.309570312 -8.615234375 c 4
 539.309570312 -39.615234375 515.309570312 -64.615234375 485.309570312 -64.615234375 c 4
 455.309570312 -64.615234375 431.309570312 -39.615234375 431.309570312 -8.615234375 c 4
  Spiro
    431.309 -8.61508 o
    438.629 19.6563 o
    458 39.7698 o
    485.309 47.3849 o
    512.619 39.7698 o
    531.99 19.6563 o
    539.309 -8.61508 o
    531.99 -36.8865 o
    512.619 -57 o
    485.309 -64.6151 o
    458 -57 o
    438.629 -36.8865 o
    0 0 z
  EndSpiro
299.6 365.5 m 0
 282.95911832 373.814916608 264.457207393 378.535250426 245.85467518 378.586010504 c 0
 227.252142968 378.636770581 208.578315884 373.956523908 192.5 364.6 c 0
 177.416284235 355.822268041 164.817214352 343.090705097 155.159135293 328.554936507 c 0
 145.501056234 314.019167917 138.710981625 297.703979045 134 280.9 c 0
 127.755230513 258.625029741 125.100692957 235.216892442 127.587687008 212.217190127 c 0
 130.07468106 189.217487812 137.812546062 166.6371332 151.1 147.7 c 0
 173.305466553 116.053013314 211.203438444 96.0188007031 249.860114345 95.4935203182 c 0
 288.516790246 94.9682399333 326.945760336 113.965880959 350 145 c 0
 364.441879151 164.440719073 372.884563584 187.983266512 376 212 c 0
 379.921497227 242.230613367 375.458477461 273.664056208 362.221339089 301.123959572 c 0
 348.984200717 328.583862935 326.869248586 351.874428211 299.6 365.5 c 0
  Spiro
    299.6 365.5 c
    192.5 364.6 c
    134 280.9 c
    151.1 147.7 c
    350 145 c
    376 212 c
    0 0 z
  EndSpiro
427 744 m 0
 431.750252822 743.42305099 436.53306514 742.715886066 441 741 c 0
 446.958767228 738.711055572 452.20177069 734.632271863 455.968772326 729.479032867 c 0
 459.735773961 724.32579387 462.025577906 718.121355353 462.611630857 711.765042317 c 0
 463.197683808 705.408729281 462.089870136 698.916592078 459.523106471 693.072116245 c 0
 456.956342806 687.227640412 452.944336935 682.037289406 448 678 c 0
 443.820596704 674.587315777 439.009815467 672.003889844 434 670 c 0
 423.890594552 665.956311158 412.861083386 664.232950038 402 665 c 2
 349 664 l 2
 346.000248895 664.047328805 342.999751105 664.047328805 340 664 c 0
 322.852184982 663.729449023 305.699880853 661.90317015 289 658 c 0
 248.329853033 648.494393041 210.612828651 626.336067268 183 595 c 0
 149.487681189 556.968971384 131.518628307 505.628820292 134 455 c 2
 134 431 l 1
 145.789195665 440.288156791 158.547217909 448.34585505 172 455 c 0
 207.383488914 472.501722876 247.85144621 480.068759956 287 475 c 0
 330.539581132 469.362711671 371.635793169 448.099709975 402.560890512 416.937031991 c 0
 433.485987855 385.774354007 454.28447804 345.029220558 463 302 c 0
 468.053116374 277.052365201 469.153304257 251.362999585 467 226 c 0
 461.074490895 156.205550611 428.785110627 87.645944567 374 44 c 0
 336.090959484 13.7988036897 287.312252595 -3.89022629642 239 0 c 0
 192.129735964 3.77411368502 148.565640445 27.2404355586 113 58 c 0
 83.9641011682 83.1122035216 58.8368831533 114.261477598 47.7019190399 150.999996361 c 0
 44.8395690081 160.443987314 42.92621312 170.175329925 42 180 c 2
 44 442 l 2
 43.7489696896 452.664697337 43.7489696896 463.335302663 44 474 c 0
 44.3226537017 487.707524274 45.0620877639 501.426318727 47 515 c 0
 53.8891568194 563.253588147 76.1417150486 608.895208336 108.336258285 645.492757934 c 0
 140.530801521 682.090307533 182.417023531 709.735542087 228 727 c 0
 255.605647464 737.455581792 284.613608129 744.201619156 314 747 c 0
 344.31899345 748.413732692 374.719395506 748.079662339 405 746 c 0
 412.347117774 745.495402275 419.689299943 744.887931932 427 744 c 0
  Spiro
    427 744 c
    441 741 c
    448 678 c
    434 670 c
    402 665 v
    349 664 v
    340 664 c
    289 658 c
    183 595 c
    134 455 v
    134 431 v
    172 455 c
    287 475 c
    463 302 c
    467 226 c
    374 44 c
    239 0 c
    113 58 c
    47.7019 151 c
    42 180 v
    44 442 v
    44 474 c
    47 515 c
    228 727 c
    314 747 v
    405 746 c
    0 0 z
  EndSpiro
EndSplineSet
EndChar

StartChar: seven
Encoding: 20 55 33
Width: 500
InSpiro: 1
Flags: HW
HStem: 645 101<50.4919 89>
LayerCount: 6
Fore
SplineSet
431.309570312 -8.615234375 m 4
 431.309570312 22.384765625 455.309570312 47.384765625 485.309570312 47.384765625 c 4
 515.309570312 47.384765625 539.309570312 22.384765625 539.309570312 -8.615234375 c 4
 539.309570312 -39.615234375 515.309570312 -64.615234375 485.309570312 -64.615234375 c 4
 455.309570312 -64.615234375 431.309570312 -39.615234375 431.309570312 -8.615234375 c 4
  Spiro
    431.309 -8.61508 o
    438.629 19.6563 o
    458 39.7698 o
    485.309 47.3849 o
    512.619 39.7698 o
    531.99 19.6563 o
    539.309 -8.61508 o
    531.99 -36.8865 o
    512.619 -57 o
    485.309 -64.6151 o
    458 -57 o
    438.629 -36.8865 o
    0 0 z
  EndSpiro
371 645 m 1
 152 53 l 2
 147.946520783 44.1240387991 147.299972926 33.7423406113 150.220853875 24.4320325882 c 0
 153.141734823 15.121724565 159.602738032 6.96984631929 168 2 c 0
 174.706076425 -1.96893289284 182.534490184 -3.91012895517 190.326966033 -3.94490628314 c 0
 198.119441882 -3.97968361112 205.87065874 -2.14585163684 213 1 c 0
 230.44391327 8.69719965899 244.061248249 24.5840904674 249 43 c 2
 479 667 l 2
 484.968686529 680.141321053 484.968686529 695.858678947 479 709 c 0
 474.751906488 718.35307298 467.667594324 726.296106936 459.2326591 732.159394446 c 0
 450.797723877 738.022681957 441.046644551 741.857290053 431 744 c 0
 425.736934136 745.122486569 420.377429762 745.792424616 415 746 c 2
 89 746 l 2
 74.6270589414 745.710709311 60.4348932014 739.888282341 50 730 c 0
 39.8176930305 720.35107267 33.2702257198 706.796277481 32.6848886402 692.780623577 c 0
 32.0995515606 678.764969673 37.6589456297 664.478595273 48 655 c 0
 56.606986882 647.110848444 68.3278965316 642.715507325 80 643 c 2
 371 645 l 1
  Spiro
    371 645 v
    152 53 v
    168 2 c
    213 1 c
    249 43 v
    479 667 v
    479 709 c
    431 744 c
    415 746 v
    89 746 v
    50 730 c
    48 655 c
    80 643 v
    0 0 z
  EndSpiro
EndSplineSet
EndChar

StartChar: eight
Encoding: 21 56 34
Width: 500
InSpiro: 1
Flags: HW
HStem: 644.101 100.899<173.235 324.735>
LayerCount: 6
Fore
SplineSet
431.309570312 -8.615234375 m 0
 431.309570312 22.384765625 455.309570312 47.384765625 485.309570312 47.384765625 c 0
 515.309570312 47.384765625 539.309570312 22.384765625 539.309570312 -8.615234375 c 0
 539.309570312 -39.615234375 515.309570312 -64.615234375 485.309570312 -64.615234375 c 0
 455.309570312 -64.615234375 431.309570312 -39.615234375 431.309570312 -8.615234375 c 0
  Spiro
    431.309 -8.61508 o
    438.629 19.6563 o
    458 39.7698 o
    485.309 47.3849 o
    512.619 39.7698 o
    531.99 19.6563 o
    539.309 -8.61508 o
    531.99 -36.8865 o
    512.619 -57 o
    485.309 -64.6151 o
    458 -57 o
    438.629 -36.8865 o
    0 0 z
  EndSpiro
263.399414062 308.100585938 m 0
 239.018554688 310.387695312 213.805664062 307.20703125 191.776367188 296.509765625 c 0
 169.748046875 285.813476562 151.16015625 267.216796875 142.799804688 244.200195312 c 0
 137.296875 229.049804688 136.306640625 212.58203125 137.399414062 196.5 c 0
 138.372070312 182.19921875 140.973632812 167.9296875 146.165039062 154.569335938 c 0
 151.356445312 141.208007812 159.208984375 128.759765625 169.799804688 119.100585938 c 0
 186.423828125 103.9375 208.767578125 96.470703125 231 93 c 0
 247.681640625 90.396484375 264.817382812 89.826171875 281.399414062 93 c 0
 301.374023438 96.8232421875 320.283203125 106.150390625 335.383789062 119.771484375 c 0
 350.484375 133.392578125 361.719726562 151.279296875 367.303710938 170.834960938 c 0
 372.887695312 190.389648438 372.78515625 211.55078125 366.883789062 231.012695312 c 0
 360.982421875 250.473632812 349.28515625 268.157226562 333.599609375 281.100585938 c 0
 313.970703125 297.296875 288.736328125 305.723632812 263.399414062 308.100585938 c 0
  Spiro
    142.8 244.2 c
    137.4 196.5 c
    169.8 119.1 c
    231 93 c
    281.4 93 c
    333.6 281.1 c
    263.4 308.1 c
    0 0 z
  EndSpiro
261.400390625 644.100585938 m 0
 237.01953125 646.38671875 211.806640625 643.206054688 189.77734375 632.509765625 c 0
 167.749023438 621.813476562 149.161132812 603.216796875 140.80078125 580.200195312 c 0
 135.296875 565.049804688 134.306640625 548.58203125 135.400390625 532.5 c 0
 136.373046875 518.19921875 138.973632812 503.9296875 144.166015625 490.569335938 c 0
 149.357421875 477.208007812 157.209960938 464.759765625 167.80078125 455.100585938 c 0
 184.424804688 439.9375 206.768554688 432.471679688 229 429 c 0
 245.681640625 426.395507812 262.817382812 425.826171875 279.400390625 429 c 0
 299.374023438 432.823242188 318.284179688 442.150390625 333.384765625 455.771484375 c 0
 348.485351562 469.392578125 359.720703125 487.279296875 365.3046875 506.833984375 c 0
 370.888671875 526.388671875 370.786132812 547.55078125 364.884765625 567.01171875 c 0
 358.983398438 586.473632812 347.286132812 604.157226562 331.600585938 617.100585938 c 0
 311.971679688 633.295898438 286.737304688 641.723632812 261.400390625 644.100585938 c 0
  Spiro
    140.8 580.2 c
    135.4 532.5 c
    167.8 455.1 c
    229 429 c
    279.4 429 c
    331.6 617.1 c
    261.4 644.1 c
    0 0 z
  EndSpiro
134 369 m 1
 123 382 l 2
 111 396 97.2808133565 408.640703701 87 424 c 0
 58.2707271164 466.920866217 44.3606322716 519.972806136 50.4536925989 571.260684753 c 0
 56.5467529263 622.548563371 83.0642002269 671.506632854 124 703 c 0
 162.328551726 732.487518464 211.649482272 745.905018261 260 745 c 0
 308.241967337 744.09701357 356.940021401 728.897585396 394 698 c 0
 433.285154613 665.247244458 457.679807781 615.665598922 461.083069276 564.631451729 c 0
 464.486330771 513.597304535 447.211670911 461.730021718 415 422 c 0
 403.10765112 407.331922687 389.328684693 394.303285905 377 380 c 0
 373.906571594 376.411118296 370.905254659 372.742842043 368 369 c 1
 371.045621349 366.385254482 374.046214362 363.718060693 377 361 c 0
 390.914537275 348.195903337 403.805470953 334.239480252 415 319 c 0
 445.176394144 277.919883034 462.569589453 226.857384542 459.944195042 175.952590291 c 0
 457.318800631 125.04779604 433.810166866 74.8330235385 394 43 c 0
 356.948522418 13.3728808285 308.430685334 0.953032081737 261 0 c 0
 212.783209554 -0.968827413092 163.118899553 9.79522726202 124 38 c 0
 81.9056525748 68.3500741649 54.876884506 117.766521099 49.0540781422 169.33352618 c 0
 43.2312717784 220.900531261 57.9496798517 273.998372284 87 317 c 0
 97.344666059 332.312653232 109 347 123 359 c 2
 134 369 l 1
  Spiro
    134 369 v
    123 382 v
    87 424 c
    124 703 c
    260 745 c
    394 698 c
    415 422 c
    377 380 c
    368 369 v
    377 361 c
    415 319 c
    394 43 c
    261 0 c
    124 38 c
    87 317 c
    123 359 v
    0 0 z
  EndSpiro
EndSplineSet
EndChar

StartChar: nine
Encoding: 22 57 35
Width: 500
InSpiro: 1
Flags: HW
HStem: 649.5 96.5<175.805 311.297>
LayerCount: 6
Fore
SplineSet
431.309570312 -8.615234375 m 0
 431.309570312 22.384765625 455.309570312 47.384765625 485.309570312 47.384765625 c 0
 515.309570312 47.384765625 539.309570312 22.384765625 539.309570312 -8.615234375 c 0
 539.309570312 -39.615234375 515.309570312 -64.615234375 485.309570312 -64.615234375 c 0
 455.309570312 -64.615234375 431.309570312 -39.615234375 431.309570312 -8.615234375 c 0
  Spiro
    431.309 -8.61508 o
    438.629 19.6563 o
    458 39.7698 o
    485.309 47.3849 o
    512.619 39.7698 o
    531.99 19.6563 o
    539.309 -8.61508 o
    531.99 -36.8865 o
    512.619 -57 o
    485.309 -64.6151 o
    458 -57 o
    438.629 -36.8865 o
    0 0 z
  EndSpiro
194.900390625 638.700195312 m 0
 162 623.924804688 135.840820312 594.8125 124.680664062 560.516601562 c 0
 113.521484375 526.220703125 117.54296875 487.27734375 135.5 456 c 0
 154.259765625 423.32421875 188.052734375 399.603515625 225.224609375 393.450195312 c 0
 262.396484375 387.295898438 302.196289062 398.963867188 329.900390625 424.5 c 0
 353.439453125 446.197265625 367.918945312 477.28125 370.013671875 509.225585938 c 0
 372.107421875 541.170898438 361.935546875 573.662109375 342.5 599.099609375 c 0
 330.665039062 614.590820312 315.4609375 627.552734375 298.08984375 636.400390625 c 0
 280.71875 645.249023438 261.189453125 649.935546875 241.700195312 649.5 c 0
 225.586914062 649.139648438 209.602539062 645.302734375 194.900390625 638.700195312 c 0
  Spiro
    194.9 638.7 c
    135.5 456 c
    329.9 424.5 c
    342.5 599.1 c
    241.7 649.5 c
    0 0 z
  EndSpiro
249 746 m 0
 292.581004734 745.005265047 336.056295657 731.062060511 371 705 c 0
 418.406479225 669.64282899 447.892725789 613.887111913 460 556 c 0
 472.023806311 498.511963518 468.190166909 438.656104805 457 381 c 0
 441.98760105 303.650264798 412.855868926 227.323878127 361 168 c 0
 348.583222125 153.795023154 334.972050343 140.678310187 321 128 c 0
 270.172328279 81.878709827 214.126200421 41.2123892379 153 10 c 0
 149.680848771 8.30516800691 146.347356332 6.63842178708 143 5 c 0
 136.640138634 1.44052299904 129.281528967 -0.311526921746 122 0 c 0
 114.526581353 0.319736571349 107.174655793 2.80653077666 100.971958001 6.98753040001 c 0
 94.7692602096 11.1685300234 89.723758954 17.0212807977 86.3908770521 23.7180050697 c 0
 79.7251132483 37.1114536136 80.269495085 53.6389680572 87 67 c 0
 91.6279668591 76.1871878581 99.0378821558 83.9499562641 108 89 c 0
 110.675947717 90.3146625484 113.342701331 91.6480393552 116 93 c 0
 154.54955475 112.612955631 191.095031107 136.145032407 225 163 c 0
 260.870157646 191.411526469 294.124635127 223.963478664 318 263 c 0
 326.92898098 277.59899601 334.568039257 293.234588246 338 310 c 0
 339.145638201 315.596537256 339.815502914 321.290387319 340 327 c 1
 337.767342366 324.886385253 335.430213977 322.883132348 333 321 c 0
 322.922883798 313.191410439 311.261415167 307.489991401 299 304 c 0
 284.43277099 299.853700141 269.144718313 298.817049834 254 299 c 0
 219.601815974 299.415534534 185.030399867 306.150016252 154 321 c 0
 121.70855346 336.453473316 93.7368892755 360.554893904 72.8830957666 389.652430801 c 0
 52.0293022577 418.749967697 38.2507852278 452.751240572 32 488 c 0
 23.2555345922 537.310853957 29.5475306237 589.750619513 53 634 c 0
 71.5509741225 669.001393635 100.528093419 698.296466242 135.024740592 717.769974686 c 0
 169.521387764 737.243483129 209.396728876 746.903943318 249 746 c 0
  Spiro
    249 746 c
    371 705 c
    460 556 c
    457 381 c
    361 168 c
    321 128 c
    153 10 c
    143 5 v
    122 0 c
    87 67 c
    108 89 v
    116 93 c
    225 163 c
    318 263 c
    338 310 c
    340 327 v
    333 321 c
    299 304 c
    254 299 c
    154 321 c
    32 488 c
    53 634 c
    0 0 z
  EndSpiro
EndSplineSet
Layer: 2
SplineSet
532 -81 m 1024
  Spiro
    532 -81 {
    0 0 z
  EndSpiro
EndSplineSet
Layer: 3
SplineSet
182 458 m 1024
  Spiro
    182 458 {
    0 0 z
  EndSpiro
EndSplineSet
EndChar

StartChar: slash
Encoding: 12 47 36
Width: 500
InSpiro: 1
Flags: W
LayerCount: 6
Fore
SplineSet
41 67 m 2
 392 719 l 2
 394.880364193 730.395339561 403.238587472 740.273239799 414 745 c 0
 425.189144584 749.914633944 438.723823366 749.114653924 449.242010142 742.89224842 c 0
 459.760196919 736.669842917 466.982448409 725.178471664 468 713 c 0
 468.699099403 704.632893764 466.554314172 696.053752842 462 689 c 2
 115 36 l 2
 110.871324664 26.5445649674 104.25580742 18.1881221331 96 12 c 0
 87.928390255 5.94994282536 78.087160184 1.94277139184 68 2 c 0
 59.3570245096 2.04903515446 50.736796101 5.15894818131 44.1535508277 10.7593331187 c 0
 37.5703055544 16.359718056 33.1016385813 24.4273795015 32 33 c 0
 30.9544603237 41.136075672 32.8727193387 49.4165313859 36 57 c 0
 37.4220328453 60.4483446221 39.0945440095 63.7933669505 41 67 c 2
  Spiro
    41 67 v
    392 719 v
    414 745 c
    468 713 c
    462 689 v
    115 36 v
    96 12 c
    68 2 c
    32 33 c
    36 57 c
    0 0 z
  EndSpiro
EndSplineSet
Validated: 33
EndChar

StartChar: degree
Encoding: 90 176 37
Width: 500
InSpiro: 1
Flags: W
HStem: 454.897 289.207
VStem: 105.397 289.207
LayerCount: 6
Fore
SplineSet
201 562 m 0
 210.424804688 548.779296875 225.234375 539.51953125 241.247070312 536.834960938 c 0
 257.259765625 534.151367188 274.279296875 538.075195312 287.5 547.5 c 0
 300.720703125 556.924804688 309.98046875 571.734375 312.665039062 587.747070312 c 0
 315.348632812 603.759765625 311.424804688 620.779296875 302 634 c 0
 292.575195312 647.220703125 277.765625 656.48046875 261.752929688 659.165039062 c 0
 245.740234375 661.848632812 228.720703125 657.924804688 215.5 648.5 c 0
 202.279296875 639.075195312 193.01953125 624.265625 190.334960938 608.252929688 c 0
 187.651367188 592.240234375 191.575195312 575.220703125 201 562 c 0
  Spiro
    302 634 c
    201 562 c
    0 0 z
  EndSpiro
129 516 m 0
 107.139751119 547.677725924 98.4546586565 588.159439259 105.396663247 626.016504294 c 0
 112.338667838 663.87356933 134.822274076 698.639751119 166.5 720.5 c 0
 198.177725924 742.360248881 238.659439259 751.045341344 276.516504294 744.103336753 c 0
 314.37356933 737.161332162 349.139751119 714.677725924 371 683 c 0
 392.860248881 651.322274076 401.545341344 610.840560741 394.603336753 572.983495706 c 0
 387.661332162 535.12643067 365.177725924 500.360248881 333.5 478.5 c 0
 301.822274076 456.639751119 261.340560741 447.954658656 223.483495706 454.896663247 c 0
 185.62643067 461.838667838 150.860248881 484.322274076 129 516 c 0
  Spiro
    129 516 c
    371 683 c
    0 0 z
  EndSpiro
EndSplineSet
Validated: 33
EndChar

StartChar: period
Encoding: 11 46 38
Width: 500
Flags: W
HStem: 9 146.675<201.49 292.376>
VStem: 172.167 150.59<26.5018 124.993>
LayerCount: 6
Fore
SplineSet
213.502929688 9.34765625 m 5
 191.962890625 21.03515625 172.166992188 53.4453125 172.166992188 77.0234375 c 4
 172.166992188 114.107421875 213.415039062 156.373046875 248.922851562 155.674804688 c 4
 281.31640625 155.036132812 322.661132812 111.799804688 322.756835938 78.4609375 c 4
 322.829101562 52.890625 303.196289062 20.9951171875 280 9 c 4
 254.001953125 -4.4443359375 238.774414062 -4.3642578125 213.502929688 9.34765625 c 5
EndSplineSet
Validated: 33
EndChar

StartChar: hyphen
Encoding: 10 45 39
Width: 500
InSpiro: 1
Flags: W
HStem: 323 97<41.9836 86 413 456.315>
LayerCount: 6
Fore
SplineSet
143 323 m 0
 229.65560322 321.065133573 316.361843885 321.398619114 403 324 c 0
 410.370803796 324.22131436 417.787520028 324.464467094 425 326 c 0
 438.939577048 328.967728068 451.995568682 337.117315361 459.545066107 349.205504091 c 0
 463.31981482 355.249598456 465.683186502 362.196343343 466.177776906 369.305153713 c 0
 466.67236731 376.413964082 465.275587174 383.671466742 462 390 c 0
 457.533869737 398.628698429 449.749566767 405.247538036 441.025547561 409.524481452 c 0
 432.301528354 413.801424867 422.6517699 415.884610432 413 417 c 0
 407.026946569 417.690265263 401.012756331 418.024386942 395 418 c 2
 145 420 l 1
 105 420 l 2
 98.6536122348 420.123728694 92.2983367545 419.789240511 86 419 c 0
 76.2874183959 417.782922672 66.6136874411 415.445926318 57.9183979692 410.95065551 c 0
 49.2231084973 406.455384702 41.5272503993 399.678682069 37 391 c 0
 33.6532295891 384.58428322 32.1175314241 377.25846715 32.4471408255 370.029798419 c 0
 32.7767502268 362.801129688 34.9547325217 355.682916331 38.5888745819 349.425496298 c 0
 45.8571587023 336.910656232 58.8790145947 328.169691961 73 325 c 0
 80.8480093073 323.238382712 88.9572274333 323.091405664 97 323 c 0
 112.332673223 322.82574502 127.667326777 322.82574502 143 323 c 0
  Spiro
    143 323 v
    403 324 c
    425 326 c
    462 390 c
    413 417 c
    395 418 v
    145 420 v
    105 420 v
    86 419 c
    37 391 c
    73 325 c
    97 323 c
    0 0 z
  EndSpiro
EndSplineSet
Validated: 41
EndChar

StartChar: uni0394
Encoding: 88 916 40
Width: 502
InSpiro: 1
Flags: W
HStem: 0 109<128 378> 719 20G<254.453 268.332>
LayerCount: 6
Fore
SplineSet
256 569 m 1
 128 109 l 1
 378 111 l 1
 256 569 l 1
  Spiro
    256 569 v
    128 109 v
    378 111 v
    0 0 z
  EndSpiro
240 0 m 1
 126 0 l 2
 120.668945312 0.1796875 115.331054688 0.1796875 110 0 c 0
 94.30859375 -0.5302734375 78.4814453125 -2.611328125 63 0 c 0
 57.408203125 0.943359375 51.884765625 2.5087890625 46.8408203125 5.099609375 c 0
 41.796875 7.69140625 37.236328125 11.34375 34 16 c 0
 31.0234375 20.2822265625 29.232421875 25.3056640625 28.2431640625 30.42578125 c 0
 27.25390625 35.546875 27.0380859375 40.78515625 27 46 c 0
 26.6875 89.171875 38.3388671875 131.431640625 50 173 c 0
 97.638671875 342.821289062 146.975585938 512.165039062 198 681 c 0
 201.09765625 696.340820312 209.299804688 710.60546875 221 721 c 0
 232.341796875 731.077148438 246.905273438 737.470703125 262 739 c 1
 274.663085938 735.586914062 286.45703125 728.99609375 296 720 c 0
 307.353515625 709.296875 315.4609375 695.196289062 319 680 c 0
 361.368164062 510.071289062 406.041015625 340.717773438 453 172 c 0
 464.576171875 130.408203125 476.387695312 88.1708984375 476 45 c 0
 475.953125 39.787109375 475.724609375 34.5517578125 474.732421875 29.43359375 c 0
 473.739257812 24.3154296875 471.955078125 19.294921875 469 15 c 0
 465.78125 10.3212890625 461.245117188 6.625 456.202148438 4.0146484375 c 0
 451.158203125 1.404296875 445.615234375 -0.15234375 440 -1 c 0
 428.442382812 -2.7451171875 416.67578125 -1.5380859375 405 -1 c 0
 395.672851562 -0.5703125 386.327148438 -0.5703125 377 -1 c 2
 240 0 l 1
  Spiro
    240 0 v
    126 0 v
    110 0 c
    63 0 c
    34 16 c
    27 46 c
    50 173 c
    198 681 v
    221 721 c
    262 739 v
    296 720 c
    319 680 v
    453 172 c
    476 45 c
    469 15 c
    440 -1 c
    405 -1 c
    377 -1 v
    0 0 z
  EndSpiro
EndSplineSet
Validated: 33
EndChar

StartChar: colon
Encoding: 23 58 46
Width: 500
Flags: W
HStem: 0 172.649<191.835 300.165> 259.503 171.875<191.835 299.541>
VStem: 164.493 163.748<28.0075 143.868 288.331 401.892>
LayerCount: 6
Fore
SplineSet
246 431.377929688 m 0
 268.518554688 431.377929688 287.610351562 422.861328125 303.275390625 405.829101562 c 0
 319.4296875 389.3125 327.506835938 369.182617188 327.506835938 345.440429688 c 0
 327.506835938 321.698242188 319.4296875 301.310546875 303.275390625 284.27734375 c 0
 287.610351562 267.760742188 268.518554688 259.502929688 246 259.502929688 c 0
 223.481445312 259.502929688 204.145507812 267.760742188 187.990234375 284.27734375 c 0
 172.326171875 301.310546875 164.493164062 321.698242188 164.493164062 345.440429688 c 0
 164.493164062 369.182617188 172.326171875 389.3125 187.990234375 405.829101562 c 0
 204.145507812 422.861328125 223.481445312 431.377929688 246 431.377929688 c 0
246 172.649414062 m 0
 269.0078125 172.649414062 288.344726562 164.1328125 304.009765625 147.100585938 c 0
 320.1640625 130.067382812 328.241210938 109.6796875 328.241210938 85.9375 c 0
 328.241210938 62.1953125 320.1640625 41.8076171875 304.009765625 24.7744140625 c 0
 287.85546875 8.2578125 268.518554688 0 246 0 c 0
 223.481445312 0 204.145507812 8.2578125 187.990234375 24.7744140625 c 0
 172.326171875 41.8076171875 164.493164062 62.1953125 164.493164062 85.9375 c 0
 164.493164062 109.6796875 172.326171875 130.067382812 187.990234375 147.100585938 c 0
 204.145507812 164.1328125 223.481445312 172.649414062 246 172.649414062 c 0
EndSplineSet
Validated: 1
EndChar

StartChar: plus
Encoding: 8 43 47
Width: 500
InSpiro: 1
Flags: W
HStem: 325 94<80.3616 109 391 419.638>
VStem: 205 91<201.362 230 512 540.638>
LayerCount: 6
Fore
SplineSet
204 323 m 1
 205 230 l 2
 205 219 211.375976562 208.822265625 219 201 c 0
 227.763671875 192.009765625 240.06640625 186.436523438 252.620117188 186.274414062 c 0
 265.173828125 186.111328125 277.793945312 191.498046875 286 201 c 0
 292.626953125 208.673828125 296 219 296 229 c 2
 298 325 l 1
 391 326 l 2
 402 326 412.178112299 332.375817007 420 340 c 0
 428.990460011 348.763218668 434.563223458 361.066579104 434.72591291 373.620299858 c 0
 434.888602361 386.174020613 429.502017043 398.794267567 420 407 c 0
 412.325877502 413.627203003 402 417 392 417 c 2
 296 419 l 1
 295 512 l 2
 295 523 288.624023438 533.177734375 281 541 c 0
 272.236328125 549.990234375 259.93359375 555.563476562 247.379882812 555.725585938 c 0
 234.826171875 555.888671875 222.206054688 550.501953125 214 541 c 0
 207.373046875 533.326171875 204 523 204 513 c 2
 202 417 l 1
 109 416 l 2
 98 416 87.822265625 409.624023438 80 402 c 0
 71.009765625 393.236328125 65.4365234375 380.93359375 65.2744140625 368.379882812 c 0
 65.111328125 355.826171875 70.498046875 343.206054688 80 335 c 0
 87.673828125 328.373046875 98 325 108 325 c 2
 204 323 l 1
  Spiro
    204 323 v
    205 230 v
    219 201 c
    286 201 c
    296 229 v
    298 325 v
    391 326 v
    420 340 c
    420 407 c
    392 417 v
    296 419 v
    295 512 v
    281 541 c
    214 541 c
    204 513 v
    202 417 v
    109 416 v
    80 402 c
    80 335 c
    108 325 v
    0 0 z
  EndSpiro
EndSplineSet
Validated: 41
EndChar

StartChar: a
Encoding: 62 97 48
Width: 500
Flags: W
HStem: 208.805 106.354<195.044 275.04> 725 20G<226.535 247.465> 725 20G<226.535 247.465>
LayerCount: 6
Fore
SplineSet
34.4921875 18.0224609375 m 0xc0
 15.935546875 37.775390625 13.7275390625 82.4580078125 28.9267578125 130.676757812 c 0
 39.0068359375 162.658203125 47.9443359375 194.087890625 76.552734375 298.170898438 c 0
 85.1982421875 329.627929688 100.118164062 381.102539062 109.706054688 412.55859375 c 0
 125.444335938 464.190429688 146.698242188 542.258789062 171.989257812 641.3359375 c 0
 177.008789062 660.99609375 188.413085938 692.36328125 197.333984375 711.041015625 c 0
 211.811523438 741.353515625 216.0703125 745 237 745 c 0
 257.930664062 745 262.189453125 741.353515625 276.666992188 711.041015625 c 0
 285.586914062 692.36328125 296.9921875 660.99609375 302.010742188 641.3359375 c 0
 327.302734375 542.258789062 348.556640625 464.190429688 364.293945312 412.55859375 c 0
 373.8828125 381.102539062 388.801757812 329.627929688 397.448242188 298.170898438 c 0
 426.056640625 194.087890625 434.993164062 162.658203125 445.07421875 130.676757812 c 0
 460.815429688 80.7353515625 458.203125 35.5244140625 438.506835938 17.0205078125 c 0
 418.787109375 -1.5048828125 417.30078125 -1.6357421875 387.465820312 12.521484375 c 0
 369.940429688 20.837890625 361.993164062 30.99609375 355.3046875 53.6298828125 c 0
 350.41796875 70.1640625 342.380859375 88.7998046875 339.967773438 96.1064453125 c 0
 336.740234375 105.87890625 334.740234375 113.87890625 333.515625 121.619140625 c 0
 332.390625 128.733398438 328.565429688 151.38671875 322.514648438 171.760742188 c 0
 311.513671875 208.8046875 311.513671875 208.8046875 237 208.8046875 c 0
 162.487304688 208.8046875 162.487304688 208.8046875 151.486328125 171.760742188 c 0
 145.435546875 151.38671875 142.0703125 128.645507812 140.485351562 121.619140625 c 0
 138.740234375 113.87890625 137.581054688 102.934570312 134.032226562 96.1064453125 c 0
 130.483398438 89.279296875 123.58203125 70.1640625 118.696289062 53.6298828125 c 0
 112.006835938 30.99609375 104.059570312 20.837890625 86.5341796875 12.521484375 c 0
 56.1484375 -1.8974609375 52.8818359375 -1.552734375 34.4921875 18.0224609375 c 0xc0
275.040039062 315.100585938 m 1
 282.7734375 320.00390625 282.307617188 328.717773438 272.466796875 363.249023438 c 0
 265.858398438 386.4375 255.55859375 415.98046875 249.578125 428.899414062 c 0
 239.604492188 450.443359375 237.9609375 451.330078125 229.7421875 439.594726562 c 0
 224.8125 432.55859375 213.704101562 403.041015625 205.055664062 374.001953125 c 0
 192.233398438 330.946289062 189.692382812 315.91015625 198.8671875 315.158203125 c 0
 215.10546875 313.826171875 269.360351562 318.103515625 275.040039062 315.104492188 c 1
 275.040039062 315.100585938 l 1
EndSplineSet
Validated: 33
EndChar

StartChar: b
Encoding: 63 98 49
Width: 500
Flags: W
HStem: 0.640625 92.7129<125.275 293.445> 333.843 98.7355<123.212 280.486> 644.622 94.318<126.575 269.692>
VStem: 25.5088 92.3906<108.513 630.159>
LayerCount: 6
Fore
SplineSet
72 5 m 1
 64.345703125 6.9443359375 50.7529296875 13.3369140625 41.794921875 19.20703125 c 0
 25.5087890625 29.8779296875 25.5087890625 29.8779296875 25.5087890625 372.647460938 c 0
 25.5087890625 695.690429688 26.2568359375 716.092773438 38.5048828125 727.177734375 c 0
 49.474609375 737.10546875 69.486328125 738.940429688 166.783203125 738.940429688 c 0
 299.796875 738.940429688 307.53125 736.596679688 363.2734375 679.396484375 c 0
 402.731445312 638.90625 423.240234375 601.702148438 428.750976562 560.62109375 c 0
 433.41015625 525.88671875 411.625976562 443.541992188 390.201171875 414.90234375 c 0
 372.77734375 391.610351562 374.900390625 386.473632812 380.856445312 376.484375 c 0
 383.434570312 372.16015625 384.836914062 369.615234375 386.900390625 365.473632812 c 0
 389.390625 360.475585938 393.900390625 353.473632812 398.0078125 346.134765625 c 0
 401.82421875 339.31640625 414.725585938 323.639648438 422.8828125 308.420898438 c 0
 443.41015625 270.122070312 443.602539062 156.46875 423.1953125 124.1875 c 0
 415.78125 112.4609375 404.407226562 93.4287109375 397.91796875 81.8935546875 c 0
 380.8359375 51.5263671875 374.162109375 46.25 321.95703125 21.8427734375 c 0
 276.283203125 0.48828125 271.959960938 -0.1591796875 180.380859375 0.640625 c 0
 128.42578125 1.0927734375 79.654296875 3.056640625 71.9990234375 5 c 1
 72 5 l 1
  Spiro
    72 5 v
    62.7683 8.23863 o
    51.8954 13.3525 o
    41.7949 19.207 o
    30.3416 39.3686 o
    26.1102 131.198 o
    25.5088 372.647 o
    26.1547 605.52 o
    29.6977 702.173 o
    38.5049 727.178 o
    54.9916 734.634 o
    92.7739 738.099 o
    166.783 738.94 o
    264.386 736.222 o
    317.159 720.23 o
    363.273 679.396 o
    396.534 639.775 o
    418.11 600.636 o
    428.751 560.621 o
    425.598 513.824 o
    410.734 457.638 o
    390.201 414.902 o
    378.717 396.824 o
    376.762 385.699 o
    380.856 376.484 o
    383.109 372.632 o
    384.991 369.205 o
    386.9 365.474 o
    389.971 359.876 o
    393.86 353.293 o
    398.008 346.135 o
    404.332 336.72 o
    413.666 323.433 o
    422.883 308.421 o
    436.615 250.88 o
    436.739 177.719 o
    423.195 124.188 o
    414.798 110.589 o
    405.699 95.3646 o
    397.918 81.8936 o
    382.25 58.2707 o
    361.029 41.4943 o
    321.957 21.8428 o
    285.336 6.68699 o
    247.59 1.03426 o
    180.381 0.640625 o
    130.938 1.53864 o
    91.9239 3.10834 o
    71.999 5 v
    0 0 z
  EndSpiro
284.913085938 107.815429688 m 0
 292.73046875 114.446289062 307.041992188 126.092773438 316.716796875 133.6953125 c 0
 332.114257812 145.795898438 334.647460938 154.244140625 337.03125 201.45703125 c 0
 339.754882812 255.39453125 339.754882812 255.39453125 299.579101562 294.618164062 c 0
 259.40234375 333.842773438 259.40234375 333.842773438 188.651367188 333.842773438 c 0
 117.899414062 333.842773438 117.899414062 333.842773438 117.899414062 226.021484375 c 0
 117.899414062 88.26171875 116.750976562 89.978515625 206.629882812 93.353515625 c 0
 253.91796875 95.12890625 274.421875 98.9169921875 284.913085938 107.815429688 c 0
  Spiro
    284.913 107.815 o
    294.472 115.774 o
    305.92 125.09 o
    316.717 133.695 o
    328.289 146.135 o
    334.131 165.621 o
    337.031 201.457 o
    337.463 240.837 o
    327.733 265.042 o
    299.579 294.618 o
    268.712 322.203 o
    239.891 332.394 o
    188.651 333.843 o
    138.894 329.861 o
    120.512 301.848 o
    117.899 226.021 o
    120.921 129.71 o
    143.719 95.6226 o
    206.63 93.3535 o
    245.58 95.9111 o
    270.482 100.512 o
    0 0 z
  EndSpiro
262.282 441.301 m 0
 266.22171924 443.13557369 269.779636296 445.686282634 273.254 448.297 c 0
 277.934659298 451.814155818 282.610494525 455.340832457 287.156 459.031 c 0
 291.894696162 462.878005106 296.422208943 466.977461291 300.903 471.122 c 0
 306.461955562 476.263794431 312.060812384 481.508507068 316.112 487.906 c 0
 319.471716068 493.211545393 321.588771422 499.251241037 322.631 505.444 c 0
 324.173173829 514.607355335 323.824881871 523.96944762 324.001 533.26 c 0
 324.186343554 543.037210394 324.759891309 552.960755542 322.479 562.47 c 0
 320.791722043 569.504416107 317.475405684 576.092570333 313.173 581.908 c 0
 306.378176333 591.09235453 297.597267523 598.584661503 289.08 606.199 c 0
 278.172279094 615.95037613 267.573708343 626.242946152 255.094 633.88 c 0
 245.087944558 640.003282861 233.683187125 643.822624189 221.993 644.8 c 0
 213.525845834 645.507909256 205.012464245 644.933838926 196.521476427 644.62245321 c 0
 188.030488609 644.311067494 179.526478953 644.507314065 171.053 645.135 c 0
 165.036747415 645.580663127 158.991968047 646.140095268 152.982058383 645.615789422 c 0
 146.972148719 645.091483576 140.973829813 643.312491298 136.098 639.76 c 0
 131.81115481 636.636638271 128.524069896 632.242446178 126.407959268 627.378856355 c 0
 124.291848639 622.515266531 123.270816456 617.241196255 122.7 611.968 c 0
 121.374803404 599.725848168 121.66602334 587.368223232 121.032508312 575.070862287 c 0
 120.398993283 562.773501342 119.480962893 550.481667659 119.485 538.168 c 0
 119.489029874 525.876395615 120.363375288 513.601023033 120.554227628 501.310899764 c 0
 120.745079967 489.020776494 119.519361844 476.700299818 120.489 464.447 c 0
 120.941329127 458.730925018 122.093485434 452.942700468 125 448 c 0
 127.733961155 443.350736846 131.963694395 439.665252276 136.767 437.212 c 0
 143.604648986 433.719722116 151.444129745 432.694022452 159.121110936 432.578228405 c 0
 166.798092127 432.462434359 174.465504011 433.082334606 182.139 433.341 c 0
 193.68833524 433.730315815 205.265091907 433.493781831 216.783 434.43 c 0
 226.414712649 435.212901227 236.022185803 436.268592369 245.631 437.295 c 0
 251.335572699 437.904358952 257.081201229 438.879190726 262.282 441.301 c 0
  Spiro
    262.282 441.301 o
    273.254 448.297 o
    287.156 459.031 o
    300.903 471.122 o
    316.112 487.906 o
    322.631 505.444 o
    324.001 533.26 o
    322.479 562.47 o
    313.173 581.908 o
    289.08 606.199 o
    255.094 633.88 o
    221.993 644.8 o
    171.053 645.135 o
    136.098 639.76 o
    122.7 611.968 o
    119.485 538.168 o
    120.489 464.447 o
    125 448 c
    136.767 437.212 o
    182.139 433.341 o
    216.783 434.43 o
    245.631 437.295 o
    0 0 z
  EndSpiro
EndSplineSet
Validated: 33
EndChar

StartChar: c
Encoding: 64 99 50
Width: 500
Flags: W
HStem: 640.565 99.8896<171.582 298.346>
VStem: 19.2725 99.5723<172.988 592.012>
LayerCount: 6
Fore
SplineSet
175.063476562 8.05078125 m 4
 128.209960938 19.927734375 53.921875 95.091796875 32.771484375 152.020507812 c 4
 17.724609375 192.521484375 17.1416015625 202.833984375 19.2724609375 390.784179688 c 4
 21.4990234375 587.21875 21.4990234375 587.21875 41.6318359375 621.0078125 c 4
 84.7578125 693.391601562 165.177734375 740.455078125 245.739257812 740.455078125 c 4
 289.081054688 740.455078125 300.123046875 737.483398438 336.909179688 715.923828125 c 4
 387.762695312 686.119140625 438.362304688 633.221679688 438.362304688 609.864257812 c 4
 438.362304688 584.330078125 416.954101562 569.400390625 380.341796875 569.400390625 c 4
 352.939453125 569.400390625 346.084960938 572.516601562 332.20703125 591.287109375 c 4
 315.4375 613.96875 263.37890625 640.752929688 236.426757812 640.565429688 c 4
 204.5703125 640.350585938 163.506835938 620.146484375 142.581054688 594.407226562 c 4
 121.19921875 568.10546875 121.19921875 568.10546875 118.844726562 396.990234375 c 4
 116.6328125 236.283203125 117.396484375 223.766601562 131.392578125 191.232421875 c 4
 139.588867188 172.1796875 153.505859375 148.810546875 162.319335938 139.299804688 c 4
 182.654296875 117.358398438 226.240234375 99 258 99 c 4
 282.421875 99 338.521484375 132.591796875 345.708007812 142.2578125 c 4
 351.028320312 149.4140625 385.39453125 170.272460938 405.771484375 170.272460938 c 4
 428.041015625 170.272460938 448.760742188 141.512695312 443.0078125 118.587890625 c 4
 436.876953125 94.1640625 375.229492188 34.5009765625 340.0390625 18.9345703125 c 4
 302.444335938 2.3046875 219.354492188 -3.1767578125 175.063476562 8.05078125 c 4
EndSplineSet
Validated: 33
EndChar

StartChar: d
Encoding: 65 100 51
Width: 500
Flags: W
HStem: 0 95<125.029 305.681> 632.86 104.423<126.018 295.319>
VStem: 26 100<94.9969 632.803> 346.241 98.2012<135.935 576.825>
LayerCount: 6
Fore
SplineSet
77 0 m 0
 58 0 31.654296875 -0.24609375 28 0 c 0
 27.4033203125 0.0400390625 28.0226974995 110.325625123 27 366 c 0
 26 616 26.0764086354 674.974609826 26 715 c 0
 25.9920134512 719.1836205 25.9949128692 727.883102938 25.997569767 732.99999987 c 0
 25.9988113642 735.391181476 26 737 26 737 c 7
 49.2802734375 737 113.233192165 737.10873912 158.110351562 737.283203125 c 4
 234.977539062 737.58203125 258.534179688 734.993164062 299.072265625 721.798828125 c 0
 357.341796875 702.83203125 399.538085938 668.296875 424.16015625 619.422851562 c 0
 441.315429688 585.368164062 442.932953098 581.286489642 444.442382812 369.5234375 c 0
 446 151 448.5632972 191.678507681 440 154 c 0
 435 132 428.96484375 126.60546875 401 83 c 0
 396.956054688 76.6953125 349.787439132 27.2382752008 325.137695312 10.8095703125 c 0
 310.737304688 1.2119140625 289.699242012 -0.726882319365 208 0 c 0
 153.228515625 0.4873046875 93.8910003818 0 77 0 c 0
279.375 101.90625 m 1
 345.055664062 135.166015625 346.241210938 148.174804688 346.241210938 362.551757812 c 0
 346.241210938 539.677734375 346.241210938 539.677734375 327.821289062 571.108398438 c 0
 317.690429688 588.39453125 300.918130898 608.554916127 290.549804688 615.908203125 c 0
 264.647460938 634.278320312 201 633 172.30859375 632.860351562 c 0
 150.982890984 632.756553894 126 633 126 632 c 3
 126 609.84765625 126.163085938 539.381047853 126.163085938 367.740234375 c 0
 126.163085938 212.737794392 125 134.4765625 125 108 c 1
 125 101.100923375 125 97.1474609375 125 95 c 3
 125 94.5126953125 134.638713791 95 149.381835938 95 c 3
 204.522840741 95 265.308333801 89.350402385 279.375 101.90625 c 1
EndSplineSet
Validated: 33
EndChar

StartChar: e
Encoding: 66 101 52
Width: 500
Flags: W
HStem: 1.15137 91<122.808 443.358> 328.151 103<120.808 381.615> 646.151 98.499<119.902 438.178>
VStem: 27.9492 92.8584<109.444 328.151 431.151 622.423>
LayerCount: 6
Fore
SplineSet
65.8076171875 1.1513671875 m 2
 11.748046875 1.1513671875 25.79296875 -4.943359375 27.94921875 367.135742188 c 0
 29.9423828125 711.04296875 23.8076171875 714.151367188 38.8076171875 733.151367188 c 0
 51.28515625 748.95703125 77.1298828125 744.650390625 241.111328125 744.650390625 c 0
 440.16015625 744.650390625 442.27734375 744.10546875 442.27734375 692.958007812 c 0
 442.27734375 650.256835938 434.81640625 648.098632812 277.997070312 645.360351562 c 0
 204.291015625 644.073242188 133.807617188 646.151367188 118.807617188 646.151367188 c 1
 118.807617188 631.151367188 118.798828125 617.151367188 118.807617188 616.151367188 c 0
 119.641601562 519.100585938 119.807617188 465.151367188 119.807617188 431.151367188 c 1
 129.807617188 431.151367188 132.327148438 431.151367188 133.807617188 431.151367188 c 0
 142.807617188 431.151367188 172.19140625 429.030273438 253.37109375 429.030273438 c 0
 382.908203125 429.030273438 384.892578125 428.2734375 384.892578125 378.817382812 c 0
 384.892578125 329.090820312 383.567382812 328.60546875 247.706054688 328.60546875 c 0
 181.879882812 328.60546875 168.807617188 328.060546875 120.807617188 328.151367188 c 1
 120.807617188 300.060546875 119.682617188 268.634765625 120.807617188 217.151367188 c 0
 122.395507812 144.4765625 122.807617188 116.151367188 122.807617188 93.1513671875 c 1
 191.807617188 92.1513671875 190.807617188 92.1513671875 194.807617188 92.1513671875 c 0
 201.806640625 92.1513671875 214.870117188 92.0625 292 92 c 0
 391.377929688 91.919921875 428.8359375 93.6123046875 437.807617188 84.1513671875 c 0
 460.545898438 60.173828125 450.251953125 28.9921875 438.284179688 14.58203125 c 0
 423.807617188 -2.8486328125 426.807617188 1.1513671875 259.807617188 1.1513671875 c 0
 170.78515625 1.1513671875 65.9560546875 -0.283203125 65.8076171875 1.1513671875 c 2
EndSplineSet
Validated: 33
EndChar

StartChar: f
Encoding: 67 102 53
Width: 500
Flags: W
HStem: 356 93<133.129 387.426> 634.538 105.227<134.897 439.083>
VStem: 38.1396 93.8604<7.68473 356 449 633>
LayerCount: 6
Fore
SplineSet
61 4 m 2
 61 4 43.1403256267 7.82709007619 38.1396484375 24.091796875 c 0
 32.7755642671 41.5384851881 34.9071037968 686.000002264 39.8173828125 704.623046875 c 0
 43.2427619361 717.614363259 52.4423828125 728.734375 68 734 c 0
 93.3095703125 742.56640625 141.513567481 739.764648438 242.155273438 739.764648438 c 0
 370.424804688 739.764648438 399.994330531 740.735769169 419 731 c 0
 431.509765625 724.591796875 451 717 451 685 c 0
 451 664.974609375 453 667 440 650 c 0
 426.349609375 632.149414062 420.207994758 636.573159072 280.950195312 634.538085938 c 0
 192.541787323 633.246111078 133 633 133 633 c 3
 133 612.974609375 133 601.92578125 133 568 c 0
 133 522.01171875 133 460.81640625 133 449 c 0
 133 449 149 449 150 449 c 0
 158 449 183.370117188 448.37890625 260.836914062 448.37890625 c 0
 352.981445312 448.37890625 374.581054688 446.41796875 383.787109375 437.2109375 c 0
 398.057617188 422.939453125 398.107421875 392.079101562 383.89453125 371.783203125 c 0
 373.258789062 356.598632812 368.508789062 355.98828125 260.944335938 355.98828125 c 0
 183.396484375 355.98828125 171 356 154 356 c 0
 143.487304688 356 132 356.142578125 132 356 c 3
 132 340.169921875 132 278.545062619 132 184 c 0
 132 38.5439453125 131.344726562 26.3447265625 118 13 c 0
 102.493164062 -2.5068359375 61 4 61 4 c 2
EndSplineSet
Validated: 33
EndChar

StartChar: g
Encoding: 68 103 54
Width: 500
Flags: W
HStem: 315.148 93.3818<246.674 353.985> 635.443 99.2988<163.487 306.113>
VStem: 25.252 100.007<158.844 587.054> 354 90.7852<140.382 314.113>
LayerCount: 6
Fore
SplineSet
190 9 m 0
 144 22 137 21 100 51 c 0
 81.8489517047 65.7170661854 60.3740178858 88.5072392204 47 119 c 0
 22 176 25 162 25.251953125 377.059570312 c 0
 25.3953321744 499.443592197 22.8046875 572.8203125 37 602 c 0
 55 639 80.3916000405 693.589290905 102.619140625 707 c 0
 154 738 158 734 269.279296875 734.7421875 c 0
 299.16611955 734.941520411 299 734 330 724.2109375 c 0
 341.85001674 720.468984129 356 709 371 695 c 0
 380.032226562 686.569335938 398.99974836 670.999823847 406 661 c 0
 418.762695313 642.768554688 440.846733142 615.026350222 434.434570312 594.823242188 c 0
 427.83984375 574.044921875 398.029296875 557.305664062 377.014648438 562.580078125 c 0
 367.120117188 565.063476562 342.604492188 581.858398438 322.536132812 599.901367188 c 0
 288.956054688 630.092773438 282.569329151 632.924696443 242.397460938 635.443359375 c 0
 205.872070312 637.733398438 206 638 182 630 c 0
 170.133826535 626.044608845 165.560546875 618.081054688 164 616 c 0
 155 604 147.824204217 590.986334149 139.056640625 569.833007812 c 0
 123.807617188 533.041992188 123.208984375 523.815429688 125.258789062 357.278320312 c 0
 127.401367188 183.184570312 127.401367188 183.184570312 151.37109375 152.9375 c 0
 180.328125 116.3984375 216.540156095 99.4637524984 256.546875 103.754882812 c 0
 293.092773438 107.674804688 330 130 345 156 c 0
 350.555664062 165.630859375 352.293911513 177.045904473 353 181 c 0
 358 209 354.154475678 263.295315466 354 288 c 0
 353.956623538 294.937026128 354.020989949 314.000000341 354 314 c 3
 345.788085937 314 322.817863455 313.919420293 302.5234375 315.1484375 c 0
 253.81303403 318.098307783 240.282226562 329.495117188 240 361 c 0
 239.66796875 398.10546875 260.948242188 408.530273438 351.813476562 408.530273438 c 0
 433.174804688 408.530273438 439.61328125 411.522460938 440 397 c 0
 440.243164062 387.86328125 444.724331059 323.394524964 444.78515625 258.580078125 c 0
 444.893554688 143.072265625 444.510742188 140.170898438 426.051757812 112.32421875 c 0
 394.4140625 64.5947265625 371.624023438 43.5732421875 332.430664062 25.9697265625 c 0
 289.168945312 6.5380859375 232.636406909 -3.04941934372 190 9 c 0
EndSplineSet
Validated: 33
EndChar

StartChar: h
Encoding: 69 104 55
Width: 500
Flags: W
VStem: 28.2832 92.9404<110.923 342.943 449.436 627.186> 350 92.9414<110.923 342.943 449.436 627.186>
LayerCount: 6
Fore
SplineSet
44.1728515625 8.421875 m 0
 28.283203125 19.55078125 28.283203125 19.55078125 28.283203125 369.0546875 c 0
 28.283203125 718.55859375 28.283203125 718.55859375 44.1728515625 729.6875 c 0
 64.369140625 743.833984375 85.1376953125 743.833984375 105.334960938 729.6875 c 0
 120.766601562 718.877929688 121.223632812 714.805664062 121.223632812 588.131835938 c 0
 121.223632812 496.221679688 123.758789062 455.171875 129.802734375 449.126953125 c 0
 141.736328125 437.192382812 329.487304688 437.192382812 341.420898438 449.126953125 c 0
 347.466796875 455.171875 350 496.221679688 350 588.131835938 c 0
 350 714.805664062 350.458007812 718.877929688 365.889648438 729.6875 c 0
 386.086914062 743.833984375 406.854492188 743.833984375 427.051757812 729.6875 c 0
 442.94140625 718.55859375 442.94140625 718.55859375 442.94140625 369.0546875 c 0
 442.94140625 19.55078125 442.94140625 19.55078125 427.051757812 8.421875 c 0
 418.3125 2.30078125 404.55078125 -2.7080078125 396.470703125 -2.7080078125 c 0
 388.390625 -2.7080078125 374.62890625 2.30078125 365.889648438 8.421875 c 0
 350.298828125 19.3427734375 350 22.4677734375 350 175 c 0
 350 286.372070312 347.568359375 332.880859375 341.420898438 339.02734375 c 0
 329.487304688 350.961914062 141.737304688 350.961914062 129.802734375 339.02734375 c 0
 123.65625 332.880859375 121.223632812 286.372070312 121.223632812 175 c 0
 121.223632812 22.4677734375 120.924804688 19.3427734375 105.334960938 8.421875 c 0
 96.595703125 2.30078125 82.833984375 -2.7080078125 74.75390625 -2.7080078125 c 0
 66.6728515625 -2.7080078125 52.912109375 2.30078125 44.1728515625 8.421875 c 0
EndSplineSet
Validated: 33
EndChar

StartChar: i
Encoding: 70 105 56
Width: 500
Flags: W
HStem: 0 107.379<99.4354 181 289 370.552> 642 109.652<99.1157 182 289 370.884>
VStem: 181 108<110 642>
LayerCount: 6
Fore
SplineSet
101 15 m 0
 80.0179360232 29.7217222494 79.9505963685 67.7675605808 99.11328125 91.341796875 c 0
 105.730013194 99.4818045674 128.80076113 105.410346678 147.43359375 107.37890625 c 0
 159.179385484 108.619849654 166 110 181 110 c 1
 181.134765625 139 181.310546875 202.792898645 181.310546875 375.826171875 c 0
 181.310546875 555.50740002 181.265625 615 182 642 c 1
 169 642 158.32909238 643.122215003 147.43359375 644.2734375 c 0
 128.80078125 646.2421875 107.056640625 653.458007812 99.11328125 660.309570312 c 0
 78.88671875 677.754882812 80.3466796875 712.186523438 102.240234375 734.081054688 c 0
 119.440429688 751.28125 122.24609375 751.65234375 235 751.65234375 c 0
 347.75390625 751.65234375 350.559570312 751.280273438 367.758789062 734.081054688 c 0
 389.653320312 712.186523438 391.11328125 677.754882812 370.88671875 660.309570312 c 0
 362.942382812 653.458007812 341.198273089 646.241895037 322.56640625 644.2734375 c 0
 310.603604865 643.009567017 299 642 289 642 c 1
 289 614 288.689453125 547.16274742 288.689453125 375.826171875 c 0
 288.689453125 200.072850003 289 134 289 108 c 1
 302 108 311.168530875 108.583273185 322.56640625 107.37890625 c 0
 341.198242188 105.41015625 363.988536121 99.2456857028 370.88671875 91.341796875 c 0
 392.326905359 66.7757828222 390.951171875 26.6953125 368 11 c 0
 347.921875 -2.73046875 347.75390625 0 235 0 c 0
 122.24609375 0 120.911751525 1.02924498849 101 15 c 0
EndSplineSet
Validated: 33
EndChar

StartChar: j
Encoding: 71 106 57
Width: 500
Flags: W
HStem: 725.176 20G<363.36 396.641> 725.176 20G<363.36 396.641>
VStem: 342.445 103.555<183.096 706.958>
LayerCount: 6
Fore
SplineSet
172.686523438 5.17578125 m 0xa0
 118.090820312 18.123046875 43.1962890625 89.82421875 24.763671875 146.791992188 c 0
 5.2001953125 207.256835938 22.5712890625 262.420898438 61.1748046875 262.420898438 c 0
 83.724609375 262.420898438 100.078125 242.763671875 120.500976562 191.109375 c 0
 144.572265625 130.23046875 167.512695312 112.444335938 221.96484375 112.444335938 c 0
 257.680664062 112.444335938 268.748046875 115.650390625 289.758789062 132.083984375 c 0
 339.15625 170.720703125 338.486328125 166.655273438 342.4453125 451.676757812 c 0
 346.49609375 743.33203125 341.034179688 745.17578125 385.686523438 745.17578125 c 0
 407.594726562 745.17578125 433.686523438 751.17578125 437.686523438 727.17578125 c 0
 442.645507812 697.421875 446 680.211914062 446 437.393554688 c 0
 446 134.825195312 445.625976562 132.791992188 377.739257812 65.6123046875 c 0
 342.962890625 31.19921875 330.036132812 23.4765625 288 12 c 0
 235.825195312 -2.244140625 210.338867188 -3.7529296875 172.686523438 5.17578125 c 0xa0
EndSplineSet
Validated: 33
EndChar

StartChar: k
Encoding: 72 107 58
Width: 500
Flags: W
HStem: -1.93457 21G<390.603 405.402>
VStem: 19.8848 99.166<22.3571 279.442 431.103 630.647> 25 81.6396<5.52822 271.114>
LayerCount: 6
Fore
SplineSet
44.59765625 6.37109375 m 0xa0
 36.796875 10.8876953125 28.7958984375 17.7197265625 25 22 c 0xa0
 20.2900390625 27.310546875 19.9447205442 180.926757937 19.884765625 365.418945312 c 0
 19.7666015625 729.03125 7 745 55.0419921875 745.432617188 c 0
 69.837890625 745.565429688 90.234375 747.588867188 98 743 c 0
 120 730 118 672 118.544921875 587.262695312 c 0
 119.104615561 500.22832114 118.739257812 432.161132812 123 431 c 0
 126.900390625 429.938476562 146.365177534 452.549843682 158.06640625 469.606445312 c 0
 212.116210938 548.393554688 325.097200237 698.862671907 343.594726562 715.245117188 c 0
 387.924825512 754.506335559 422.886737651 753.591585343 437.827148438 712.338867188 c 0
 444.159584773 694.854059367 442.5390625 685.572265625 429.83203125 660.127929688 c 0
 421.346679688 643.137695312 410.585798952 631.746634817 408.750976562 629.236328125 c 0
 402 620 401 619 391.345703125 606.188476562 c 0
 382.781775025 594.82390315 364.387695312 572.2421875 348 552 c 0
 332.233398438 532.525390625 315.036514953 512.054772429 313 509 c 0
 309 503 300.768616458 492.432784583 291 480 c 0
 280 466 266.109368573 449.915787563 251.981445312 431.680664062 c 0
 238.860442051 414.745187382 234 407 225 394 c 0
 217.204101562 382.739257812 216.019821508 376.97613482 227 359 c 0
 231.409420139 351.781143681 237.737900204 341.08468154 240 338 c 0
 262 308 255.013089315 317.859567338 286.048828125 278.192382812 c 0
 336.8515625 213.260742188 417.553710938 101.0859375 426.8046875 82.5419921875 c 0
 433.068359375 69.9853515625 438.193359375 52.3486328125 438.193359375 43.3486328125 c 0
 438.193359375 25.759765625 413.305664062 -1.9345703125 397.499023438 -1.9345703125 c 0
 383.70703125 -1.9345703125 352 18 346 26 c 0
 342.36484375 30.846875 262 144 254.020507812 154.084960938 c 0
 251.116028967 157.75581555 178.32421875 252.495117188 158.048828125 281.313476562 c 0
 155.28515625 285.241210938 145.747070312 283.04296875 135 276 c 0
 116.665039062 263.987304688 119.061552106 260.135742185 119.05078125 155.694335938 c 0xc0
 119.041992188 70.4697265625 116.7578125 46.6865234375 106.639648438 26.4326171875 c 0
 93.1064453125 -0.658203125 69.7720911833 -8.20474019671 44.59765625 6.37109375 c 0xa0
EndSplineSet
Validated: 33
EndChar

StartChar: l
Encoding: 73 108 59
Width: 500
Flags: W
HStem: 0 106.604<130.31 438.762>
VStem: 27.3281 97.9277<144.264 619.435>
LayerCount: 6
Fore
SplineSet
46.08984375 13.5830078125 m 1
 29.3115234375 27.1640625 29.3115234375 27.1640625 27.328125 359.154296875 c 0
 25.3955078125 682.723632812 21.7197265625 674.916015625 36.0927734375 704.606445312 c 0
 59.9228515625 753.833007812 83.0234375 753.97265625 106.71484375 705.032226562 c 0
 120.62109375 676.305664062 125.255859375 679.59765625 125.255859375 407.828125 c 0
 125.255859375 196.28515625 123.651367188 115.349609375 130 109 c 0
 136.013671875 102.987304688 180.768554688 106.604492188 272.72265625 106.604492188 c 0
 431.641601562 106.604492188 445.069335938 102.452148438 445.069335938 53.302734375 c 0
 445.069335938 2.3427734375 435.750976562 0 233 0 c 0
 76.0986328125 0 61.5625 1.056640625 46.08984375 13.58203125 c 1
 46.08984375 13.5830078125 l 1
EndSplineSet
Validated: 33
EndChar

StartChar: m
Encoding: 74 109 60
Width: 500
Flags: W
HStem: 728.188 20G<65.5225 73.5581 390.712 398.748>
VStem: 23.0244 91.6533<133.494 488.444> 351.393 91.6543<133.494 488.444>
LayerCount: 6
Fore
SplineSet
38.837890625 16.1884765625 m 1
 21.0361328125 33.990234375 21.0361328125 33.990234375 23.0244140625 388.620117188 c 0
 25.0126953125 743.250976562 24.1123046875 711.176757812 41.5029296875 729.682617188 c 0
 51.0673828125 739.860351562 63.0078125 748.188476562 68.037109375 748.188476562 c 0
 79.0791015625 748.188476562 106.233398438 746.444335938 132.977539062 697.771484375 c 0
 143.81640625 678.044921875 161.080078125 648.993164062 171.340820312 633.211914062 c 0
 181.6015625 617.431640625 197.708007812 589.186523438 207.1328125 570.447265625 c 0
 216.557617188 551.70703125 228.213867188 536.374023438 233.03515625 536.374023438 c 0
 237.857421875 536.374023438 249.512695312 551.70703125 258.938476562 570.447265625 c 0
 268.36328125 589.186523438 284.469726562 617.431640625 294.73046875 633.211914062 c 0
 304.991210938 648.993164062 322.254882812 678.044921875 333.09375 697.771484375 c 0
 359.837890625 746.444335938 385.19140625 748.188476562 396.232421875 748.188476562 c 0
 401.262695312 748.188476562 413.203125 739.860351562 422.767578125 729.682617188 c 0
 440.157226562 711.176757812 441.059570312 743.250976562 443.046875 388.620117188 c 0
 445.034179688 33.990234375 445.034179688 33.990234375 427.232421875 16.1884765625 c 0
 404.833007812 -6.2119140625 391.25 -6.2568359375 369 16 c 0
 351.392578125 33.6064453125 351.392578125 33.6064453125 351.392578125 271.526367188 c 0
 351.392578125 537.955078125 352.823242188 532.702148438 304.279296875 444.383789062 c 0
 276.80859375 394.408203125 249.983398438 364.225585938 233.03515625 364.225585938 c 0
 216.087890625 364.225585938 189.262695312 394.408203125 161.791992188 444.383789062 c 0
 113.24609375 532.702148438 114.677734375 537.955078125 114.677734375 271.526367188 c 0
 114.677734375 33.6064453125 114.677734375 33.6064453125 97.0712890625 16 c 0
 74.8212890625 -6.25 61.23828125 -6.2041015625 38.837890625 16.1884765625 c 1
EndSplineSet
Validated: 33
EndChar

StartChar: n
Encoding: 75 110 61
Width: 500
Flags: W
VStem: 22.6191 92.3379<105.753 456.436> 342.634 92.4932<295.236 649.597>
LayerCount: 6
Fore
SplineSet
36 14 m 0
 18.5361328125 31.4638671875 22.4760105815 31.4482420047 22.619140625 364.392578125 c 0
 22.75390625 677.879882812 17.3798828125 677.389648438 30.302734375 705.860351562 c 0
 52.587890625 754.956054688 86.9501953125 764.612304688 123.723632812 690.22265625 c 0
 133.395507812 670.657226562 159.834960938 619.4296875 182.477539062 576.384765625 c 0
 205.12109375 533.33984375 242.503394086 459.700423235 265.549804688 412.7421875 c 0
 319.4609375 302.895507812 323.418945312 291 335 291 c 0
 343.151367188 291 339.70341288 343.449213926 342.633789062 518.32421875 c 0
 346.19140625 730.630859375 341.75 706.993164062 356.790039062 722.506835938 c 0
 376.301757812 742.6328125 388.702148438 756.295898438 421.790039062 725.506835938 c 0
 439.87109375 708.682617188 435.126953125 722.88671875 435.126953125 391.864257812 c 0
 435.126953125 105.588867188 433.594726562 57.0126953125 423.790039062 32.5068359375 c 0
 402.41015625 -20.92578125 371.643554688 -11.134765625 335.657226562 60.5546875 c 0
 324.853515625 82.0771484375 299.591796875 132.428710938 279.51953125 172.446289062 c 0
 259.447265625 212.463867188 241.285542116 249.749759653 243.025390625 248.805664062 c 0
 244.792210198 247.846933137 211.721183051 304.318531767 216 297 c 0
 230.474282817 272.243040337 185.6328125 361.520507812 175 385 c 0
 148.287623243 443.986560835 134.268554688 461 123 461 c 0
 114.84765625 461 117.887407432 410.885747012 114.95703125 236.010742188 c 0
 111.399414062 23.7041015625 115.796875 23.591796875 99 10 c 0
 76.80859375 -7.95703125 57.017578125 -7.017578125 36 14 c 0
EndSplineSet
Validated: 37
EndChar

StartChar: o
Encoding: 76 111 62
Width: 500
Flags: W
HStem: 625.022 123.979<144.403 324.015>
VStem: 23.5635 95.6416<147.141 600.974> 345.912 95.6416<148.62 604.124>
LayerCount: 6
Fore
SplineSet
146.466796875 11.2802734375 m 1
 106.403320312 23.8427734375 67.8427734375 59.421875 44.671875 105.206054688 c 0
 23.5634765625 146.915039062 23.5634765625 146.915039062 23.5634765625 387.790039062 c 0
 23.5634765625 628.666015625 25.2138671875 603.768554688 46.228515625 645.286132812 c 0
 83.634765625 719.186523438 137.673828125 749.001953125 234.208984375 749.001953125 c 0
 330.744140625 749.001953125 384.783203125 719.186523438 422.189453125 645.286132812 c 0
 443.204101562 603.768554688 441.553710938 628.666015625 441.553710938 387.790039062 c 0
 441.553710938 146.915039062 441.553710938 146.915039062 420.5390625 105.397460938 c 0
 396.575195312 58.0546875 356.366210938 22.31640625 313.208984375 10.001953125 c 0
 277.024414062 -0.3232421875 181.125976562 0.412109375 146.466796875 11.2783203125 c 1
 146.466796875 11.2802734375 l 1
325.244140625 148.797851562 m 0
 345.912109375 171.934570312 345.912109375 171.934570312 345.912109375 387.790039062 c 0
 345.912109375 603.646484375 347.5625 578.749023438 326.889648438 601.885742188 c 0
 306.216796875 625.022460938 306.216796875 625.022460938 234.208984375 625.022460938 c 0
 162.201171875 625.022460938 162.201171875 625.022460938 141.528320312 601.885742188 c 0
 120.85546875 578.749023438 119.205078125 603.646484375 119.205078125 388.633789062 c 0
 119.205078125 179.719726562 119.634765625 173.076171875 134.353515625 154.365234375 c 0
 156.20703125 126.583007812 171.955078125 122.140625 242 124 c 0
 302.84375 125.616210938 305.1484375 126.302734375 325.244140625 148.797851562 c 0
EndSplineSet
Validated: 33
EndChar

StartChar: p
Encoding: 77 112 63
Width: 500
Flags: W
HStem: -0.94043 21G<73.6567 79.8823> -0.94043 21G<73.6567 79.8823> 305 128.068<130.328 305.503> 726.06 20G<109.408 178.571> 726.06 20G<109.408 178.571>
VStem: 30.5225 92.4941<124.833 300.213 437.476 649.334>
LayerCount: 6
Fore
SplineSet
47.986328125 16.5234375 m 0xb4
 30.5224609375 33.9873046875 30.5224609375 33.9873046875 30.5224609375 382.606445312 c 0
 30.5224609375 623.638671875 27.2900390625 715.032226562 32.76953125 727.059570312 c 0
 42.3515625 748.08984375 70.0458984375 746.059570312 148.76953125 746.059570312 c 0
 208.372070312 746.059570312 297.647460938 755.5234375 338.540039062 734.377929688 c 0
 356.779296875 724.946289062 374.373046875 708.684570312 398.963867188 678.532226562 c 0
 441.881835938 625.908203125 455.640625 527.188476562 430.965820312 448.912109375 c 0
 414.705078125 397.327148438 361.564453125 343.1484375 305.512695312 321.008789062 c 0
 273.046875 308.185546875 250.860351562 305 194 305 c 0
 123.016601562 305 123.016601562 305 123.016601562 169.494140625 c 0
 123.016601562 35.109375 122.87109375 33.8427734375 105.552734375 16.5234375 c 0
 95.947265625 6.9189453125 82.9951171875 -0.9404296875 76.76953125 -0.9404296875 c 0
 70.5439453125 -0.9404296875 57.591796875 6.9189453125 47.986328125 16.5234375 c 0xb4
305.791992188 453.62890625 m 0
 356.346679688 490.250976562 363.418945312 559.388671875 321.495117188 607.137695312 c 0
 295.594726562 636.635742188 231.564453125 655.6484375 169.262695312 652.33984375 c 0
 126.573242188 650.072265625 126.573242188 650.072265625 124.609375 541.5703125 c 0
 122.645507812 433.068359375 122.645507812 433.068359375 200.02734375 433.068359375 c 0
 274.059570312 433.068359375 278.637695312 433.958007812 305.791992188 453.62890625 c 0
EndSplineSet
Validated: 33
EndChar

StartChar: q
Encoding: 78 113 64
Width: 500
Flags: W
HStem: 0 119.858<162.65 223.531> 625.057 121.943<156.958 309.52>
VStem: 29.584 82.4912<197.207 563.826> 355.964 84.7422<197.456 552.332>
LayerCount: 6
Fore
SplineSet
139.634765625 11.9462890625 m 1
 106.899414062 29.8193359375 74.3505859375 68.595703125 49.052734375 119.858398438 c 0
 29.583984375 159.311523438 29.583984375 159.311523438 29.583984375 388.852539062 c 0
 29.583984375 618.39453125 33.564453125 585.603515625 53.033203125 625.056640625 c 0
 99.9423828125 720.111328125 140.727539062 747 238 747 c 0
 335.272460938 747 376.057617188 720.111328125 422.965820312 625.056640625 c 0
 442.435546875 585.603515625 438.455078125 618.39453125 440.706054688 399.25 c 0
 442.553710938 219.372070312 441.040039062 174.544921875 432.264648438 149.069335938 c 0
 425.801757812 130.311523438 423.790039062 112.008789062 427.178710938 102.806640625 c 0
 430.262695312 94.431640625 434.90234375 73.8935546875 437.487304688 57.166015625 c 0
 443.731445312 16.7685546875 424.37109375 -5.5751953125 389.568359375 1.8623046875 c 0
 377.00390625 4.5478515625 362.688476562 9.9951171875 357.756835938 13.9677734375 c 0
 351.6015625 18.92578125 345.237304688 18.2412109375 337.458007812 11.7861328125 c 0
 330.047851562 5.63671875 298.388671875 1.556640625 246 0 c 0
 176.618164062 -2.060546875 162.35546875 -0.4609375 139.634765625 11.9462890625 c 1
216.920898438 148.572265625 m 0
 187.603515625 181.022460938 182.876953125 213.420898438 203.692382812 239.245117188 c 0
 225.900390625 266.796875 243.061523438 266.145507812 277.706054688 236.434570312 c 0
 335.629882812 186.759765625 332.213867188 187.991210938 344.756835938 212.24609375 c 0
 353.846679688 229.82421875 355.963867188 261.668945312 355.963867188 380.840820312 c 0
 355.963867188 526.68359375 353.6796875 504.98046875 332.779296875 557 c 0
 305.208007812 625.623046875 299.557617188 625.056640625 238 625.056640625 c 0
 176.442382812 625.056640625 158.5703125 625.623046875 131 557 c 0
 110.23828125 505.32421875 112.075195312 525.833007812 112.075195312 388.852539062 c 0
 112.075195312 251.873046875 112.368164062 249.212890625 133.129882812 197.537109375 c 0
 157.888671875 135.9140625 174.630859375 119.858398438 214.12890625 119.858398438 c 0
 242.862304688 119.858398438 242.862304688 119.858398438 216.920898438 148.572265625 c 0
EndSplineSet
Validated: 33
EndChar

StartChar: r
Encoding: 79 114 65
Width: 500
Flags: W
HStem: 296.313 128.777<110.004 175.97> 646 97.5869<111.111 269.493>
VStem: 16.166 92.834<121.896 296.479 424.488 632.986>
LayerCount: 6
Fore
SplineSet
33.6962890625 14.1162109375 m 0
 16.166015625 31.646484375 16.166015625 31.646484375 16.166015625 378.008789062 c 0
 16.166015625 617.326171875 13.66015625 705.459960938 19.1572265625 717.524414062 c 0
 28.775390625 738.634765625 49.56640625 743.586914062 128.587890625 743.586914062 c 0
 188.415039062 743.586914062 262.000976562 731.524414062 304.587890625 713.586914062 c 0
 346.090820312 696.10546875 335.541015625 703.8515625 370.204101562 681.838867188 c 0
 433.587890625 641.586914062 442.889648438 519.573242188 418.254882812 441.421875 c 0
 403.24609375 393.80859375 354.1640625 340.268554688 305.990234375 318.958984375 c 0
 271.924804688 303.890625 271.924804688 303.890625 286.875 284.145507812 c 0
 310.66015625 252.733398438 381.815429688 148.8046875 407.146484375 108.478515625 c 0
 423.375 82.64453125 430.336914062 62.8994140625 430.357421875 42.650390625 c 0
 430.392578125 9.1572265625 420.618164062 -3.517578125 395.03515625 -3.15625 c 0
 368.720703125 -2.7841796875 345.184570312 20.2998046875 297 93 c 0
 273.569335938 128.3515625 242.415039062 174.952148438 227.768554688 196.555664062 c 0
 213.12109375 218.159179688 192.459960938 249.391601562 181.854492188 265.961914062 c 0
 164.88671875 292.471679688 159.356513901 296.123562948 135.790039062 296.313476562 c 0
 123.59826841 296.411725589 109 299.46484375 109 287 c 3
 109 272.083007812 109.008789062 236.239515042 109.008789062 164.092773438 c 0
 109.008789062 32.9921875 108.831054688 31.4677734375 91.4794921875 14.1162109375 c 0
 81.837890625 4.4755859375 68.8369140625 -3.4130859375 62.587890625 -3.4130859375 c 0
 56.3388671875 -3.4130859375 43.3369140625 4.4755859375 33.6962890625 14.1162109375 c 0
292.473632812 445.728515625 m 0
 343.21875 482.48828125 350.318359375 551.887695312 308.236328125 599.81640625 c 0
 282.23828125 629.42578125 218.009207117 642.822473482 155.4296875 645.189453125 c 0
 134 646 126 646 111 646 c 3
 111.30859375 646 109.257202288 586.021122482 109.608398438 534.002929688 c 0
 110 476 110 412.916992188 110 425 c 3
 110 427.096679688 153 425 196.310546875 425.090820312 c 0
 270.622172846 425.246648525 265.217599454 425.984243592 292.473632812 445.728515625 c 0
EndSplineSet
Validated: 33
EndChar

StartChar: s
Encoding: 80 115 66
Width: 500
Flags: W
HStem: 638.161 109.839<181.697 322.141>
VStem: 350 87.7812<173.053 282.385>
LayerCount: 6
Fore
SplineSet
155.278320312 9.03125 m 0
 120.166015625 22.2568359375 70.0263671875 59.8486328125 47.1279296875 90.1162109375 c 0
 33.09765625 108.66015625 27.69140625 123.99609375 27.861328125 144.770507812 c 0
 27.983708592 159.851510123 32.5046404896 174.734769512 39.3012939404 185.999999342 c 0
 46.3889098079 197.747489821 55.9512635955 205.560546875 65.5810546875 205.560546875 c 0
 71.5546875 205.560546875 94.978515625 189.240234375 117.6328125 169.293945312 c 0
 137.32275003 151.958360154 152.230709567 139.513054824 165 131.046673531 c 0
 177.564577156 122.716022618 188.05850849 118.237740651 199 116.743604611 c 0
 213.118166753 114.815671684 227.981502878 117.856219552 249 124 c 0
 299.790039062 138.845703125 325.492340962 159.175712048 343.247070312 198.548828125 c 0
 348.645251718 210.519904615 349.91015625 219.326171875 350 229 c 0
 350.088867188 238.487304688 349.112140334 248.848435471 343.23526307 260 c 0
 338.511000181 268.964441503 331.721784355 279.086137594 322.646484375 291.361328125 c 0
 311.255313368 306.768374585 304.088524999 315.284438589 291 322.706236347 c 4
 278.075430791 330.035063605 259.37655515 336.296867959 225.133789062 347.073242188 c 0
 98.494140625 386.926757812 53.3056640625 422.915039062 41.5390625 493.287109375 c 0
 23.0166015625 604.068359375 64.9873046875 678.536132812 164.016601562 728.786132812 c 0
 179.477467755 736.631731482 190.62429023 741.428094961 203 744.273335959 c 0
 217.594269247 747.628635492 233.897516728 748.270565083 261 748 c 0
 287.287510817 747.737730487 302.085029622 747.302797767 314 744.257026842 c 0
 327.062795825 740.917842398 336.660913033 734.440561394 354.13671875 721.612304688 c 0
 373.473632812 707.41796875 399.19140625 689.220703125 413.298828125 673.604492188 c 0
 434.631835938 649.991210938 438.950195312 639.927734375 438.950195312 613.825195312 c 0
 438.950195312 548.538085938 395.629882812 543.9296875 335.950195312 602.868164062 c 0
 317.230329709 621.355208679 307.905864566 630.169893518 297 634.366340594 c 0
 287.778324741 637.914731639 277.42596606 638.161132812 259.306640625 638.161132812 c 0
 233.656484942 638.161132812 214.784719954 635.038028422 198 626.685293175 c 0
 183.435616597 619.437484516 170.442637096 608.252117155 155.956054688 591.752929688 c 0
 137.07421875 570.248046875 133.614257812 561.0546875 135.400390625 537.137695312 c 0
 138.260742188 498.842773438 157.2109375 485.573242188 238.622070312 464.858398438 c 0
 272.751895982 456.174459883 297.742183714 447.896075424 318 437.579542442 c 0
 342.24291145 425.233552528 359.708279676 409.968656528 377.94921875 387.596679688 c 0
 389.473865742 373.462341118 398.817610776 360.964094128 406.390592408 349 c 0
 428.995342258 313.288127439 435.823029783 282.335424274 437.78125 226.8359375 c 0
 439.918945312 166.24609375 438.358398438 155.893554688 422.275390625 124.00390625 c 0
 402.381835938 84.556640625 364.8515625 46.10546875 321.935546875 21.19921875 c 0
 287.049804688 0.953125 194.634765625 -5.7939453125 155.278320312 9.03125 c 0
EndSplineSet
Validated: 33
EndChar

StartChar: t
Encoding: 81 116 67
Width: 500
Flags: W
HStem: 0 21G<217.483 236.517> 0 21G<217.483 236.517> 626 121<39.26 175.162 275.67 418.74>
VStem: 175.794 99.2969<63.8042 593.426>
LayerCount: 6
Fore
SplineSet
189.83984375 12.62890625 m 0xb0
 170.182617188 36.6435546875 175.939726924 57.9912105575 175.793945312 328.23828125 c 0
 175.684130655 531.810520779 175 642 175 626 c 3
 175 625.205078125 144.576171875 625.954101562 105 627 c 0
 57.5927734375 628.252929688 54.3363361445 627.80304795 40.9716796875 644.79296875 c 0
 22.125 668.751953125 22.125 704.293945312 40.9716796875 728.252929688 c 0
 55.7177734375 747 55.7177734375 747 229 747 c 0
 402.282226562 747 402.282226562 747 417.028320312 728.252929688 c 0
 435.875 704.293945312 435.875 668.751953125 417.028320312 644.79296875 c 0
 403.48828125 627.580078125 398.004882812 626.045898438 350.018554688 626.045898438 c 0
 321.2734375 626.045898438 309.630859375 626 303 626 c 0
 297 626 287.662109375 626 276 626 c 3
 274.774414062 626 277.316332439 537.968095194 275.090820312 328.23828125 c 0
 272.223300669 58.0063854344 280.681640625 36.923828125 261.37109375 12.62890625 c 0
 241 -13 246.033203125 0 227 0 c 0
 207.966796875 0 210 -12 189.83984375 12.62890625 c 0xb0
EndSplineSet
Validated: 33
EndChar

StartChar: u
Encoding: 82 117 68
Width: 500
Flags: W
VStem: 23.0518 99.5898<183.839 699.037> 350.275 99.5898<183.839 699.037>
LayerCount: 6
Fore
SplineSet
187.974609375 6.9033203125 m 0
 147.6875 15.2197265625 115.256835938 35.8779296875 80.4990234375 75.3642578125 c 0
 21.7265625 142.133789062 23.0517578125 133.872070312 23.0517578125 433.5234375 c 0
 23.0517578125 686.797851562 22.03125 681.263671875 35.8974609375 709.909179688 c 0
 58.1513671875 755.879882812 79.0576171875 758.350585938 103.526367188 717.903320312 c 0
 116.404296875 696.614257812 119.333984375 695.940429688 122.641601562 450.034179688 c 0
 126.059570312 195.8984375 126.779296875 184.775390625 141.0546875 165.4921875 c 0
 184.529296875 106.766601562 288.387695312 106.766601562 331.862304688 165.4921875 c 0
 346.137695312 184.775390625 346.857421875 195.8984375 350.275390625 450.034179688 c 0
 353.583007812 695.940429688 353.096679688 696.614257812 365.974609375 717.903320312 c 0
 390.443359375 758.350585938 411.349609375 755.879882812 433.603515625 709.909179688 c 0
 447.470703125 681.263671875 449.865234375 686.797851562 449.865234375 433.5234375 c 0
 449.865234375 178.836914062 449.24609375 166.418945312 435.0703125 137.137695312 c 0
 414.171875 93.966796875 362.399414062 38.8095703125 327 22 c 0
 290.845703125 4.8330078125 230.005859375 -1.7734375 187.974609375 6.9033203125 c 0
EndSplineSet
Validated: 33
EndChar

StartChar: v
Encoding: 83 118 69
Width: 500
Flags: W
HStem: 0 21G<231.376 242.624> 0 21G<231.376 242.624>
VStem: 165.43 143.141<45.0516 211.883>
LayerCount: 6
Fore
SplineSet
205.8203125 10.73046875 m 0xa0
 194.170898438 22.380859375 165.4296875 94.06640625 165.4296875 111.474609375 c 0
 165.4296875 117.380859375 155.930664062 161.543945312 144.319335938 209.615234375 c 0
 132.708984375 257.685546875 116.42578125 326.001953125 108.133789062 361.4296875 c 0
 73.259765625 510.439453125 49.990234375 607.211914062 40.0439453125 644.600585938 c 0
 25.5712890625 699.001953125 24.328125 695.7890625 42.1865234375 724.684570312 c 0
 54.109375 743.975585938 61.298828125 748.720703125 76 747 c 0
 102.611328125 743.88671875 115.13671875 747.229492188 162.147460938 543.93359375 c 0
 197.736328125 390.032226562 227.248046875 289.859375 237 289.859375 c 0
 246.751953125 289.859375 276.263671875 390.032226562 311.852539062 543.93359375 c 0
 358.864257812 747.229492188 366.583984375 743.88671875 393.1953125 747 c 0
 407.896484375 748.721679688 415.0859375 743.975585938 427.008789062 724.684570312 c 0
 444.8671875 695.7890625 448.430664062 699.001953125 433.95703125 644.600585938 c 0
 424.009765625 607.211914062 400.740234375 510.439453125 365.866210938 361.4296875 c 0
 357.57421875 326.001953125 341.291015625 257.685546875 329.680664062 209.615234375 c 0
 318.0703125 161.543945312 308.5703125 117.380859375 308.5703125 111.474609375 c 0
 308.5703125 94.06640625 279.829101562 22.380859375 268.1796875 10.73046875 c 0
 262.27734375 4.8291015625 248.247070312 0 237 0 c 0
 225.752929688 0 211.72265625 4.8291015625 205.8203125 10.73046875 c 0xa0
EndSplineSet
Validated: 33
EndChar

StartChar: w
Encoding: 84 119 70
Width: 500
Flags: W
HStem: -0.444336 21G<69.9458 77.9546 394.051 402.06> -0.444336 21G<69.9458 77.9546 394.051 402.06>
VStem: 26.6924 91.3477<290.402 642.56> 353.966 91.3486<290.402 642.56>
LayerCount: 6
Fore
SplineSet
46.005859375 18 m 0xb0
 28.673828125 36.4443359375 28.6748046875 36.4443359375 26.6923828125 389.891601562 c 0
 24.7099609375 743.33984375 23.16015625 713.887695312 40.9033203125 731.630859375 c 0
 63.228515625 753.956054688 76.7666015625 754.001953125 98.9423828125 731.819335938 c 0
 116.490234375 714.271484375 118.040039062 743.723632812 118.040039062 506.596679688 c 0
 118.040039062 241.056640625 116.61328125 246.291992188 164.997070312 334.315429688 c 0
 192.375976562 384.125 219.112304688 414.20703125 236.002929688 414.20703125 c 0
 252.893554688 414.20703125 279.629882812 384.125 307.008789062 334.315429688 c 0
 355.392578125 246.291992188 353.965820312 241.056640625 353.965820312 506.596679688 c 0
 353.965820312 743.723632812 352.416015625 714.271484375 369.96484375 731.819335938 c 0
 392.140625 753.995117188 405.677734375 753.950195312 428.002929688 731.630859375 c 0
 445.74609375 713.887695312 447.296875 743.33984375 445.314453125 389.891601562 c 0
 443.33203125 36.4443359375 443.33203125 36.4443359375 426 18 c 0
 416.466796875 7.85546875 404.56640625 -0.4443359375 399.553710938 -0.4443359375 c 0
 388.548828125 -0.4443359375 362.3828125 33.2607421875 335.727539062 81.7724609375 c 0
 324.924804688 101.432617188 307.71875 130.387695312 297.4921875 146.116210938 c 0
 287.265625 161.84375 271.212890625 189.994140625 261.819335938 208.671875 c 0
 252.42578125 227.349609375 240.80859375 242.630859375 236.002929688 242.630859375 c 0
 231.197265625 242.630859375 219.580078125 227.349609375 210.186523438 208.671875 c 0
 200.79296875 189.994140625 184.740234375 161.84375 174.513671875 146.116210938 c 0
 164.287109375 130.387695312 147.081054688 101.432617188 136.278320312 81.7724609375 c 0
 109.623046875 33.2607421875 83.45703125 -0.4443359375 72.4521484375 -0.4443359375 c 0
 67.439453125 -0.4443359375 55.5390625 7.85546875 46.005859375 18 c 0xb0
EndSplineSet
Validated: 33
EndChar

StartChar: x
Encoding: 85 120 71
Width: 500
Flags: W
HStem: 727 20G<58.8379 85.1709 385.525 411.858> 727 20G<58.8379 85.1709 385.525 411.858>
VStem: 161.728 142.546<318.718 432.045>
LayerCount: 6
Fore
SplineSet
38 20 m 0xa0
 29.875 30.328125 23.23046875 47.166015625 23.234375 57.41796875 c 0
 23.2373046875 67.6689453125 51.2646484375 130.626953125 90.4609375 210.416992188 c 0
 129.657226562 290.20703125 161.727539062 364.440429688 161.727539062 375.380859375 c 0
 161.727539062 386.321289062 129.657226562 460.555664062 90.4609375 540.344726562 c 0
 51.263671875 620.134765625 21.5390625 680.55078125 21.5361328125 690.802734375 c 0
 21.529296875 717.903320312 46.98046875 747 70.6953125 747 c 0
 99.646484375 747 110.671875 740.686523438 169.352539062 612.471679688 c 0
 203.478515625 537.907226562 226.111328125 496.762695312 233 496.762695312 c 0
 239.889648438 496.762695312 262.522460938 537.907226562 296.6484375 612.471679688 c 0
 355.328125 740.686523438 371.049804688 747 400 747 c 0
 423.715820312 747 449.168945312 717.903320312 449.16015625 690.802734375 c 0
 449.157226562 680.55078125 414.737304688 620.133789062 375.540039062 540.344726562 c 0
 336.342773438 460.555664062 304.2734375 386.321289062 304.2734375 375.380859375 c 0
 304.2734375 364.440429688 336.34375 290.20703125 375.540039062 210.416992188 c 0
 414.736328125 130.626953125 450.85546875 67.6689453125 450.858398438 57.41796875 c 0
 450.865234375 30.3173828125 425.4140625 1.220703125 401.698242188 1.220703125 c 0
 372.748046875 1.220703125 355.328125 10.0751953125 296.6484375 138.290039062 c 0
 262.522460938 212.85546875 239.889648438 254 233 254 c 0
 226.111328125 254 203.478515625 212.85546875 169.352539062 138.290039062 c 0
 140.2265625 74.650390625 114.045898438 26.076171875 106.229492188 17.2568359375 c 0
 86.60546875 -4.884765625 56.6259765625 -3.6796875 38 20 c 0xa0
EndSplineSet
Validated: 33
EndChar

StartChar: y
Encoding: 86 121 72
Width: 500
Flags: W
HStem: 0 21G<226.887 233.113> 0 21G<226.887 233.113> 727 20G<59.5142 85.832 378.549 404.867> 727 20G<59.5142 85.832 378.549 404.867>
VStem: 184.536 92.4941<13.9559 380.018>
LayerCount: 6
Fore
SplineSet
201.216796875 17.4638671875 m 0xa8
 183.752929688 34.927734375 184.536132812 17.3916015625 184.536132812 180.68359375 c 0
 184.536132812 343.975585938 184.536132812 343.975585938 102.71484375 509.889648438 c 0
 57.712890625 601.142578125 20.8935546875 684.2578125 20.8935546875 694.591796875 c 0
 20.8935546875 721.80859375 47.646484375 747 71.3818359375 747 c 0
 100.282226562 747 112.225966533 731.340017936 170.803710938 603.34765625 c 0
 199.87890625 539.818359375 226.870117188 487.838867188 230.783203125 487.838867188 c 0
 234.696289062 487.838867188 261.68691032 539.818629255 290.762695312 603.34765625 c 0
 349.341796875 731.33984375 364.098632812 747 393 747 c 0
 416.734375 747 440.672851562 721.80859375 440.672851562 694.591796875 c 0
 440.672851562 684.2578125 403.853515625 601.142578125 358.8515625 509.889648438 c 0
 277.030273438 343.9765625 277.030273438 343.9765625 277.030273438 180.68359375 c 0
 277.030273438 17.3916015625 276.247070312 34.927734375 258.783203125 17.4638671875 c 0
 249.177734375 7.859375 236.225585938 0 230 0 c 0
 223.774414062 0 210.822265625 7.859375 201.216796875 17.4638671875 c 0xa8
EndSplineSet
Validated: 33
EndChar

StartChar: z
Encoding: 87 122 73
Width: 500
Flags: W
HStem: -0.615234 107.427<154.018 414.03> 637.961 109.424<41.3347 301.685>
LayerCount: 6
Fore
SplineSet
41.6083984375 4.9462890625 m 2
 31.607421875 11.302734375 5.224609375 44.4677734375 5.224609375 60.7646484375 c 0
 5.224609375 73.853515625 100.325195312 253.12890625 193.080078125 414.892578125 c 0
 315.661132812 628.672851562 314.58203125 626.15625 286.8359375 633.591796875 c 0
 278.068359375 635.94140625 228.52734375 637.907226562 176.743164062 637.9609375 c 0
 96.3779296875 638.043945312 78.4814453125 640.153320312 54.5341796875 652.370117188 c 0
 28.1826171875 665.813476562 26.4775390625 668.603515625 26.4775390625 698.276367188 c 0
 26.4775390625 727.948242188 20.517578125 719.627929688 46.869140625 733.071289062 c 0
 72.66015625 746.228515625 88.3486328125 747.384765625 241.188476562 747.384765625 c 0
 427.120117188 747.384765625 414 756 445.751953125 707.409179688 c 0
 461.515625 683.28515625 453.233228465 675.890273667 431.310546875 635.6875 c 0
 418.556640625 612.298828125 380.84375 542.116210938 347.504882812 479.724609375 c 0
 314.166015625 417.333007812 274.046875 345.341796875 258.3515625 319.744140625 c 0
 213.631835938 246.80859375 154 135.521484375 154 125 c 0
 154 110.346679688 177.772460938 106.916015625 280.033203125 106.811523438 c 0
 360.271484375 106.73046875 378.31640625 104.607421875 402.12890625 92.458984375 c 0
 449.219726562 68.435546875 455.028320312 37.4580078125 407.727539062 13.3271484375 c 0
 382.577148438 0.49609375 365.8671875 -0.7138671875 215.188476562 -0.615234375 c 0
 124.439453125 -0.5615234375 46.328125 1.9462890625 41.609375 4.9462890625 c 2
 41.6083984375 4.9462890625 l 2
EndSplineSet
Validated: 33
EndChar

StartChar: comma
Encoding: 9 44 74
Width: 500
Flags: W
HStem: 2 196.675
VStem: 171.167 150.59<73.6377 167.993>
LayerCount: 6
Fore
SplineSet
188 2 m 1
 166.379882812 13.6875 170.804812861 96.4453142945 171.166992188 120.0234375 c 0
 171.736565435 157.103047577 212.415039062 199.373046875 247.922851562 198.674804688 c 0
 280.31640625 198.036132812 321.662615174 154.79980891 321.756835938 121.4609375 c 0
 321.829101562 95.890625 298.827367441 68.9948863776 279 52 c 0
 258 34 213.271484375 -11.7119140625 188 2 c 1
EndSplineSet
Validated: 33
EndChar

StartChar: less
Encoding: 25 60 76
Width: 500
Flags: W
LayerCount: 6
Fore
SplineSet
419.788085938 503.866210938 m 6
 423.461914062 506.115234375 427.245117188 508.411132812 430.705078125 511.073242188 c 4
 438.30859375 516.927734375 445.09765625 524.1953125 448.796875 533.049804688 c 4
 452.6953125 542.3828125 452.887695312 553.169921875 449.494140625 562.6953125 c 4
 446.099609375 572.221679688 439.184570312 580.416015625 430.455078125 585.520507812 c 4
 420.267578125 591.48046875 407.952148438 593.177734375 396.234375 591.76953125 c 4
 384.249023438 590.329101562 372.981445312 584.912109375 362.942382812 578.56640625 c 6
 83.958984375 402.220703125 l 6
 75.21875 397.737304688 68.025390625 390.298828125 63.83984375 381.412109375 c 4
 57.74609375 368.4765625 58.3408203125 352.609375 65.359375 340.151367188 c 4
 72.376953125 327.693359375 85.623046875 318.96484375 99.8349609375 317.399414062 c 4
 113.50390625 315.891601562 127.751953125 321.012695312 137.336914062 330.874023438 c 6
 419.788085938 503.866210938 l 6
  Spiro
    423.479 506.14 o
    427.157 508.524 o
    430.704 511.073 o
    437.946 517.398 o
    444.157 524.726 o
    448.797 533.05 o
    451.463 542.757 o
    451.687 552.86 o
    449.494 562.696 o
    444.994 571.704 o
    438.509 579.459 o
    430.455 585.521 o
    419.671 590.1 o
    408.038 592.1 o
    396.234 591.769 o
    384.519 589.12 o
    373.361 584.484 o
    362.942 578.566 [
    83.9592 402.221 ]
    75.7961 396.815 o
    68.9679 389.752 o
    63.8396 381.412 o
    59.9675 367.748 o
    60.4948 353.497 o
    65.3591 340.152 o
    74.2475 329.073 o
    86.1528 321.219 o
    99.8353 317.4 o
    113.489 318.029 o
    126.404 322.669 o
    137.337 330.873 [
    419.788 503.866 ]
    0 0 z
  EndSpiro
418.7890625 221.7890625 m 6
 136.338867188 394.78125 l 6
 126.752929688 404.642578125 112.505859375 409.763671875 98.8369140625 408.255859375 c 4
 84.6240234375 406.690429688 71.3779296875 397.961914062 64.3603515625 385.50390625 c 4
 57.3427734375 373.045898438 56.748046875 357.178710938 62.8408203125 344.243164062 c 4
 67.02734375 335.356445312 74.220703125 327.91796875 82.9609375 323.434570312 c 6
 361.944335938 147.088867188 l 6
 371.982421875 140.743164062 383.250976562 135.326171875 395.235351562 133.885742188 c 4
 406.953125 132.477539062 419.26953125 134.174804688 429.45703125 140.134765625 c 4
 438.185546875 145.239257812 445.1015625 153.43359375 448.495117188 162.959960938 c 4
 451.888671875 172.485351562 451.696289062 183.272460938 447.798828125 192.60546875 c 4
 444.098632812 201.459960938 437.310546875 208.727539062 429.705078125 214.58203125 c 4
 426.247070312 217.244140625 422.462890625 219.540039062 418.7890625 221.7890625 c 6
  Spiro
    418.79 221.79 [
    136.338 394.782 ]
    125.405 402.986 o
    112.491 407.626 o
    98.8367 408.256 o
    85.1543 404.436 o
    73.2489 396.582 o
    64.3606 385.503 o
    59.4963 372.158 o
    58.9689 357.907 o
    62.8409 344.243 o
    67.9693 335.903 o
    74.7974 328.84 o
    82.9606 323.434 [
    361.944 147.089 ]
    372.362 141.171 o
    383.52 136.536 o
    395.235 133.886 o
    407.039 133.555 o
    418.672 135.555 o
    429.457 140.134 o
    437.511 146.197 o
    443.996 153.951 o
    448.495 162.96 o
    450.689 172.795 o
    450.464 182.898 o
    447.799 192.605 o
    443.159 200.93 o
    436.947 208.257 o
    429.706 214.582 o
    426.158 217.131 o
    422.48 219.515 o
    0 0 z
  EndSpiro
EndSplineSet
Validated: 37
EndChar

StartChar: equal
Encoding: 26 61 77
Width: 500
Flags: W
HStem: 223.574 97<46.3948 90.4111 405 448.01> 386.574 97<47.3948 91.4111 406 449.01>
LayerCount: 6
Fore
SplineSet
147.411132812 223.57421875 m 0
 215.415039062 222.865234375 327.022532329 222.955632597 395 225 c 0
 402.37109375 225.221679688 409.787109375 225.46484375 417 227 c 0
 430.939453125 229.967773438 443.99609375 238.1171875 451.544921875 250.205078125 c 0
 455.3203125 256.25 457.68359375 263.196289062 458.177734375 270.3046875 c 0
 458.672851562 277.4140625 457.275390625 284.671875 454 291 c 0
 449.534179688 299.62890625 441.75 306.247070312 433.025390625 310.524414062 c 0
 424.301757812 314.801757812 414.651367188 316.884765625 405 318 c 0
 399.02734375 318.690429688 393.011557542 318.96016856 387 319 c 2
 149.411132812 320.57421875 l 1
 109.411132812 320.57421875 l 2
 103.064453125 320.698242188 96.708984375 320.36328125 90.4111328125 319.57421875 c 0
 80.6982421875 318.357421875 71.0244140625 316.020507812 62.3291015625 311.524414062 c 0
 53.6337890625 307.029296875 45.9384765625 300.252929688 41.4111328125 291.57421875 c 0
 38.064453125 285.158203125 36.5283203125 277.833007812 36.8583984375 270.604492188 c 0
 37.1875 263.375 39.3662109375 256.256835938 43 250 c 0
 50.2685546875 237.485351562 63.2900390625 228.744140625 77.4111328125 225.57421875 c 0
 85.2587890625 223.8125 93.3681640625 223.666015625 101.411132812 223.57421875 c 0
 116.744140625 223.400390625 132.078125 223.734375 147.411132812 223.57421875 c 0
148.411132812 386.57421875 m 0
 216.415039062 385.865234375 328.022532329 385.955632597 396 388 c 0
 403.37109375 388.221679688 410.787109375 388.46484375 418 390 c 0
 431.939453125 392.967773438 444.99609375 401.1171875 452.544921875 413.205078125 c 0
 456.3203125 419.25 458.68359375 426.196289062 459.177734375 433.3046875 c 0
 459.672851562 440.4140625 458.275390625 447.671875 455 454 c 0
 450.534179688 462.62890625 442.75 469.247070312 434.025390625 473.524414062 c 0
 425.301757812 477.801757812 415.651367188 479.884765625 406 481 c 0
 400.02734375 481.690429688 394.011557542 481.96016856 388 482 c 2
 150.411132812 483.57421875 l 1
 110.411132812 483.57421875 l 2
 104.064453125 483.698242188 97.708984375 483.36328125 91.4111328125 482.57421875 c 0
 81.6982421875 481.357421875 72.0244140625 479.020507812 63.3291015625 474.524414062 c 0
 54.6337890625 470.029296875 46.9384765625 463.252929688 42.4111328125 454.57421875 c 0
 39.064453125 448.158203125 37.5283203125 440.833007812 37.8583984375 433.604492188 c 0
 38.1875 426.375 40.3662109375 419.256835938 44 413 c 0
 51.2685546875 400.485351562 64.2900390625 391.744140625 78.4111328125 388.57421875 c 0
 86.2587890625 386.8125 94.3681640625 386.666015625 102.411132812 386.57421875 c 0
 117.744140625 386.400390625 133.078125 386.734375 148.411132812 386.57421875 c 0
EndSplineSet
Validated: 41
EndChar

StartChar: greater
Encoding: 27 62 78
Width: 500
InSpiro: 1
Flags: W
LayerCount: 6
Fore
SplineSet
92.640625 503.866210938 m 2
 88.966796875 506.115234375 85.1826171875 508.411132812 81.7236328125 511.073242188 c 0
 74.119140625 516.927734375 67.3310546875 524.1953125 63.630859375 533.049804688 c 0
 59.732421875 542.3828125 59.541015625 553.169921875 62.9345703125 562.6953125 c 0
 66.3291015625 572.221679688 73.244140625 580.416015625 81.9736328125 585.520507812 c 0
 92.16015625 591.48046875 104.475585938 593.177734375 116.194335938 591.76953125 c 0
 128.178710938 590.329101562 139.446289062 584.912109375 149.485351562 578.56640625 c 2
 428.46875 402.220703125 l 2
 437.209960938 397.737304688 444.40234375 390.298828125 448.588867188 381.412109375 c 0
 454.682617188 368.4765625 454.086914062 352.609375 447.069335938 340.151367188 c 0
 440.05078125 327.693359375 426.8046875 318.96484375 412.592773438 317.399414062 c 0
 398.924804688 315.891601562 384.676757812 321.012695312 375.090820312 330.874023438 c 2
 92.640625 503.866210938 l 2
  Spiro
    88.9497 506.14 o
    85.2713 508.524 o
    81.724 511.073 o
    74.4823 517.398 o
    68.2708 524.726 o
    63.6313 533.05 o
    60.9653 542.757 o
    60.7415 552.86 o
    62.9343 562.696 o
    67.4336 571.704 o
    73.9191 579.459 o
    81.9731 585.521 o
    92.7576 590.1 o
    104.39 592.1 o
    116.194 591.769 o
    127.91 589.12 o
    139.067 584.484 o
    149.486 578.566 [
    428.469 402.221 ]
    436.632 396.815 o
    443.46 389.752 o
    448.589 381.412 o
    452.46 367.748 o
    451.934 353.497 o
    447.069 340.152 o
    438.181 329.073 o
    426.276 321.219 o
    412.593 317.4 o
    398.939 318.029 o
    386.024 322.669 o
    375.091 330.873 [
    92.6402 503.866 ]
    0 0 z
  EndSpiro
93.638671875 221.7890625 m 2
 376.08984375 394.78125 l 2
 385.674804688 404.642578125 399.922851562 409.763671875 413.591796875 408.255859375 c 0
 427.8046875 406.690429688 441.05078125 397.961914062 448.067382812 385.50390625 c 0
 455.0859375 373.045898438 455.680664062 357.178710938 449.586914062 344.243164062 c 0
 445.401367188 335.356445312 438.208007812 327.91796875 429.466796875 323.434570312 c 2
 150.484375 147.088867188 l 2
 140.446289062 140.743164062 129.177734375 135.326171875 117.192382812 133.885742188 c 0
 105.475585938 132.477539062 93.1591796875 134.174804688 82.9716796875 140.134765625 c 0
 74.2421875 145.239257812 67.3271484375 153.43359375 63.9326171875 162.959960938 c 0
 60.5390625 172.485351562 60.7314453125 183.272460938 64.6298828125 192.60546875 c 0
 68.330078125 201.459960938 75.1181640625 208.727539062 82.72265625 214.58203125 c 0
 86.181640625 217.244140625 89.96484375 219.540039062 93.638671875 221.7890625 c 2
  Spiro
    93.6388 221.79 [
    376.09 394.782 ]
    387.023 402.986 o
    399.937 407.626 o
    413.591 408.256 o
    427.274 404.436 o
    439.179 396.582 o
    448.067 385.503 o
    452.932 372.158 o
    453.459 357.907 o
    449.588 344.243 o
    444.459 335.903 o
    437.631 328.84 o
    429.468 323.434 [
    150.484 147.089 ]
    140.066 141.171 o
    128.909 136.536 o
    117.193 133.886 o
    105.388 133.555 o
    93.7562 135.555 o
    82.9717 140.134 o
    74.9177 146.197 o
    68.4322 153.951 o
    63.9329 162.96 o
    61.7401 172.795 o
    61.9639 182.898 o
    64.6299 192.605 o
    69.2694 200.93 o
    75.4808 208.257 o
    82.7226 214.582 o
    86.27 217.131 o
    89.9483 219.515 o
    0 0 z
  EndSpiro
EndSplineSet
Validated: 37
EndChar

StartChar: question
Encoding: 28 63 79
Width: 500
InSpiro: 1
Flags: W
HStem: 21.1934 150.613<192.203 289.797>
VStem: 165.693 150.613<47.7033 145.297>
LayerCount: 6
Fore
SplineSet
184 146 m 0
 196.958984375 160.922851562 215.981445312 170.418945312 235.696289062 171.806640625 c 0
 255.412109375 173.1953125 275.577148438 166.458984375 290.5 153.5 c 0
 305.422851562 140.541015625 314.918945312 121.518554688 316.306640625 101.803710938 c 0
 317.6953125 82.087890625 310.958984375 61.9228515625 298 47 c 0
 285.041015625 32.0771484375 266.018554688 22.5810546875 246.303710938 21.193359375 c 0
 226.587890625 19.8046875 206.422851562 26.541015625 191.5 39.5 c 0
 176.577148438 52.458984375 167.081054688 71.4814453125 165.693359375 91.1962890625 c 0
 164.3046875 110.912109375 171.041015625 131.077148438 184 146 c 0
  Spiro
    184 146 c
    298 47 c
    0 0 z
  EndSpiro
342 393 m 2
 348.499248245 395.247187283 354.850772558 397.92151331 361 401 c 0
 399.882582258 420.465780554 429.825130971 456.511638032 443.151420684 497.902238632 c 0
 456.477710397 539.292839233 453.358180935 585.491679909 435.863251965 625.299961409 c 0
 418.368322995 665.108242908 386.871966119 698.35351308 348.728267034 719.230055796 c 0
 310.58456795 740.106598512 266.072957291 748.71598857 222.749023438 745 c 0
 188.193057701 742.036059234 154.211000837 731.30004373 124.749023438 713 c 0
 86.9820678286 689.541393342 56.525067194 652.427206418 47 609 c 0
 45.3572410338 601.510243627 44.3316584418 593.84487412 44.619402603 586.182478226 c 0
 44.9071467641 578.520082331 46.5411341496 570.843343815 50 564 c 0
 55.6893178517 552.743721261 66.3665946974 544.166190315 78.5377011177 540.859180006 c 0
 90.708807538 537.552169697 104.182351454 539.515354395 115 546 c 0
 125.966326079 552.573770437 133.837715119 563.219768956 140.568808661 574.090240205 c 0
 147.299902203 584.960711453 153.265536171 596.434164478 161.749023438 606 c 0
 174.012683063 619.828293387 190.982367898 628.904414032 208.749023438 634 c 0
 237.829781538 642.340540097 270.480495841 640.131947232 296.555161397 624.790274673 c 0
 309.592494175 617.119438393 320.820326372 606.287085006 328.55309171 593.286388278 c 0
 336.285857048 580.285691549 340.458930474 565.119628237 340 550 c 0
 339.518194027 534.126730254 333.9512372 518.564757492 324.951771771 505.480322027 c 0
 315.952306342 492.395886563 303.608701274 481.752558269 289.749023438 474 c 0
 281.246010395 469.24374918 272.154958634 465.539987351 262.749023438 463 c 2
 232.749023438 454 l 2
 230.107900787 453.159740974 227.518408533 452.157230551 225 451 c 0
 215.932039474 446.833193535 207.790874224 440.619386552 201.512191562 432.862561927 c 0
 195.233508901 425.105737302 190.839602898 415.808468045 189 406 c 0
 188.32028894 402.375889485 187.98495987 398.687269714 188 395 c 2
 187 244 l 2
 188.370450906 237.68258799 190.742322178 231.583490432 194 226 c 0
 198.729821277 217.893332217 205.353351647 210.879324361 213.259707962 205.821775381 c 0
 221.166064276 200.764226401 230.348904521 197.684773283 239.716578836 197.105161532 c 0
 249.084253151 196.525549782 258.615400266 198.463979973 266.943657736 202.791727583 c 0
 275.271915205 207.119475192 282.362765947 213.84001641 287 222 c 0
 290.305945631 227.817360476 292.365426049 234.339048467 293 241 c 2
 294 372 l 1
 342 393 l 2
  Spiro
    342 393 v
    361 401 c
    222.749 745 c
    124.749 713 c
    47 609 c
    50 564 c
    115 546 c
    161.749 606 c
    208.749 634 c
    340 550 c
    289.749 474 c
    262.749 463 v
    232.749 454 v
    225 451 c
    189 406 c
    188 395 v
    187 244 v
    194 226 c
    287 222 c
    293 241 v
    294 372 v
    0 0 z
  EndSpiro
EndSplineSet
Validated: 41
EndChar

StartChar: at
Encoding: 29 64 80
Width: 500
Flags: W
LayerCount: 6
Fore
SplineSet
8 245 m 2
 149.153320312 28.240234375 l 2
 155.299804688 18.8017578125 160.391601562 6.966796875 171.153320312 2.240234375 c 0
 182.342773438 -2.6748046875 195.876953125 -1.8740234375 206.395507812 4.34765625 c 0
 216.913085938 10.5703125 224.135742188 22.0615234375 225.153320312 34.240234375 c 0
 225.852539062 42.607421875 223.622070312 51.14453125 219.153320312 58.240234375 c 2
 82 276 l 2
 76.8369140625 284.888671875 71.255859375 293.811523438 63 300 c 0
 54.9287109375 306.049804688 45.0869140625 310.057617188 35 310 c 0
 26.357421875 309.951171875 17.736328125 306.840820312 11.1533203125 301.240234375 c 0
 4.5703125 295.640625 0.1015625 287.572265625 -1 279 c 0
 -2.0458984375 270.864257812 -0.126953125 262.583007812 3 255 c 0
 4.421875 251.551757812 6.1103515625 248.213867188 8 245 c 2
8 463 m 2
 285.911132812 28.1328125 l 2
 291.978515625 18.638671875 297.149414062 6.859375 307.911132812 2.1328125 c 0
 319.100585938 -2.7822265625 332.634765625 -1.9814453125 343.153320312 4.240234375 c 0
 353.670898438 10.462890625 360.893554688 21.9541015625 361.911132812 34.1328125 c 0
 362.610351562 42.5 360.374023438 51.0302734375 355.911132812 58.1328125 c 2
 82 494 l 2
 76.8369140625 502.888671875 71.255859375 511.811523438 63 518 c 0
 54.9287109375 524.049804688 45.0869140625 528.057617188 35 528 c 0
 26.357421875 527.951171875 17.736328125 524.840820312 11.1533203125 519.240234375 c 0
 4.5703125 513.640625 0.1015625 505.572265625 -1 497 c 0
 -2.0458984375 488.864257812 -0.126953125 480.583007812 3 473 c 0
 4.421875 469.551757812 6.1103515625 466.213867188 8 463 c 2
490.153320312 501.240234375 m 2
 349 718 l 2
 342.853391314 727.438938136 337.76171875 739.2734375 327 744 c 0
 315.810546875 748.915039062 302.276367188 748.114257812 291.7578125 741.892578125 c 0
 281.240234375 735.669921875 274.017578125 724.178710938 273 712 c 0
 272.30078125 703.6328125 274.530905771 695.095627795 279 688 c 2
 416.153320312 470.240234375 l 2
 421.31640625 461.3515625 426.897460938 452.428710938 435.153320312 446.240234375 c 0
 443.224609375 440.190429688 453.06640625 436.182617188 463.153320312 436.240234375 c 0
 471.795898438 436.2890625 480.416992188 439.399414062 487 445 c 0
 493.583007812 450.599609375 498.051757812 458.66796875 499.153320312 467.240234375 c 0
 500.19921875 475.375976562 498.280273438 483.657226562 495.153320312 491.240234375 c 0
 493.731445312 494.688476562 492.04296875 498.026367188 490.153320312 501.240234375 c 2
490.153320312 283.240234375 m 2
 212.2421875 718.107421875 l 2
 206.174909782 727.601320052 201.00390625 739.380859375 190.2421875 744.107421875 c 0
 179.052734375 749.022460938 165.518554688 748.221679688 155 742 c 0
 144.482421875 735.77734375 137.259765625 724.286132812 136.2421875 712.107421875 c 0
 135.54296875 703.740234375 137.778952415 695.209644058 142.2421875 688.107421875 c 2
 416.153320312 252.240234375 l 2
 421.31640625 243.3515625 426.897460938 234.428710938 435.153320312 228.240234375 c 0
 443.224609375 222.190429688 453.06640625 218.182617188 463.153320312 218.240234375 c 0
 471.795898438 218.2890625 480.416992188 221.399414062 487 227 c 0
 493.583007812 232.599609375 498.051757812 240.66796875 499.153320312 249.240234375 c 0
 500.19921875 257.375976562 498.280273438 265.657226562 495.153320312 273.240234375 c 0
 493.731445312 276.688476562 492.04296875 280.026367188 490.153320312 283.240234375 c 2
491 65 m 2
 76.2421875 718.107421875 l 2
 70.2016065191 727.619354266 65.00390625 739.380859375 54.2421875 744.107421875 c 0
 43.052734375 749.022460938 29.5185546875 748.221679688 19 742 c 0
 8.482421875 735.77734375 1.259765625 724.286132812 0.2421875 712.107421875 c 0
 -0.45703125 703.740234375 1.78108061165 695.211469654 6.2421875 688.107421875 c 2
 417 34 l 2
 422.163085938 25.111328125 427.744140625 16.1884765625 436 10 c 0
 444.071289062 3.9501953125 453.913085938 -0.0576171875 464 0 c 0
 472.642578125 0.048828125 481.263671875 3.1591796875 487.846679688 8.759765625 c 0
 494.4296875 14.359375 498.8984375 22.427734375 500 31 c 0
 501.045898438 39.1357421875 499.126953125 47.4169921875 496 55 c 0
 494.578125 58.4482421875 492.889648438 61.7861328125 491 65 c 2
EndSplineSet
Validated: 41
EndChar

StartChar: underscore
Encoding: 60 95 85
Width: 500
Flags: W
HStem: 3.0498 97<36.0654 80.082 407.082 450.396>
LayerCount: 6
Fore
SplineSet
137.08203125 3.0498046875 m 0
 223.737304688 1.1142578125 310.443359375 1.4482421875 397.08203125 4.0498046875 c 0
 404.452148438 4.2705078125 411.869140625 4.513671875 419.08203125 6.0498046875 c 0
 433.021484375 9.0166015625 446.077148438 17.1669921875 453.626953125 29.2548828125 c 0
 457.401367188 35.298828125 459.764648438 42.24609375 460.259765625 49.3544921875 c 0
 460.75390625 56.462890625 459.357421875 63.720703125 456.08203125 70.0498046875 c 0
 451.615234375 78.677734375 443.831054688 85.296875 435.107421875 89.57421875 c 0
 426.3828125 93.8505859375 416.733398438 95.93359375 407.08203125 97.0498046875 c 0
 401.108398438 97.7392578125 395.094726562 98.07421875 389.08203125 98.0498046875 c 2
 139.08203125 100.049804688 l 1
 99.08203125 100.049804688 l 2
 92.7353515625 100.172851562 86.3798828125 99.8388671875 80.08203125 99.0498046875 c 0
 70.369140625 97.83203125 60.6953125 95.4951171875 52 91 c 0
 43.3046875 86.5048828125 35.6083984375 79.7275390625 31.08203125 71.0498046875 c 0
 27.734375 64.6337890625 26.19921875 57.3076171875 26.5283203125 50.0791015625 c 0
 26.8583984375 42.8505859375 29.0361328125 35.732421875 32.6708984375 29.474609375 c 0
 39.9384765625 16.9599609375 52.9609375 8.21875 67.08203125 5.0498046875 c 0
 74.9296875 3.2880859375 83.0390625 3.140625 91.08203125 3.0498046875 c 0
 106.4140625 2.875 121.749023438 2.875 137.08203125 3.0498046875 c 0
  Spiro
    137.082 3.04934 v
    397.082 4.04934 c
    419.082 6.04934 c
    456.082 70.0493 c
    407.082 97.0493 c
    389.082 98.0493 v
    139.082 100.049 v
    99.0816 100.049 v
    80.0816 99.0493 c
    31.0816 71.0493 c
    67.0816 5.04934 c
    91.0816 3.04934 c
    0 0 z
  EndSpiro
EndSplineSet
Validated: 41
EndChar

StartChar: percent
Encoding: 5 37 87
Width: 500
Flags: W
HStem: 64.2168 65.9209<329.243 377.084> 198.642 68.0205<337.461 385.303> 475.478 65.9209<120.57 168.411> 609.902 68.0205<128.788 176.63>
VStem: 46.3271 68.0215<555.839 603.68> 182.853 65.9199<547.62 595.462> 255 68.0215<144.578 192.419> 391.525 65.9199<136.359 184.201>
LayerCount: 6
Fore
SplineSet
120.3203125 555.490234375 m 0
 125.598632812 548.0859375 133.891601562 542.901367188 142.857421875 541.3984375 c 0
 151.825195312 539.895507812 161.356445312 542.091796875 168.759765625 547.370117188 c 0
 176.1640625 552.6484375 181.348632812 560.94140625 182.852539062 569.908203125 c 0
 184.354492188 578.875 182.158203125 588.40625 176.879882812 595.810546875 c 0
 171.6015625 603.213867188 163.30859375 608.399414062 154.341796875 609.90234375 c 0
 145.375 611.405273438 135.84375 609.208984375 128.439453125 603.9296875 c 0
 121.036132812 598.65234375 115.850585938 590.359375 114.348632812 581.392578125 c 0
 112.844726562 572.424804688 115.041015625 562.89453125 120.3203125 555.490234375 c 0
  Spiro
    176.88 595.81 c
    120.32 555.49 c
    0 0 z
  EndSpiro
62.849609375 518.25 m 0
 47.5478515625 540.424804688 41.46875 568.762695312 46.3271484375 595.260742188 c 0
 51.1865234375 621.76171875 66.92578125 646.098632812 89.099609375 661.400390625 c 0
 111.274414062 676.702148438 139.612304688 682.78125 166.110351562 677.922851562 c 0
 192.611328125 673.063476562 216.948242188 657.32421875 232.25 635.150390625 c 0
 247.551757812 612.975585938 253.630859375 584.637695312 248.772460938 558.139648438 c 0
 243.913085938 531.638671875 228.173828125 507.301757812 206 492 c 0
 183.825195312 476.698242188 155.487304688 470.619140625 128.989257812 475.477539062 c 0
 102.48828125 480.336914062 78.1513671875 496.076171875 62.849609375 518.25 c 0
  Spiro
    62.8498 518.25 c
    232.25 635.15 c
    0 0 z
  EndSpiro
328.993164062 144.229492188 m 0
 334.271484375 136.825195312 342.564453125 131.640625 351.530273438 130.137695312 c 0
 360.498046875 128.634765625 370.029296875 130.831054688 377.432617188 136.109375 c 0
 384.836914062 141.387695312 390.021484375 149.680664062 391.525390625 158.647460938 c 0
 393.02734375 167.614257812 390.831054688 177.145507812 385.552734375 184.549804688 c 0
 380.274414062 191.953125 371.981445312 197.138671875 363.014648438 198.641601562 c 0
 354.047851562 200.14453125 344.516601562 197.948242188 337.112304688 192.668945312 c 0
 329.708984375 187.391601562 324.5234375 179.098632812 323.021484375 170.131835938 c 0
 321.517578125 161.1640625 323.713867188 151.633789062 328.993164062 144.229492188 c 0
  Spiro
    385.552 184.549 c
    328.992 144.229 c
    0 0 z
  EndSpiro
271.522460938 106.989257812 m 0
 256.220703125 129.1640625 250.141601562 157.501953125 255 184 c 0
 259.859375 210.500976562 275.598632812 234.837890625 297.772460938 250.139648438 c 0
 319.947265625 265.44140625 348.28515625 271.520507812 374.783203125 266.662109375 c 0
 401.284179688 261.802734375 425.62109375 246.063476562 440.922851562 223.889648438 c 0
 456.224609375 201.71484375 462.303710938 173.376953125 457.4453125 146.87890625 c 0
 452.5859375 120.377929688 436.846679688 96.041015625 414.672851562 80.7392578125 c 0
 392.498046875 65.4375 364.16015625 59.3583984375 337.662109375 64.216796875 c 0
 311.161132812 69.076171875 286.82421875 84.8154296875 271.522460938 106.989257812 c 0
  Spiro
    271.522 106.989 c
    440.922 223.889 c
    0 0 z
  EndSpiro
41 67 m 2
 392 719 l 2
 394.880364193 730.395339561 403.238587472 740.273239799 414 745 c 0
 425.189144584 749.914633944 438.723823366 749.114653924 449.242010142 742.89224842 c 0
 459.760196919 736.669842917 466.982448409 725.178471664 468 713 c 0
 468.699099403 704.632893764 466.554314172 696.053752842 462 689 c 2
 115 36 l 2
 110.871324664 26.5445649674 104.25580742 18.1881221331 96 12 c 0
 87.928390255 5.94994282536 78.087160184 1.94277139184 68 2 c 0
 59.3570245096 2.04903515446 50.736796101 5.15894818131 44.1535508277 10.7593331187 c 0
 37.5703055544 16.359718056 33.1016385813 24.4273795015 32 33 c 0
 30.9544603237 41.136075672 32.8727193387 49.4165313859 36 57 c 0
 37.4220328453 60.4483446221 39.0945440095 63.7933669505 41 67 c 2
  Spiro
    41 67 v
    392 719 v
    414 745 c
    468 713 c
    462 689 v
    115 36 v
    96 12 c
    68 2 c
    32 33 c
    36 57 c
    0 0 z
  EndSpiro
EndSplineSet
Validated: 33
EndChar

StartChar: parenleft
Encoding: 6 40 88
Width: 500
InSpiro: 1
Flags: W
VStem: 111.756 74.1221<238.229 496.879>
LayerCount: 6
Fore
SplineSet
111.755859375 359 m 0
 110.662109375 441.541015625 129.407226562 524.383789062 166.755859375 598 c 0
 191.572265625 646.9140625 224.487304688 691.706054688 263.755859375 730 c 0
 270.405273438 739.043945312 280.770507812 745.267578125 291.877929688 746.885742188 c 0
 304.096679688 748.666015625 317.151367188 744.712890625 325.919921875 736.018554688 c 0
 330.303710938 731.671875 333.6015625 726.223632812 335.342773438 720.299804688 c 0
 337.083007812 714.376953125 337.254882812 707.989257812 335.755859375 702 c 0
 333.739257812 693.939453125 328.862304688 686.919921875 323.749023438 680.37109375 c 0
 312.208007812 665.590820312 299.00390625 652.200195312 286.755859375 638 c 0
 220.888671875 561.631835938 183.858398438 460.715820312 185.877929688 359.885742188 c 0
 187.706054688 268.65234375 221.487304688 178.165039062 280.877929688 108.885742188 c 0
 293.083007812 94.6484375 306.322265625 81.2890625 317.87109375 66.5146484375 c 0
 322.98828125 59.96875 327.862304688 52.9462890625 329.877929688 44.8857421875 c 0
 331.375 38.896484375 331.203125 32.509765625 329.461914062 26.5869140625 c 0
 327.720703125 20.6640625 324.422851562 15.2158203125 320.0390625 10.869140625 c 0
 311.271484375 2.1748046875 298.21875 -1.779296875 286 0 c 0
 274.891601562 1.6181640625 264.52734375 7.841796875 257.877929688 16.8857421875 c 0
 218.048828125 54.6591796875 185.029296875 99.591796875 160.877929688 148.885742188 c 0
 128.97265625 214.006835938 112.716796875 286.490234375 111.755859375 359 c 0
  Spiro
    111.756 359 c
    166.756 598 c
    263.756 730 v
    291.878 746.886 c
    335.756 702 c
    323.749 680.371 c
    286.756 638 c
    185.878 359.886 c
    280.878 108.886 c
    317.871 66.515 c
    329.878 44.886 c
    286 0 c
    257.878 16.886 v
    160.878 148.886 c
    0 0 z
  EndSpiro
EndSplineSet
Validated: 33
EndChar

StartChar: parenright
Encoding: 7 41 89
Width: 500
Flags: W
VStem: 312 74.1221<238.343 496.993>
LayerCount: 6
Fore
SplineSet
386.122070312 359.114257812 m 4
 387.215820312 441.655273438 368.470703125 524.498046875 331.122070312 598.114257812 c 4
 306.305664062 647.028320312 273.390625 691.8203125 234.122070312 730.114257812 c 4
 227.47265625 739.158203125 217.107421875 745.381835938 206 747 c 4
 193.78125 748.780273438 180.7265625 744.827148438 171.958007812 736.1328125 c 4
 167.57421875 731.786132812 164.276367188 726.337890625 162.53515625 720.4140625 c 4
 160.794921875 714.491210938 160.623046875 708.103515625 162.122070312 702.114257812 c 4
 164.138671875 694.053710938 169.015625 687.034179688 174.12890625 680.485351562 c 4
 185.669921875 665.705078125 198.874023438 652.314453125 211.122070312 638.114257812 c 4
 276.989257812 561.74609375 314.01953125 460.830078125 312 360 c 4
 310.171875 268.766601562 276.390625 178.279296875 217 109 c 4
 204.794921875 94.7626953125 191.555664062 81.4033203125 180.006835938 66.62890625 c 4
 174.889648438 60.0830078125 170.015625 53.060546875 168 45 c 4
 166.502929688 39.0107421875 166.674804688 32.6240234375 168.416015625 26.701171875 c 4
 170.157226562 20.7783203125 173.455078125 15.330078125 177.838867188 10.9833984375 c 4
 186.606445312 2.2890625 199.659179688 -1.6650390625 211.877929688 0.1142578125 c 4
 222.986328125 1.732421875 233.350585938 7.9560546875 240 17 c 4
 279.829101562 54.7734375 312.848632812 99.7060546875 337 149 c 4
 368.905273438 214.12109375 385.161132812 286.604492188 386.122070312 359.114257812 c 4
  Spiro
    386.122 359.114 c
    331.122 598.114 c
    234.122 730.114 v
    206 747 c
    162.122 702.114 c
    174.129 680.485 c
    211.122 638.114 c
    312 360 c
    217 109 c
    180.007 66.6293 c
    168 45.0003 c
    211.878 0.114258 c
    240 17.0003 v
    337 149 c
    0 0 z
  EndSpiro
EndSplineSet
Validated: 41
EndChar

StartChar: guillemotright
Encoding: 91 187 90
Width: 500
InSpiro: 1
Flags: W
LayerCount: 6
Fore
SplineSet
84 747 m 1
 81 0 l 1
 455 364 l 1
 84 747 l 1
  Spiro
    84 747 v
    81 0 v
    455 364 v
    0 0 z
  EndSpiro
EndSplineSet
Validated: 9
EndChar

StartChar: guillemotleft
Encoding: 89 171 91
Width: 500
Flags: W
HStem: 0 21G<403.451 423.92> 0 21G<403.451 423.92> 727 20G<401.627 421.08> 727 20G<401.627 421.08>
LayerCount: 6
Fore
SplineSet
421 747 m 5x60
 424 0 l 5
 50 364 l 5
 421 747 l 5x60
  Spiro
    421 747 v
    424 0 v
    50 364 v
    0 0 z
  EndSpiro
EndSplineSet
Validated: 1
EndChar

StartChar: H22073
Encoding: 92 9633 92
Width: 500
InSpiro: 1
Flags: W
HStem: 0 70.9648<77.875 422.125> 675.225 70.7754<77.875 422.125>
VStem: 25 52.875<70.9648 675.225> 422.125 52.875<70.9648 676.035>
LayerCount: 6
Fore
SplineSet
77.875 675.224609375 m 1
 77.875 70.96484375 l 1
 422.125 70.96484375 l 1
 422.125 676.03515625 l 1
 77.875 675.224609375 l 1
  Spiro
    77.875 675.225 v
    77.875 70.965 v
    422.125 70.965 v
    422.125 676.035 v
    0 0 z
  EndSpiro
25 746 m 1
 475 747 l 1
 475 0 l 1
 25 0 l 1
 25 746 l 1
  Spiro
    475 747 v
    475 0 v
    25 0 v
    25 746 v
    0 0 z
  EndSpiro
EndSplineSet
Validated: 1
EndChar

StartChar: arrowleft
Encoding: 93 8592 93
Width: 500
InSpiro: 1
Flags: W
LayerCount: 6
Fore
SplineSet
280 543 m 2
 289.526723529 547.35360721 297.011441014 555.961032318 300 566 c 0
 302.239243264 573.521916369 301.998071248 581.727955092 299.525064701 589.17628879 c 0
 297.052058154 596.624622488 292.38389997 603.298699897 286.373517454 608.345356044 c 0
 280.363134938 613.392012191 273.039181363 616.818738754 265.355097136 618.415073886 c 0
 257.671012909 620.011409019 249.640310723 619.794181795 242 618 c 0
 229.998417965 615.181656509 218.958364489 608.41517212 211 599 c 2
 37 411 l 2
 29.4324804457 403.960208163 23.276068775 395.409636398 19 386 c 0
 13.7631287096 374.476084624 11.3766400339 361.38319139 14 349 c 0
 15.8144783482 340.435017326 20.0129327309 332.387979759 26 326 c 2
 213 141 l 2
 224.178893029 127.896046037 241.832188618 120.604467425 259 122 c 0
 268.708559838 122.789186881 278.236288979 126.261074426 285.953445809 132.204511187 c 0
 293.670602638 138.147947947 299.509787928 146.583111241 302 156 c 0
 304.099267698 163.938508777 303.799545278 172.494867106 301.149945372 180.267026831 c 0
 298.500345465 188.039186557 293.511188624 194.99687406 287 200 c 2
 155 315 l 1
 437 316 l 1
 500 317 l 1
 500 410 l 1
 428 410 l 1
 154 413 l 1
 280 543 l 2
  Spiro
    280 543 v
    300 566 c
    242 618 c
    211 599 v
    37 411 v
    19 386 c
    14 349 c
    26 326 v
    213 141 v
    259 122 c
    302 156 c
    287 200 v
    155 315 v
    437 316 v
    500 317 v
    500 410 v
    428 410 v
    154 413 v
    0 0 z
  EndSpiro
EndSplineSet
Validated: 41
EndChar

StartChar: arrowright
Encoding: 94 8594 94
Width: 500
Flags: W
HStem: 316 94<0 345>
LayerCount: 6
Fore
SplineSet
220 543 m 6
 210.473632812 547.353515625 202.98828125 555.9609375 200 566 c 4
 197.760742188 573.521484375 198.001953125 581.727539062 200.474609375 589.176757812 c 4
 202.948242188 596.625 207.616210938 603.298828125 213.626953125 608.345703125 c 4
 219.63671875 613.391601562 226.9609375 616.818359375 234.64453125 618.415039062 c 4
 242.329101562 620.01171875 250.359375 619.793945312 258 618 c 4
 270.001953125 615.181640625 281.041992188 608.415039062 289 599 c 6
 463 411 l 6
 470.567382812 403.959960938 476.723632812 395.409179688 481 386 c 4
 486.237304688 374.4765625 488.623046875 361.3828125 486 349 c 4
 484.185546875 340.434570312 479.987304688 332.387695312 474 326 c 6
 294 145 l 6
 281.889952987 132.822674948 262.12109375 119.400390625 244.953125 120.795898438 c 4
 235.244140625 121.584960938 225.716796875 125.056640625 218 131 c 4
 210.282226562 136.943359375 204.443359375 145.37890625 201.953125 154.795898438 c 4
 199.853515625 162.734375 200.153320312 171.291015625 202.802734375 179.0625 c 4
 205.453125 186.834960938 210.442382812 193.79296875 216.953125 198.795898438 c 6
 345 315 l 5
 63 316 l 5
 0 317 l 5
 0 410 l 5
 72 410 l 5
 346 413 l 5
 220 543 l 6
EndSplineSet
Validated: 33
EndChar

